<svg width="332" height="120" viewBox="0 0 332 120" fill="none" xmlns="http://www.w3.org/2000/svg">
<g clip-path="url(#clip0_1281_2209)">
<path d="M310.645 120H21.0337C18.2717 120 15.5366 119.456 12.9847 118.399C10.4328 117.343 8.11413 115.793 6.16095 113.84C4.20778 111.887 2.65842 109.569 1.60132 107.017C0.544217 104.465 8.83706e-05 101.73 0 98.9683L0 21.0317C8.83706e-05 18.2696 0.544217 15.5346 1.60132 12.9829C2.65842 10.4311 4.20778 8.11251 6.16095 6.15953C8.11413 4.20654 10.4328 2.6574 12.9847 1.60054C15.5366 0.543689 18.2717 -0.000176711 21.0337 4.30694e-08H310.645C316.223 4.30693e-08 321.572 2.21583 325.516 6.16004C329.461 10.1043 331.676 15.4537 331.676 21.0317V98.9683C331.676 104.546 329.461 109.896 325.516 113.84C321.572 117.784 316.223 120 310.645 120Z" fill="#D9ECDC"/>
<path d="M91.4372 34.3599V45.313H89.4031V40.6187H83.7388V45.313H81.7045V34.3599H83.7388V38.8818H89.4031V34.3599H91.4372Z" fill="#288F51"/>
<path d="M94.3245 35.2451C94.2108 35.1371 94.1203 35.0071 94.0584 34.8631C93.9965 34.719 93.9646 34.5639 93.9646 34.4071C93.9646 34.2503 93.9965 34.0951 94.0584 33.951C94.1203 33.807 94.2108 33.677 94.3245 33.5691C94.5661 33.344 94.8865 33.2231 95.2166 33.2326C95.5437 33.2223 95.8626 33.3367 96.1086 33.5526C96.2245 33.6523 96.3168 33.7764 96.3791 33.916C96.4413 34.0556 96.4719 34.2073 96.4686 34.3601C96.4726 34.5212 96.4433 34.6814 96.3825 34.8306C96.3218 34.9799 96.2309 35.115 96.1156 35.2276C95.9982 35.3451 95.8577 35.437 95.7031 35.4978C95.5484 35.5585 95.3829 35.5867 95.2169 35.5805C94.8869 35.59 94.5664 35.4691 94.3249 35.2441M94.2307 36.9588H96.1866V45.3146H94.2307V36.9588Z" fill="#288F51"/>
<path d="M107.084 36.9572V44.0455C107.084 46.9872 105.582 48.4575 102.578 48.4564C101.806 48.4613 101.037 48.3594 100.293 48.1536C99.6446 47.9837 99.0377 47.6825 98.51 47.2686L99.3849 45.7979C99.7966 46.1256 100.267 46.3722 100.77 46.5246C101.318 46.7058 101.891 46.7985 102.467 46.7992C103.385 46.7992 104.058 46.5906 104.486 46.1734C104.914 45.7561 105.128 45.1182 105.128 44.2645V43.8247C104.791 44.1926 104.373 44.4771 103.907 44.6558C103.403 44.8482 102.866 44.9437 102.326 44.9375C101.578 44.9473 100.84 44.772 100.177 44.427C99.5473 44.1008 99.0216 43.6053 98.6587 42.9963C98.2941 42.3533 98.1024 41.6267 98.1024 40.8874C98.1024 40.1482 98.2941 39.4216 98.6587 38.7785C99.0231 38.1741 99.5487 37.6832 100.177 37.3609C100.842 37.0223 101.58 36.8504 102.327 36.8603C102.892 36.8537 103.452 36.9546 103.979 37.1577C104.464 37.3491 104.892 37.662 105.222 38.0662V36.9558L107.084 36.9572ZM104.449 42.6127C104.684 42.3923 104.869 42.1239 104.992 41.8258C105.114 41.5277 105.171 41.2067 105.16 40.8846C105.171 40.5656 105.113 40.2479 104.991 39.9533C104.868 39.6586 104.683 39.3939 104.449 39.1773C103.933 38.7524 103.286 38.52 102.618 38.52C101.95 38.52 101.302 38.7524 100.787 39.1773C100.552 39.3938 100.367 39.6584 100.244 39.9531C100.121 40.2477 100.063 40.5655 100.074 40.8846C100.063 41.2068 100.12 41.5278 100.243 41.8259C100.366 42.124 100.552 42.3923 100.787 42.6127C101.3 43.0429 101.948 43.2786 102.618 43.2786C103.287 43.2786 103.935 43.0429 104.449 42.6127Z" fill="#288F51"/>
<path d="M116.928 37.7867C117.564 38.4022 117.883 39.3149 117.883 40.5249V45.3117H115.927V40.7753C115.971 40.1799 115.786 39.5901 115.41 39.1265C115.218 38.9347 114.988 38.7859 114.735 38.69C114.481 38.5941 114.21 38.5533 113.939 38.5703C113.626 38.5537 113.312 38.6029 113.018 38.7145C112.724 38.8262 112.457 38.9979 112.234 39.2187C111.787 39.7354 111.562 40.4078 111.608 41.0895V45.3117H109.652V33.7031H111.608V37.928C111.941 37.5766 112.35 37.3065 112.804 37.1386C113.312 36.9491 113.851 36.8559 114.393 36.864C114.856 36.8421 115.318 36.9124 115.754 37.0709C116.189 37.2294 116.588 37.473 116.928 37.7873" fill="#288F51"/>
<path d="M126.911 36.0649V39.3978H132.199V41.1189H126.911V45.3124H124.877V34.3613H132.872V36.0653L126.911 36.0649Z" fill="#288F51"/>
<path d="M142.449 41.7612H135.893C135.99 42.3476 136.313 42.8725 136.793 43.2232C137.32 43.5965 137.954 43.7864 138.6 43.7639C139.02 43.7768 139.439 43.7028 139.83 43.5465C140.22 43.3902 140.575 43.1549 140.87 42.8555L141.919 44.0604C141.536 44.5132 141.046 44.8629 140.493 45.0776C139.789 45.3359 139.04 45.4511 138.29 45.4164C137.54 45.3818 136.805 45.1979 136.128 44.8757C135.453 44.5322 134.891 44.0024 134.509 43.3491C134.122 42.6758 133.924 41.9104 133.937 41.134C133.926 40.3654 134.118 39.6075 134.493 38.9365C134.854 38.2945 135.388 37.7664 136.033 37.4119C136.715 37.04 137.481 36.8507 138.257 36.8624C139.019 36.85 139.771 37.0364 140.439 37.4031C141.074 37.7561 141.595 38.2826 141.941 38.921C142.311 39.6164 142.497 40.3952 142.48 41.1828C142.48 41.3174 142.469 41.5104 142.448 41.7619M136.668 38.9836C136.23 39.3627 135.949 39.89 135.877 40.4641H140.618C140.553 39.8961 140.281 39.3722 139.853 38.9933C139.402 38.6303 138.841 38.4316 138.262 38.43C137.683 38.4284 137.121 38.624 136.668 38.9846" fill="#288F51"/>
<path d="M149.287 36.8636V38.7257C149.137 38.6971 148.985 38.6814 148.833 38.6789C148.505 38.6602 148.178 38.7097 147.871 38.8243C147.564 38.939 147.284 39.1162 147.049 39.3448C146.591 39.8738 146.36 40.5625 146.408 41.2607V45.3133H144.452V36.9588H146.314V38.1793C146.877 37.3013 147.868 36.8626 149.287 36.8633" fill="#288F51"/>
<path d="M156.509 44.8592C156.261 45.0546 155.977 45.1983 155.673 45.2818C155.333 45.3772 154.982 45.4247 154.63 45.4228C153.853 45.4725 153.088 45.2139 152.502 44.703C152.238 44.4245 152.036 44.0943 151.906 43.7334C151.777 43.3726 151.724 42.9888 151.751 42.6064V38.5848H150.375V37.0202H151.752V35.1113H153.709V37.0202H155.947V38.5848H153.709V42.5593C153.686 42.896 153.792 43.2288 154.006 43.4894C154.119 43.6007 154.254 43.6869 154.402 43.7421C154.551 43.7972 154.709 43.8202 154.867 43.8093C155.261 43.8242 155.647 43.7033 155.962 43.4668L156.509 44.8592Z" fill="#288F51"/>
<path d="M158.215 35.245C158.101 35.137 158.01 35.0071 157.949 34.863C157.887 34.7189 157.855 34.5638 157.855 34.407C157.855 34.2502 157.887 34.095 157.949 33.951C158.01 33.8069 158.101 33.6769 158.215 33.569C158.456 33.3439 158.777 33.223 159.107 33.2325C159.434 33.2228 159.752 33.3371 159.999 33.5525C160.115 33.6522 160.207 33.7763 160.269 33.9159C160.332 34.0555 160.362 34.2072 160.359 34.36C160.362 34.5211 160.333 34.6812 160.272 34.8304C160.212 34.9796 160.121 35.1147 160.006 35.2275C159.888 35.3448 159.748 35.4367 159.593 35.4974C159.439 35.5581 159.273 35.5864 159.107 35.5805C158.777 35.5899 158.457 35.469 158.215 35.244M158.119 36.9587H160.075V45.3145H158.119V36.9587Z" fill="#288F51"/>
<path d="M164.599 33.7031H162.643V45.3134H164.599V33.7031Z" fill="#288F51"/>
<path d="M167.277 35.2451C167.163 35.1371 167.072 35.0071 167.01 34.8631C166.948 34.719 166.917 34.5639 166.917 34.4071C166.917 34.2503 166.948 34.0951 167.01 33.951C167.072 33.807 167.163 33.677 167.277 33.5691C167.518 33.344 167.839 33.2231 168.169 33.2326C168.496 33.2223 168.815 33.3367 169.061 33.5526C169.176 33.6523 169.269 33.7764 169.331 33.916C169.393 34.0556 169.424 34.2073 169.421 34.3601C169.425 34.5212 169.395 34.6814 169.334 34.8306C169.274 34.9799 169.183 35.115 169.068 35.2276C168.95 35.3451 168.81 35.437 168.655 35.4978C168.5 35.5585 168.335 35.5867 168.169 35.5805C167.839 35.59 167.518 35.4691 167.277 35.2441M167.184 36.9588H169.14V45.3146H167.184V36.9588Z" fill="#288F51"/>
<path d="M176.799 44.8592C176.551 45.0546 176.267 45.1983 175.962 45.2818C175.623 45.3772 175.272 45.4247 174.919 45.4228C174.143 45.4725 173.378 45.2139 172.791 44.703C172.528 44.4245 172.325 44.0943 172.196 43.7334C172.067 43.3726 172.014 42.9888 172.04 42.6064V38.5848H170.665V37.0202H172.042V35.1113H173.998V37.0202H176.235V38.5848H173.998V42.5593C173.974 42.896 174.081 43.2288 174.295 43.4894C174.408 43.6007 174.543 43.6869 174.691 43.7421C174.839 43.7972 174.998 43.8202 175.156 43.8093C175.549 43.8242 175.936 43.7033 176.251 43.4668L176.799 44.8592Z" fill="#288F51"/>
<path d="M186.599 36.9576L182.687 45.985C182.434 46.7372 181.973 47.4023 181.357 47.9029C180.801 48.2835 180.138 48.4777 179.464 48.4574C179.044 48.4566 178.626 48.3885 178.228 48.2556C177.858 48.1409 177.516 47.9489 177.226 47.6923L178.009 46.2528C178.203 46.433 178.429 46.5763 178.674 46.6754C178.92 46.7769 179.183 46.8301 179.448 46.8319C179.755 46.8438 180.057 46.7487 180.302 46.5627C180.575 46.3186 180.786 46.0135 180.919 45.6724L181.06 45.342L177.414 36.9565H179.448L182.077 43.1373L184.722 36.9565L186.599 36.9576Z" fill="#288F51"/>
<path d="M56.0472 21.8995C55.4688 21.3288 54.7814 20.8804 54.026 20.5812C53.2706 20.2819 52.4627 20.1378 51.6504 20.1575C50.8341 20.1692 50.0282 20.3431 49.2796 20.669C48.531 20.9949 47.8547 21.4664 47.29 22.056L44.8091 24.6395L42.3141 22.056C41.7495 21.4709 41.0751 21.0028 40.3296 20.6783C39.5841 20.3539 38.7819 20.1794 37.969 20.165C36.3271 20.1358 34.741 20.76 33.5594 21.9003C32.9743 22.465 32.5062 23.1393 32.1817 23.8848C31.8573 24.6304 31.6828 25.4325 31.6684 26.2455C31.6392 27.8873 32.2634 29.4735 33.4037 30.6551L42.2532 39.6751C42.3363 39.7605 42.4409 39.8217 42.556 39.8524L44.6355 40.4019C44.7933 40.4444 44.9613 40.4264 45.1065 40.3514L47.325 39.2161C47.3831 39.1851 47.4368 39.1465 47.4848 39.1014L56.1996 30.6517C56.906 29.9219 57.4221 29.0295 57.7022 28.0532C57.9823 27.0769 58.018 26.0467 57.806 25.0533C57.5512 23.8482 56.9372 22.7486 56.0448 21.8995" fill="#91BE98"/>
<path d="M49.9034 55.8406C49.1245 55.843 48.3753 55.5424 47.814 55.0024C47.2527 54.4624 46.9234 53.7253 46.8956 52.9469L46.546 43.8478L39.9722 44.4686C39.8451 44.4798 39.7174 44.4546 39.6041 44.3957C39.4909 44.3369 39.3968 44.247 39.3329 44.1365C39.2697 44.0253 39.24 43.8982 39.2475 43.7705C39.2549 43.6428 39.299 43.5199 39.3746 43.4168L49.1403 30.0746C49.2028 29.9906 49.2839 29.9222 49.3773 29.8748C49.4707 29.8275 49.5739 29.8025 49.6786 29.8018C49.7835 29.8027 49.8866 29.8284 49.9796 29.8767C50.0727 29.9251 50.153 29.9948 50.214 30.08L59.9046 43.6621C59.9798 43.7672 60.0225 43.8921 60.0275 44.0213C60.0324 44.1504 59.9994 44.2782 59.9325 44.3889C59.868 44.5011 59.771 44.5912 59.6543 44.6473C59.5376 44.7034 59.4067 44.723 59.2787 44.7035L52.9677 43.8777L52.9085 52.8507C52.9019 53.6447 52.5824 54.4042 52.0192 54.964C51.4561 55.5239 50.6948 55.839 49.9007 55.841" fill="#288F51"/>
<path d="M37.3305 73.6245V76.846H35.6353V73.6494L32.0484 67.7173H33.8617L36.534 72.1629L39.2339 67.7173H40.9029L37.3305 73.6245Z" fill="#1A1818"/>
<path d="M43.0809 76.4809C42.529 76.1895 42.0705 75.7485 41.7579 75.2083C41.4454 74.6449 41.2815 74.0113 41.2815 73.3671C41.2815 72.7229 41.4454 72.0892 41.7579 71.5259C42.0719 70.989 42.5303 70.5511 43.0809 70.2621C43.6668 69.9515 44.3217 69.7942 44.9847 69.8048C45.6524 69.7934 46.312 69.9507 46.9027 70.2621C47.4526 70.5521 47.9108 70.9898 48.2257 71.5259C48.5382 72.0892 48.7021 72.7229 48.7021 73.3671C48.7021 74.0113 48.5382 74.6449 48.2257 75.2083C47.9122 75.7477 47.4539 76.1886 46.9027 76.4809C46.3116 76.7909 45.6521 76.9476 44.9847 76.9365C44.322 76.9468 43.6673 76.7901 43.0809 76.4809ZM46.4713 74.9422C46.8493 74.5034 47.0572 73.9435 47.0572 73.3644C47.0572 72.7853 46.8493 72.2254 46.4713 71.7866C46.2786 71.5891 46.047 71.4338 45.7911 71.3305C45.5352 71.2272 45.2606 71.1782 44.9847 71.1867C44.7097 71.1776 44.4359 71.2263 44.1809 71.3297C43.9259 71.433 43.6954 71.5887 43.5042 71.7866C43.1294 72.2269 42.9235 72.7862 42.9235 73.3644C42.9235 73.9426 43.1294 74.5019 43.5042 74.9422C43.6956 75.1398 43.9262 75.2952 44.1811 75.3985C44.4361 75.5019 44.7098 75.5508 44.9847 75.5421C45.2605 75.5502 45.535 75.501 45.7908 75.3978C46.0467 75.2945 46.2784 75.1394 46.4713 74.9422Z" fill="#1A1818"/>
<path d="M57.0072 69.8833V76.8454H55.4547V75.9588C55.1914 76.2739 54.8569 76.5218 54.4789 76.6819C54.0792 76.854 53.6482 76.9411 53.213 76.9376C52.8138 76.9595 52.4142 76.9021 52.0373 76.7687C51.6604 76.6353 51.3137 76.4285 51.0172 76.1603C50.4817 75.6422 50.214 74.8749 50.214 73.8585V69.8833H51.8449V73.6388C51.8055 74.1423 51.9563 74.6424 52.2675 75.0402C52.4236 75.1994 52.6122 75.3231 52.8204 75.4029C53.0286 75.4827 53.2516 75.5167 53.4741 75.5025C53.7306 75.515 53.9868 75.4732 54.2261 75.3799C54.4653 75.2867 54.6822 75.1439 54.8625 74.9611C55.2317 74.5287 55.4171 73.9689 55.379 73.4015V69.8833H57.0072Z" fill="#1A1818"/>
<path d="M63.1739 69.8047V71.3572C63.0492 71.3315 62.9223 71.3181 62.795 71.3172C62.5225 71.3017 62.2497 71.3429 61.9938 71.438C61.738 71.5332 61.5046 71.6803 61.3084 71.87C60.9268 72.3113 60.735 72.8855 60.7747 73.4676V76.8459H59.1455V69.8841H60.6963V70.9013C61.1658 70.1711 61.9917 69.806 63.1739 69.806" fill="#1A1818"/>
<path d="M70.0178 69.5177V69.9349H71.9358V71.2388H70.071V76.8459H68.4418V71.2391H67.2944V69.9353H68.4418V69.4901C68.4238 69.1669 68.4725 68.8436 68.5846 68.54C68.6968 68.2364 68.8701 67.9591 69.0939 67.7252C69.3413 67.5 69.6315 67.3268 69.9473 67.216C70.263 67.1052 70.5978 67.059 70.9317 67.0802C71.4501 67.0514 71.9647 67.1825 72.4062 67.4557L71.9489 68.6832C71.6863 68.4965 71.3724 68.3957 71.0502 68.3945C70.3635 68.3945 70.0199 68.7689 70.0192 69.5177" fill="#1A1818"/>
<path d="M79.5514 73.887H74.0889C74.1702 74.3755 74.4391 74.8128 74.8383 75.1057C75.2775 75.4164 75.8064 75.5745 76.344 75.556C76.6946 75.567 77.0436 75.5053 77.3692 75.3748C77.6948 75.2444 77.9898 75.0479 78.2357 74.7979L79.1086 75.8046C78.7901 76.1813 78.3825 76.4724 77.9228 76.6512C77.4069 76.8485 76.8583 76.9459 76.306 76.9382C75.6043 76.9519 74.9098 76.7939 74.2831 76.4779C73.7206 76.1926 73.2522 75.7514 72.9338 75.207C72.6112 74.6459 72.4466 74.0079 72.4573 73.3608C72.4481 72.7202 72.6082 72.0886 72.9217 71.53C73.2215 70.9942 73.6661 70.5538 74.2047 70.2591C74.7715 69.9489 75.4093 69.7913 76.0553 69.8018C76.691 69.7909 77.3184 69.9461 77.8757 70.252C78.4045 70.5461 78.8383 70.9853 79.1257 71.5179C79.4351 72.0969 79.5901 72.7458 79.5759 73.4021C79.5759 73.5152 79.5672 73.6767 79.5497 73.8853M74.734 71.5697C74.3694 71.8848 74.1346 72.324 74.0751 72.8022H78.0268C77.9739 72.3228 77.7413 71.8813 77.3757 71.5667C77.0102 71.2521 76.5389 71.0878 76.057 71.107C75.5742 71.0938 75.1034 71.2587 74.734 71.5697Z" fill="#1A1818"/>
<path d="M85.1706 69.8047V71.3572C85.0464 71.3316 84.9201 71.3181 84.7934 71.3172C84.5207 71.3016 84.2477 71.3425 83.9916 71.4376C83.7356 71.5326 83.5019 71.6796 83.3054 71.8693C82.9239 72.3107 82.7321 72.8849 82.7718 73.4669V76.8452H81.1422V69.8841H82.693V70.9013C83.1626 70.1711 83.9884 69.806 85.1706 69.806" fill="#1A1818"/>
<path d="M90.8036 76.4672C90.5978 76.6313 90.3605 76.7514 90.1064 76.8202C89.8242 76.8997 89.5322 76.9395 89.2389 76.9383C88.5917 76.9792 87.9544 76.763 87.4657 76.3367C87.2461 76.1046 87.0772 75.8294 86.9694 75.5287C86.8617 75.2279 86.8176 74.908 86.8398 74.5893V71.239H85.6924V69.9351H86.8402V68.3442H88.4711V69.9351H90.3349V71.239H88.4704V74.5493C88.4505 74.8304 88.5389 75.1085 88.7174 75.3265C88.811 75.4195 88.9233 75.4915 89.0467 75.5379C89.1702 75.5843 89.3021 75.604 89.4338 75.5957C89.7619 75.607 90.084 75.5057 90.3466 75.3087L90.8036 76.4672Z" fill="#1A1818"/>
<path d="M92.2259 68.4541C92.1309 68.3645 92.0552 68.2565 92.0035 68.1366C91.9517 68.0167 91.925 67.8875 91.925 67.7569C91.925 67.6264 91.9517 67.4972 92.0035 67.3773C92.0552 67.2574 92.1309 67.1493 92.2259 67.0598C92.4266 66.8721 92.6935 66.7715 92.9682 66.7798C93.2409 66.7715 93.5068 66.8665 93.7124 67.046C93.809 67.129 93.886 67.2324 93.9377 67.3488C93.9895 67.4652 94.0147 67.5916 94.0116 67.7189C94.0148 67.8532 93.9903 67.9867 93.9398 68.1111C93.8893 68.2356 93.8137 68.3483 93.7178 68.4424C93.6196 68.5399 93.5024 68.6163 93.3736 68.6668C93.2447 68.7173 93.1068 68.7409 92.9685 68.7361C92.6936 68.7437 92.4268 68.6425 92.2262 68.4545M92.1478 69.8835H93.7771V76.8466H92.1475L92.1478 69.8835Z" fill="#1A1818"/>
<path d="M97.5464 67.1694H95.9171V76.8449H97.5464V67.1694Z" fill="#1A1818"/>
<path d="M99.7621 68.4541C99.6671 68.3645 99.5914 68.2565 99.5397 68.1366C99.4879 68.0167 99.4612 67.8875 99.4612 67.7569C99.4612 67.6264 99.4879 67.4972 99.5397 67.3773C99.5914 67.2574 99.6671 67.1493 99.7621 67.0598C99.9628 66.8721 100.23 66.7715 100.504 66.7798C100.777 66.7715 101.043 66.8665 101.249 67.046C101.345 67.129 101.422 67.2324 101.474 67.3488C101.526 67.4652 101.551 67.5916 101.548 67.7189C101.551 67.8532 101.527 67.9867 101.476 68.1111C101.425 68.2356 101.35 68.3483 101.254 68.4424C101.156 68.5399 101.039 68.6163 100.91 68.6668C100.781 68.7173 100.643 68.7409 100.505 68.7361C100.23 68.7437 99.9627 68.6424 99.7621 68.4541ZM99.6837 69.8832H101.313V76.8463H99.6843L99.6837 69.8832Z" fill="#1A1818"/>
<path d="M107.639 76.4672C107.433 76.6313 107.196 76.7514 106.942 76.8202C106.659 76.8997 106.367 76.9395 106.074 76.9383C105.427 76.9792 104.79 76.763 104.301 76.3367C104.081 76.1046 103.912 75.8294 103.805 75.5287C103.697 75.2279 103.653 74.908 103.675 74.5893V71.239H102.528V69.9351H103.675V68.3442H105.306V69.9351H107.17V71.239H105.306V74.5493C105.286 74.8304 105.374 75.1085 105.553 75.3265C105.646 75.4195 105.758 75.4915 105.882 75.5379C106.005 75.5843 106.137 75.604 106.269 75.5957C106.597 75.607 106.919 75.5057 107.182 75.3087L107.639 76.4672Z" fill="#1A1818"/>
<path d="M115.502 69.8833L112.242 77.4063C112.031 78.0332 111.646 78.5873 111.132 79.0043C110.669 79.3225 110.117 79.4851 109.555 79.4686C109.205 79.4671 108.857 79.4096 108.524 79.2984C108.216 79.2023 107.931 79.0417 107.69 78.8273L108.342 77.6277C108.503 77.7781 108.692 77.8972 108.896 77.979C109.101 78.0644 109.32 78.1087 109.542 78.1096C109.797 78.1195 110.048 78.041 110.253 77.8872C110.479 77.6838 110.655 77.4303 110.767 77.1469L110.885 76.8723L107.846 69.8833H109.541L111.732 75.0315L113.936 69.8833H115.502Z" fill="#1A1818"/>
<path d="M121.747 67.1694H120.118V76.8449H121.747V67.1694Z" fill="#1A1818"/>
<path d="M130.406 73.8873H124.943C125.025 74.3752 125.294 74.8118 125.693 75.1044C126.132 75.415 126.661 75.5732 127.198 75.5546C127.549 75.5656 127.898 75.5039 128.224 75.3734C128.55 75.2428 128.845 75.0461 129.091 74.7958L129.964 75.8026C129.645 76.1793 129.238 76.4703 128.778 76.6492C128.262 76.8464 127.714 76.9438 127.161 76.9362C126.46 76.9506 125.766 76.7937 125.139 76.4789C124.577 76.1936 124.109 75.7524 123.79 75.208C123.468 74.6469 123.303 74.0089 123.314 73.3617C123.304 72.7212 123.465 72.0896 123.778 71.531C124.078 70.9952 124.522 70.5548 125.061 70.2601C125.628 69.9499 126.266 69.7923 126.912 69.8028C127.547 69.7919 128.175 69.947 128.732 70.253C129.261 70.5471 129.695 70.9863 129.982 71.5188C130.291 72.0979 130.446 72.7468 130.432 73.4031C130.432 73.5162 130.423 73.6777 130.406 73.8863M125.588 71.57C125.224 71.8851 124.989 72.3243 124.929 72.8025H128.881C128.828 72.3231 128.596 71.8816 128.23 71.567C127.864 71.2524 127.393 71.0882 126.911 71.1073C126.429 71.0941 125.958 71.259 125.588 71.57Z" fill="#1A1818"/>
<path d="M138.517 69.8828L135.53 76.845H133.847L130.86 69.8818H132.555L134.72 75.0455L136.951 69.8818L138.517 69.8828Z" fill="#1A1818"/>
<path d="M146.053 73.8873H140.591C140.672 74.3752 140.941 74.8118 141.34 75.1044C141.779 75.415 142.308 75.5732 142.846 75.5546C143.196 75.5656 143.546 75.5039 143.871 75.3734C144.197 75.2428 144.492 75.0461 144.738 74.7958L145.611 75.8026C145.293 76.1793 144.885 76.4703 144.425 76.6492C143.91 76.8464 143.361 76.9438 142.809 76.9362C142.108 76.9506 141.413 76.7937 140.787 76.4789C140.224 76.1936 139.756 75.7524 139.437 75.208C139.115 74.6469 138.95 74.0089 138.961 73.3617C138.952 72.7212 139.112 72.0896 139.425 71.531C139.725 70.9952 140.17 70.5548 140.708 70.2601C141.275 69.9499 141.913 69.7923 142.559 69.8028C143.195 69.7919 143.822 69.947 144.379 70.253C144.908 70.5471 145.342 70.9863 145.629 71.5188C145.939 72.0979 146.094 72.7468 146.08 73.4031C146.08 73.5162 146.071 73.6777 146.053 73.8863M141.236 71.57C140.871 71.8851 140.636 72.3243 140.577 72.8025H144.528C144.476 72.3231 144.243 71.8816 143.877 71.567C143.512 71.2524 143.041 71.0882 142.559 71.1073C142.076 71.0941 141.605 71.259 141.236 71.57Z" fill="#1A1818"/>
<path d="M149.273 67.1694H147.644V76.8449H149.273V67.1694Z" fill="#1A1818"/>
<path d="M155.088 68.4541C154.993 68.3645 154.918 68.2565 154.866 68.1366C154.814 68.0167 154.788 67.8875 154.788 67.7569C154.788 67.6263 154.814 67.4971 154.866 67.3773C154.918 67.2574 154.993 67.1493 155.088 67.0597C155.29 66.872 155.557 66.7714 155.832 66.7798C156.105 66.7718 156.37 66.8669 156.575 67.0459C156.672 67.1289 156.749 67.2322 156.801 67.3486C156.853 67.465 156.878 67.5915 156.876 67.7189C156.878 67.8531 156.854 67.9865 156.803 68.1109C156.753 68.2353 156.677 68.348 156.582 68.4423C156.483 68.5396 156.366 68.6158 156.237 68.6663C156.109 68.7168 155.971 68.7405 155.832 68.7361C155.557 68.7438 155.29 68.6426 155.088 68.4544M155.01 69.8835H156.639V76.8466H155.01V69.8835Z" fill="#1A1818"/>
<path d="M159.273 76.7135C158.814 76.6018 158.378 76.4124 157.983 76.1536L158.608 74.914C158.956 75.139 159.336 75.3085 159.735 75.4164C160.157 75.539 160.594 75.6022 161.034 75.6042C162.007 75.6042 162.494 75.348 162.494 74.8356C162.497 74.7217 162.462 74.61 162.395 74.5181C162.327 74.4262 162.231 74.3593 162.122 74.3279C161.734 74.1983 161.335 74.1064 160.929 74.0533C160.455 73.9876 159.987 73.8876 159.528 73.7542C159.167 73.6415 158.842 73.4365 158.586 73.1596C158.305 72.8327 158.162 72.4094 158.187 71.9792C158.181 71.6667 158.254 71.3577 158.399 71.0808C158.544 70.8039 158.756 70.5682 159.017 70.3954C159.682 69.9685 160.464 69.7611 161.253 69.8026C161.736 69.8037 162.217 69.8585 162.687 69.9661C163.099 70.0509 163.494 70.1984 163.861 70.4035L163.235 71.6431C162.63 71.291 161.941 71.1102 161.241 71.1199C160.865 71.0984 160.49 71.1726 160.15 71.3356C160.042 71.3863 159.95 71.4661 159.884 71.5662C159.818 71.6662 159.782 71.7826 159.778 71.9022C159.776 72.0257 159.813 72.1468 159.885 72.2471C159.957 72.3475 160.06 72.4216 160.178 72.4584C160.577 72.6007 160.99 72.7032 161.409 72.7643C161.872 72.8296 162.33 72.9295 162.779 73.0634C163.129 73.1725 163.445 73.3701 163.697 73.6371C163.972 73.9543 164.111 74.3671 164.084 74.7862C164.089 75.0976 164.013 75.4051 163.865 75.6788C163.716 75.9526 163.499 76.1834 163.236 76.3491C162.545 76.7758 161.739 76.9808 160.928 76.9366C160.369 76.9369 159.812 76.8619 159.273 76.7135Z" fill="#1A1818"/>
<path d="M175.156 70.5736C175.686 71.0864 175.951 71.8467 175.952 72.8546V76.8439H174.323V73.0649C174.361 72.5681 174.207 72.0757 173.892 71.6897C173.732 71.5294 173.54 71.4051 173.329 71.325C173.118 71.2449 172.891 71.2109 172.666 71.2254C172.404 71.2119 172.143 71.2532 171.898 71.3466C171.654 71.44 171.432 71.5835 171.246 71.7678C170.873 72.197 170.685 72.7565 170.724 73.3237V76.8439H169.093V67.1694H170.722V70.69C171.001 70.3975 171.342 70.1722 171.72 70.0312C172.144 69.8761 172.592 69.7994 173.043 69.8051C173.429 69.7867 173.814 69.8451 174.177 69.9771C174.54 70.109 174.872 70.3118 175.156 70.5736Z" fill="#1A1818"/>
<path d="M178.104 68.4541C178.009 68.3646 177.933 68.2565 177.882 68.1366C177.83 68.0167 177.803 67.8875 177.803 67.757C177.803 67.6264 177.83 67.4972 177.882 67.3773C177.933 67.2574 178.009 67.1494 178.104 67.0598C178.305 66.8718 178.572 66.7711 178.846 66.7798C179.119 66.7718 179.385 66.8668 179.591 67.046C179.687 67.1292 179.764 67.2327 179.815 67.349C179.867 67.4654 179.893 67.5917 179.89 67.7189C179.893 67.8532 179.869 67.9867 179.818 68.1111C179.767 68.2356 179.692 68.3483 179.596 68.4424C179.498 68.5397 179.381 68.616 179.252 68.6665C179.123 68.717 178.985 68.7407 178.847 68.7361C178.572 68.7442 178.305 68.6429 178.104 68.4545M178.026 69.8835H179.655V76.8466H178.026V69.8835Z" fill="#1A1818"/>
<path d="M188.705 69.8843V75.7922C188.705 78.2436 187.453 79.4693 184.949 79.4693C184.306 79.4728 183.665 79.3867 183.045 79.2136C182.504 79.0737 181.998 78.8226 181.559 78.4763L182.289 77.2505C182.632 77.5242 183.023 77.7298 183.443 77.8562C183.899 78.0078 184.376 78.0853 184.857 78.0857C185.622 78.0857 186.182 77.9113 186.539 77.5625C186.731 77.3473 186.877 77.0953 186.969 76.8218C187.061 76.5483 187.096 76.2591 187.073 75.9716V75.6065C186.792 75.9135 186.444 76.1505 186.055 76.2986C185.636 76.4591 185.189 76.539 184.74 76.5342C184.116 76.5434 183.5 76.3976 182.947 76.1099C182.422 75.8381 181.984 75.425 181.681 74.917C181.378 74.3812 181.219 73.7759 181.219 73.1601C181.219 72.5443 181.378 71.9391 181.681 71.4032C181.984 70.8989 182.423 70.4898 182.947 70.2228C183.502 69.9398 184.117 69.7965 184.74 69.8056C185.21 69.7996 185.676 69.884 186.115 70.0542C186.52 70.2118 186.877 70.4717 187.151 70.8086V69.8843H188.705ZM186.507 74.595C186.703 74.4116 186.858 74.1881 186.96 73.9398C187.062 73.6914 187.11 73.424 187.1 73.1556C187.11 72.8897 187.062 72.625 186.959 72.3794C186.857 72.1339 186.703 71.9134 186.507 71.7333C186.077 71.3792 185.538 71.1856 184.981 71.1856C184.425 71.1856 183.885 71.3792 183.456 71.7333C183.26 71.9137 183.106 72.1342 183.004 72.3797C182.902 72.6251 182.854 72.8898 182.863 73.1556C182.853 73.4239 182.901 73.6913 183.003 73.9396C183.106 74.1879 183.26 74.4114 183.456 74.595C183.883 74.9533 184.424 75.1497 184.981 75.1497C185.539 75.1497 186.079 74.9533 186.507 74.595Z" fill="#1A1818"/>
<path d="M196.907 70.5736C197.437 71.0864 197.703 71.8467 197.703 72.8546V76.8439H196.072V73.0649C196.111 72.5681 195.956 72.0757 195.641 71.6897C195.482 71.5294 195.29 71.4051 195.078 71.325C194.867 71.2449 194.641 71.2109 194.415 71.2254C194.154 71.2119 193.892 71.2532 193.648 71.3466C193.403 71.44 193.181 71.5835 192.995 71.7678C192.622 72.1971 192.435 72.7565 192.473 73.3237V76.8439H190.844V67.1694H192.473V70.69C192.752 70.3975 193.093 70.1722 193.471 70.0312C193.895 69.8761 194.343 69.7994 194.795 69.8051C195.18 69.7867 195.565 69.8451 195.928 69.9771C196.291 70.109 196.623 70.3118 196.907 70.5736Z" fill="#1A1818"/>
<path d="M199.541 76.6303C199.438 76.53 199.357 76.4095 199.304 76.2762C199.25 76.143 199.224 76.0001 199.228 75.8564C199.224 75.7133 199.248 75.5707 199.3 75.4371C199.352 75.3035 199.43 75.1817 199.53 75.0789C199.629 74.9761 199.749 74.8943 199.881 74.8385C200.012 74.7827 200.154 74.7539 200.298 74.7539C200.441 74.7539 200.583 74.7827 200.714 74.8385C200.846 74.8943 200.966 74.9761 201.065 75.0789C201.165 75.1817 201.243 75.3035 201.295 75.4371C201.347 75.5707 201.371 75.7133 201.367 75.8564C201.368 76.0686 201.307 76.2764 201.19 76.4538C201.074 76.6311 200.908 76.7699 200.712 76.8527C200.517 76.9355 200.302 76.9586 200.093 76.919C199.885 76.8794 199.693 76.779 199.541 76.6303Z" fill="#1A1818"/>
<path d="M208.408 67.7188H206.713V76.8465H208.408V67.7188Z" fill="#1A1818"/>
<path d="M216.779 70.5736C217.309 71.0864 217.575 71.8467 217.575 72.8546V76.8445H215.944V73.0649C215.983 72.5681 215.828 72.0756 215.513 71.6897C215.354 71.5294 215.162 71.405 214.951 71.3249C214.739 71.2449 214.513 71.2109 214.288 71.2253C214.026 71.2119 213.765 71.2531 213.52 71.3465C213.276 71.4399 213.053 71.5834 212.867 71.7677C212.495 72.197 212.307 72.7564 212.346 73.3236V76.8442H210.717V69.8844H212.268V70.7832C212.541 70.459 212.891 70.208 213.285 70.053C213.726 69.8823 214.195 69.7984 214.667 69.806C215.053 69.7876 215.438 69.8461 215.801 69.978C216.164 70.11 216.496 70.3128 216.78 70.5746" fill="#1A1818"/>
<path d="M227.432 76.4672C227.226 76.6313 226.989 76.7514 226.735 76.8202C226.452 76.8997 226.16 76.9395 225.867 76.9383C225.22 76.9792 224.583 76.763 224.094 76.3367C223.874 76.1046 223.705 75.8294 223.598 75.5287C223.49 75.2279 223.446 74.908 223.468 74.5893V71.239H222.321V69.9351H223.468V68.3442H225.099V69.9351H226.963V71.239H225.099V74.5493C225.079 74.8304 225.167 75.1085 225.346 75.3265C225.439 75.4195 225.551 75.4915 225.675 75.5379C225.798 75.5843 225.93 75.604 226.062 75.5957C226.39 75.607 226.712 75.5057 226.975 75.3087L227.432 76.4672Z" fill="#1A1818"/>
<path d="M234.837 70.5736C235.367 71.0864 235.633 71.8467 235.634 72.8546V76.8439H234.003V73.0649C234.041 72.5681 233.887 72.0757 233.572 71.6897C233.412 71.5294 233.22 71.4051 233.009 71.325C232.797 71.2449 232.571 71.2109 232.346 71.2254C232.084 71.2119 231.823 71.2532 231.578 71.3466C231.334 71.44 231.111 71.5835 230.925 71.7678C230.553 72.1971 230.365 72.7565 230.404 73.3237V76.8439H228.775V67.1694H230.404V70.69C230.682 70.3975 231.024 70.1722 231.402 70.0312C231.826 69.8761 232.274 69.7994 232.725 69.8051C233.11 69.7867 233.496 69.8451 233.858 69.9771C234.221 70.109 234.554 70.3118 234.837 70.5736Z" fill="#1A1818"/>
<path d="M237.787 68.4541C237.692 68.3646 237.616 68.2565 237.564 68.1366C237.513 68.0167 237.486 67.8875 237.486 67.757C237.486 67.6264 237.513 67.4972 237.564 67.3773C237.616 67.2574 237.692 67.1494 237.787 67.0598C237.987 66.8718 238.254 66.7711 238.529 66.7798C238.802 66.7719 239.067 66.8669 239.273 67.046C239.369 67.1292 239.446 67.2327 239.498 67.349C239.55 67.4654 239.575 67.5917 239.572 67.7189C239.575 67.8532 239.551 67.9867 239.5 68.1111C239.45 68.2356 239.374 68.3483 239.279 68.4424C239.18 68.5397 239.063 68.616 238.934 68.6665C238.805 68.717 238.668 68.7407 238.529 68.7361C238.254 68.7441 237.987 68.6429 237.787 68.4545M237.709 69.8835H239.338V76.8466H237.709L237.709 69.8835Z" fill="#1A1818"/>
<path d="M241.972 76.7135C241.513 76.6018 241.077 76.4124 240.682 76.1536L241.308 74.914C241.655 75.139 242.035 75.3085 242.434 75.4164C242.856 75.539 243.293 75.6022 243.733 75.6042C244.706 75.6042 245.193 75.348 245.193 74.8356C245.196 74.7217 245.161 74.61 245.094 74.5181C245.027 74.4262 244.931 74.3593 244.821 74.3279C244.433 74.1983 244.034 74.1064 243.628 74.0533C243.154 73.9874 242.685 73.8874 242.225 73.7542C241.866 73.6407 241.542 73.4358 241.286 73.1596C241.006 72.8327 240.863 72.4094 240.888 71.9792C240.882 71.6667 240.955 71.3577 241.1 71.0808C241.245 70.8039 241.457 70.5682 241.718 70.3954C242.383 69.9685 243.165 69.7611 243.954 69.8026C244.436 69.8037 244.917 69.8585 245.388 69.9661C245.799 70.0509 246.195 70.1984 246.562 70.4035L245.936 71.6431C245.331 71.291 244.641 71.1102 243.942 71.1199C243.566 71.0984 243.191 71.1726 242.851 71.3356C242.743 71.3863 242.651 71.4661 242.585 71.5661C242.519 71.6662 242.483 71.7825 242.479 71.9022C242.476 72.0255 242.514 72.1463 242.586 72.2466C242.657 72.3469 242.76 72.4212 242.877 72.4584C243.277 72.6009 243.69 72.7033 244.11 72.7643C244.573 72.8296 245.031 72.9295 245.48 73.0634C245.83 73.1725 246.146 73.3701 246.398 73.6371C246.672 73.9545 246.811 74.3673 246.784 74.7862C246.788 75.0976 246.713 75.4051 246.564 75.6788C246.416 75.9526 246.199 76.1834 245.935 76.3491C245.244 76.7758 244.439 76.9808 243.628 76.9366C243.068 76.9372 242.511 76.8624 241.971 76.7142" fill="#1A1818"/>
<path d="M262.652 69.8828L260.082 76.845H258.519L256.719 72.0464L254.894 76.845H253.329L250.772 69.8818H252.313L254.15 75.0196L256.068 69.8818H257.436L259.314 75.0455L261.204 69.8818L262.652 69.8828Z" fill="#1A1818"/>
<path d="M263.852 68.4541C263.757 68.3645 263.681 68.2565 263.63 68.1366C263.578 68.0167 263.551 67.8875 263.551 67.7569C263.551 67.6264 263.578 67.4972 263.63 67.3773C263.681 67.2574 263.757 67.1493 263.852 67.0597C264.053 66.8721 264.32 66.7715 264.594 66.7798C264.867 66.7715 265.133 66.8666 265.338 67.0459C265.435 67.129 265.512 67.2324 265.564 67.3488C265.615 67.4652 265.641 67.5916 265.637 67.7189C265.641 67.8532 265.616 67.9867 265.566 68.1111C265.515 68.2356 265.44 68.3483 265.344 68.4423C265.245 68.5397 265.128 68.616 264.999 68.6665C264.87 68.717 264.733 68.7407 264.594 68.7361C264.32 68.7437 264.053 68.6425 263.852 68.4545M263.774 69.8835H265.403V76.8466H263.774V69.8835Z" fill="#1A1818"/>
<path d="M273.605 70.5736C274.136 71.0864 274.401 71.8467 274.401 72.8546V76.8445H272.771V73.0649C272.809 72.5681 272.655 72.0757 272.339 71.6897C272.18 71.5294 271.988 71.405 271.777 71.3249C271.565 71.2449 271.339 71.2109 271.114 71.2253C270.852 71.2119 270.591 71.2531 270.346 71.3465C270.102 71.4399 269.879 71.5834 269.693 71.7677C269.321 72.197 269.133 72.7564 269.172 73.3236V76.8442H267.543V69.8844H269.094V70.7832C269.367 70.459 269.716 70.208 270.111 70.053C270.551 69.8823 271.021 69.7984 271.493 69.806C271.879 69.7876 272.264 69.8461 272.627 69.978C272.989 70.11 273.322 70.3128 273.606 70.5746" fill="#1A1818"/>
<path d="M283.295 67.1694V76.8439H281.73V75.9452C281.465 76.2724 281.122 76.5276 280.732 76.6875C280.316 76.857 279.869 76.9415 279.42 76.9361C278.79 76.9459 278.169 76.7931 277.615 76.4926C277.085 76.2017 276.648 75.7657 276.356 75.2355C276.044 74.661 275.887 74.0151 275.899 73.3613C275.887 72.7109 276.044 72.0684 276.356 71.4976C276.65 70.9701 277.086 70.5362 277.615 70.2459C278.169 69.946 278.79 69.794 279.42 69.8044C279.853 69.7986 280.283 69.8777 280.686 70.0373C281.063 70.1907 281.398 70.4331 281.661 70.7439V67.1694H283.295ZM280.673 75.2749C280.987 75.0949 281.245 74.8306 281.417 74.5118C281.596 74.1559 281.69 73.7628 281.69 73.3642C281.69 72.9656 281.596 72.5725 281.417 72.2166C281.245 71.8975 280.987 71.633 280.673 71.4535C280.348 71.2778 279.985 71.1857 279.617 71.1857C279.248 71.1857 278.885 71.2778 278.56 71.4535C278.246 71.6331 277.989 71.8976 277.818 72.2166C277.637 72.5722 277.543 72.9654 277.543 73.3642C277.543 73.763 277.637 74.1562 277.818 74.5118C277.989 74.8305 278.246 75.0949 278.56 75.2749C278.885 75.4495 279.248 75.5409 279.617 75.5409C279.985 75.5409 280.348 75.4495 280.673 75.2749Z" fill="#1A1818"/>
<path d="M286.657 76.4808C286.105 76.1894 285.647 75.7484 285.334 75.2082C285.022 74.6448 284.858 74.0112 284.858 73.367C284.858 72.7227 285.022 72.0891 285.334 71.5257C285.648 70.9889 286.107 70.551 286.657 70.2619C287.249 69.9613 287.904 69.8047 288.568 69.8047C289.232 69.8047 289.887 69.9613 290.479 70.2619C291.029 70.552 291.487 70.9896 291.802 71.5257C292.114 72.0891 292.278 72.7227 292.278 73.367C292.278 74.0112 292.114 74.6448 291.802 75.2082C291.488 75.7476 291.03 76.1884 290.479 76.4808C289.886 76.7802 289.232 76.9363 288.568 76.9363C287.904 76.9363 287.25 76.7802 286.657 76.4808ZM290.048 74.942C290.426 74.5033 290.634 73.9434 290.634 73.3643C290.634 72.7852 290.426 72.2253 290.048 71.7865C289.855 71.589 289.623 71.4336 289.367 71.3303C289.112 71.2271 288.837 71.1781 288.561 71.1866C288.286 71.1775 288.012 71.2262 287.757 71.3296C287.502 71.4329 287.272 71.5886 287.081 71.7865C286.706 72.2268 286.5 72.7861 286.5 73.3643C286.5 73.9425 286.706 74.5018 287.081 74.942C287.272 75.1397 287.503 75.2951 287.758 75.3984C288.012 75.5017 288.286 75.5506 288.561 75.542C288.837 75.55 289.111 75.5009 289.367 75.3976C289.623 75.2944 289.855 75.1393 290.048 74.942Z" fill="#1A1818"/>
<path d="M304.704 69.8828L302.134 76.845H300.571L298.771 72.0474L296.946 76.845H295.382L292.824 69.8818H294.363L296.201 75.0196L298.119 69.8818H299.487L301.365 75.0455L303.255 69.8818L304.704 69.8828Z" fill="#1A1818"/>
<path d="M307.117 75.073C307.218 75.1758 307.296 75.2981 307.347 75.4324C307.399 75.5666 307.422 75.71 307.416 75.8536C307.415 76.0012 307.396 76.1481 307.359 76.2911C307.291 76.5237 307.211 76.7525 307.117 76.9761L306.453 78.8137H305.396L305.917 76.8193C305.732 76.7458 305.574 76.6156 305.467 76.4472C305.357 76.2688 305.301 76.0623 305.305 75.8526C305.299 75.709 305.323 75.5656 305.374 75.4314C305.426 75.2971 305.504 75.1748 305.605 75.072C305.809 74.8784 306.08 74.7705 306.362 74.7705C306.643 74.7705 306.914 74.8784 307.119 75.072" fill="#1A1818"/>
<path d="M39.7548 85.5306L36.495 93.0536C36.2834 93.6806 35.8984 94.2346 35.3846 94.6516C34.9215 94.9698 34.3692 95.1325 33.8075 95.1159C33.457 95.1144 33.109 95.0569 32.7765 94.9457C32.4681 94.8496 32.1837 94.689 31.9421 94.4746L32.5942 93.275C32.7557 93.4254 32.9437 93.5446 33.1487 93.6263C33.3531 93.7116 33.5723 93.7558 33.7937 93.7565C34.0493 93.7665 34.3004 93.6879 34.5047 93.5341C34.7315 93.3308 34.9076 93.0773 35.0192 92.7939L35.1373 92.5193L32.0982 85.5303H33.7934L35.9839 90.6784L38.1885 85.5303L39.7548 85.5306Z" fill="#1A1818"/>
<path d="M41.9978 92.1283C41.4459 91.837 40.9873 91.3959 40.6748 90.8558C40.3623 90.2924 40.1984 89.6588 40.1984 89.0146C40.1984 88.3703 40.3623 87.7367 40.6748 87.1733C40.9887 86.6365 41.4471 86.1986 41.9978 85.9095C42.5837 85.599 43.2386 85.4417 43.9016 85.4522C44.5692 85.4408 45.2289 85.5981 45.8196 85.9095C46.3695 86.1996 46.8277 86.6372 47.1426 87.1733C47.4551 87.7367 47.619 88.3703 47.619 89.0146C47.619 89.6588 47.4551 90.2924 47.1426 90.8558C46.8291 91.3952 46.3707 91.836 45.8196 92.1283C45.2285 92.4384 44.569 92.5951 43.9016 92.5839C43.2388 92.5942 42.5841 92.4375 41.9978 92.1283ZM45.3882 90.5896C45.7662 90.1509 45.9741 89.591 45.9741 89.0119C45.9741 88.4327 45.7662 87.8729 45.3882 87.4341C45.1955 87.2366 44.9639 87.0812 44.7079 86.9779C44.452 86.8747 44.1775 86.8257 43.9016 86.8342C43.6266 86.8251 43.3528 86.8738 43.0977 86.9771C42.8427 87.0805 42.6122 87.2362 42.4211 87.4341C42.0463 87.8744 41.8404 88.4337 41.8404 89.0119C41.8404 89.5901 42.0463 90.1494 42.4211 90.5896C42.6125 90.7872 42.843 90.9427 43.098 91.046C43.3529 91.1493 43.6267 91.1982 43.9016 91.1896C44.1774 91.1976 44.4519 91.1485 44.7077 91.0452C44.9636 90.942 45.1953 90.7868 45.3882 90.5896Z" fill="#1A1818"/>
<path d="M55.9241 85.5308V92.4929H54.3715V91.6063C54.1083 91.9214 53.7738 92.1692 53.3957 92.3293C52.9961 92.5015 52.565 92.5886 52.1299 92.5851C51.7307 92.607 51.3311 92.5496 50.9542 92.4162C50.5773 92.2828 50.2306 92.076 49.934 91.8078C49.3986 91.2896 49.1309 90.5223 49.1309 89.5059V85.5308H50.7588V89.2862C50.7194 89.7898 50.8701 90.2898 51.1814 90.6877C51.3375 90.8469 51.5261 90.9706 51.7343 91.0504C51.9425 91.1302 52.1655 91.1641 52.388 91.15C52.6445 91.1626 52.9008 91.121 53.1402 91.0279C53.3795 90.9347 53.5965 90.792 53.777 90.6093C54.1462 90.1768 54.3316 89.617 54.2935 89.0497V85.5308H55.9241Z" fill="#1A1818"/>
<path d="M62.157 92.361C61.6982 92.2492 61.2619 92.0599 60.8669 91.8011L61.4928 90.5615C61.8399 90.7865 62.22 90.956 62.6193 91.0639C63.0414 91.1865 63.4786 91.2497 63.9181 91.2516C64.8917 91.2516 65.3785 90.9954 65.3785 90.4831C65.3814 90.3692 65.3465 90.2576 65.2791 90.1657C65.2118 90.0738 65.1158 90.0068 65.0063 89.9754C64.6184 89.8458 64.219 89.7538 63.8135 89.7008C63.3392 89.6348 62.8703 89.5349 62.4104 89.4017C62.0512 89.2882 61.7277 89.0833 61.4716 88.8071C61.1908 88.4802 61.0481 88.0569 61.0735 87.6267C61.0671 87.3142 61.1398 87.0052 61.2848 86.7283C61.4298 86.4514 61.6425 86.2156 61.903 86.0429C62.5678 85.6159 63.3499 85.4086 64.1389 85.45C64.6216 85.4511 65.1027 85.506 65.5733 85.6136C65.9846 85.6983 66.3805 85.8459 66.7469 86.051L66.1211 87.2906C65.5161 86.9385 64.8267 86.7576 64.1268 86.7673C63.751 86.7458 63.3759 86.82 63.0366 86.983C62.9282 87.0338 62.836 87.1136 62.7703 87.2136C62.7045 87.3137 62.6679 87.43 62.6644 87.5497C62.6617 87.673 62.699 87.7938 62.7708 87.8941C62.8425 87.9944 62.9449 88.0687 63.0625 88.1059C63.4622 88.2483 63.8751 88.3508 64.295 88.4117C64.7586 88.477 65.2166 88.577 65.6652 88.7109C66.0157 88.8197 66.3322 89.0172 66.5841 89.2842C66.8587 89.6017 66.9973 90.0144 66.97 90.4333C66.9747 90.7448 66.8991 91.0522 66.7505 91.3259C66.6018 91.5997 66.3852 91.8305 66.1214 91.9962C65.4303 92.4229 64.6252 92.6279 63.8142 92.5837C63.2544 92.5843 62.6971 92.5095 62.1573 92.3613" fill="#1A1818"/>
<path d="M74.4399 86.2206C74.9702 86.7334 75.2355 87.4937 75.236 88.5016V92.4909H73.6054V88.7119C73.6438 88.2151 73.4894 87.7227 73.1744 87.3367C73.015 87.1764 72.8231 87.052 72.6117 86.9719C72.4003 86.8919 72.1742 86.8579 71.9486 86.8723C71.6871 86.8589 71.4257 86.9002 71.1811 86.9936C70.9366 87.087 70.7142 87.2304 70.5283 87.4147C70.1555 87.8441 69.968 88.4037 70.0067 88.971V92.4909H68.3775V82.8164H70.0067V86.337C70.2851 86.0444 70.6264 85.8191 71.0047 85.6782C71.4284 85.523 71.8767 85.4464 72.3278 85.4521C72.7133 85.4336 73.0986 85.4921 73.4612 85.624C73.8239 85.756 74.1563 85.9588 74.4399 86.2206Z" fill="#1A1818"/>
<path d="M78.5345 92.1282C77.9826 91.8369 77.524 91.3958 77.2115 90.8556C76.899 90.2923 76.735 89.6586 76.735 89.0144C76.735 88.3702 76.899 87.7366 77.2115 87.1732C77.5254 86.6363 77.9838 86.1984 78.5345 85.9094C79.1266 85.6088 79.7812 85.4521 80.4452 85.4521C81.1092 85.4521 81.7638 85.6088 82.3559 85.9094C82.9059 86.1994 83.364 86.6371 83.6789 87.1732C83.9914 87.7366 84.1554 88.3702 84.1554 89.0144C84.1554 89.6586 83.9914 90.2923 83.6789 90.8556C83.3654 91.3951 82.9071 91.8359 82.3559 92.1282C81.7635 92.4277 81.109 92.5837 80.4452 92.5837C79.7814 92.5837 79.1269 92.4277 78.5345 92.1282ZM81.9249 90.5895C82.3029 90.1507 82.5108 89.5909 82.5108 89.0117C82.5108 88.4326 82.3029 87.8727 81.9249 87.434C81.7322 87.2364 81.5005 87.0811 81.2446 86.9778C80.9887 86.8745 80.7141 86.8256 80.4383 86.834C80.1633 86.825 79.8894 86.8737 79.6344 86.977C79.3794 87.0803 79.1489 87.236 78.9578 87.434C78.583 87.8742 78.3771 88.4335 78.3771 89.0117C78.3771 89.5899 78.583 90.1492 78.9578 90.5895C79.1492 90.7871 79.3797 90.9426 79.6347 91.0459C79.8896 91.1492 80.1633 91.1981 80.4383 91.1894C80.7141 91.1975 80.9885 91.1483 81.2444 91.0451C81.5002 90.9418 81.7319 90.7867 81.9249 90.5895Z" fill="#1A1818"/>
<path d="M92.4607 85.5308V92.4929H90.9082V91.6063C90.645 91.9214 90.3105 92.1692 89.9324 92.3293C89.5328 92.5015 89.1017 92.5886 88.6666 92.5851C88.2674 92.607 87.8678 92.5496 87.4909 92.4162C87.114 92.2828 86.7672 92.076 86.4707 91.8078C85.9353 91.2896 85.6675 90.5223 85.6675 89.5059V85.5308H87.2971V89.2862C87.2577 89.7898 87.4085 90.2898 87.7197 90.6877C87.8758 90.8469 88.0644 90.9706 88.2726 91.0504C88.4809 91.1302 88.7038 91.1641 88.9264 91.15C89.1829 91.1626 89.4393 91.1208 89.6786 91.0275C89.918 90.9342 90.135 90.7915 90.3153 90.6086C90.6846 90.1761 90.8699 89.6164 90.8318 89.049V85.5308H92.4607Z" fill="#1A1818"/>
<path d="M96.2284 82.8164H94.5991V92.4919H96.2284V82.8164Z" fill="#1A1818"/>
<path d="M105.187 82.8164V92.4909H103.623V91.5922C103.357 91.9194 103.014 92.1746 102.625 92.3344C102.208 92.5039 101.762 92.5885 101.312 92.5831C100.683 92.5929 100.061 92.4401 99.5077 92.1396C98.9772 91.8487 98.5405 91.4127 98.2489 90.8825C97.9367 90.3079 97.7791 89.6621 97.7916 89.0083C97.7791 88.3578 97.9368 87.7154 98.2489 87.1446C98.5422 86.6171 98.9786 86.1832 99.5077 85.8928C100.061 85.593 100.683 85.4409 101.312 85.4514C101.745 85.4455 102.175 85.5246 102.578 85.6842C102.956 85.8376 103.29 86.0801 103.554 86.3908V82.8164H105.187ZM102.565 90.9219C102.88 90.7419 103.137 90.4776 103.309 90.1587C103.489 89.8029 103.582 89.4099 103.582 89.0113C103.582 88.6128 103.489 88.2198 103.309 87.864C103.138 87.5448 102.88 87.2803 102.565 87.1008C102.241 86.9251 101.878 86.8331 101.509 86.8331C101.14 86.8331 100.777 86.9251 100.453 87.1008C100.139 87.2804 99.8814 87.5449 99.7106 87.864C99.53 88.2195 99.4359 88.6126 99.4359 89.0113C99.4359 89.4101 99.53 89.8032 99.7106 90.1587C99.8819 90.4775 100.139 90.7418 100.453 90.9219C100.778 91.0965 101.14 91.1879 101.509 91.1879C101.878 91.1879 102.241 91.0965 102.565 90.9219Z" fill="#1A1818"/>
<path d="M116.987 86.2206C117.517 86.7334 117.783 87.4937 117.783 88.5016V92.4909H116.153V88.7119C116.191 88.2151 116.037 87.7227 115.722 87.3367C115.562 87.1764 115.37 87.052 115.159 86.9719C114.948 86.8919 114.721 86.8579 114.496 86.8723C114.234 86.8589 113.973 86.9002 113.728 86.9936C113.484 87.087 113.261 87.2304 113.076 87.4147C112.703 87.8441 112.515 88.4037 112.554 88.971V92.4909H110.924V82.8164H112.554V86.337C112.832 86.0444 113.173 85.8191 113.552 85.6782C113.975 85.523 114.424 85.4464 114.875 85.4521C115.26 85.4336 115.645 85.4921 116.008 85.624C116.371 85.756 116.704 85.9588 116.987 86.2206Z" fill="#1A1818"/>
<path d="M124.87 86.1893C125.411 86.6796 125.683 87.4202 125.683 88.4101V92.4933H124.147V91.6467C123.937 91.9582 123.639 92.2007 123.291 92.3439C122.867 92.5145 122.413 92.5967 121.956 92.5855C121.485 92.5959 121.018 92.5041 120.586 92.3163C120.221 92.1596 119.907 91.903 119.68 91.576C119.467 91.2577 119.356 90.8823 119.36 90.4993C119.35 90.211 119.408 89.9244 119.529 89.6625C119.651 89.4007 119.831 89.171 120.058 88.9918C120.523 88.6141 121.256 88.4252 122.255 88.4252H124.053V88.3209C124.067 88.1134 124.034 87.9054 123.959 87.7117C123.883 87.5179 123.766 87.3431 123.616 87.1994C123.246 86.9127 122.783 86.7732 122.317 86.8081C121.925 86.8086 121.536 86.8702 121.163 86.9908C120.814 87.0975 120.489 87.2705 120.206 87.5002L119.567 86.3128C119.963 86.0193 120.41 85.8024 120.885 85.6735C121.414 85.5236 121.962 85.4493 122.512 85.4527C123.54 85.4527 124.322 85.6997 124.868 86.19M123.38 91.1171C123.693 90.9373 123.931 90.6527 124.053 90.3139V89.5063H122.371C121.432 89.5063 120.963 89.8152 120.964 90.433C120.96 90.5703 120.99 90.7065 121.051 90.8294C121.113 90.9523 121.203 91.0581 121.316 91.1372C121.605 91.3265 121.947 91.4179 122.291 91.398C122.673 91.4049 123.05 91.3077 123.38 91.1171Z" fill="#1A1818"/>
<path d="M134.29 85.5298L131.303 92.4919H129.621L126.634 85.5288H128.329L130.494 90.6924L132.724 85.5288L134.29 85.5298Z" fill="#1A1818"/>
<path d="M141.826 89.5346H136.364C136.445 90.023 136.714 90.4604 137.113 90.7533C137.553 91.064 138.081 91.2221 138.619 91.2035C138.97 91.2145 139.319 91.1529 139.644 91.0224C139.97 90.8919 140.265 90.6955 140.511 90.4454L141.384 91.4522C141.065 91.8289 140.658 92.12 140.198 92.2988C139.682 92.4961 139.133 92.5935 138.581 92.5858C137.879 92.5994 137.185 92.4414 136.559 92.1255C135.996 91.8402 135.528 91.399 135.209 90.8546C134.888 90.2937 134.724 89.6562 134.735 89.0097C134.725 88.3692 134.886 87.7376 135.199 87.1789C135.499 86.6431 135.944 86.2027 136.482 85.908C137.049 85.5978 137.687 85.4403 138.333 85.4507C138.968 85.4399 139.595 85.5949 140.152 85.9006C140.681 86.1947 141.115 86.6339 141.402 87.1664C141.711 87.7455 141.867 88.3944 141.852 89.0507C141.852 89.1638 141.844 89.3253 141.826 89.5339M137.008 87.2179C136.644 87.5331 136.409 87.9722 136.35 88.4505H140.302C140.249 87.9711 140.016 87.5296 139.651 87.215C139.285 86.9004 138.814 86.7361 138.332 86.7553C137.849 86.7421 137.379 86.9066 137.009 87.2176" fill="#1A1818"/>
<path d="M147.512 92.361C147.053 92.2492 146.617 92.0599 146.222 91.8011L146.847 90.5615C147.195 90.7865 147.575 90.956 147.974 91.0639C148.396 91.1865 148.833 91.2497 149.273 91.2516C150.246 91.2516 150.733 90.9954 150.733 90.4831C150.736 90.3692 150.701 90.2576 150.634 90.1657C150.566 90.0738 150.47 90.0068 150.361 89.9753C149.973 89.8458 149.574 89.7538 149.168 89.7008C148.694 89.6348 148.225 89.5349 147.765 89.4016C147.406 89.2882 147.082 89.0833 146.826 88.8071C146.545 88.4802 146.403 88.0569 146.428 87.6267C146.422 87.3142 146.494 87.0052 146.639 86.7283C146.784 86.4514 146.997 86.2156 147.258 86.0429C147.922 85.616 148.704 85.4086 149.493 85.45C149.976 85.4511 150.457 85.506 150.928 85.6136C151.339 85.6983 151.735 85.8459 152.102 86.051L151.476 87.2906C150.871 86.9385 150.181 86.7576 149.481 86.7673C149.106 86.7458 148.73 86.82 148.391 86.983C148.283 87.0338 148.191 87.1136 148.125 87.2136C148.059 87.3137 148.023 87.43 148.019 87.5497C148.016 87.673 148.054 87.7938 148.125 87.8941C148.197 87.9944 148.3 88.0687 148.417 88.1059C148.817 88.2483 149.23 88.3508 149.65 88.4117C150.113 88.477 150.571 88.577 151.02 88.7108C151.37 88.82 151.686 89.0176 151.938 89.2845C152.212 89.602 152.351 90.0148 152.324 90.4336C152.328 90.7451 152.253 91.0525 152.104 91.3263C151.955 91.6 151.739 91.8309 151.475 91.9966C150.784 92.4232 149.979 92.6282 149.168 92.5841C148.608 92.5847 148.051 92.5099 147.511 92.3617" fill="#1A1818"/>
<path d="M160.25 89.5344H154.788C154.869 90.0228 155.138 90.4602 155.537 90.7531C155.977 91.0638 156.506 91.2219 157.043 91.2033C157.394 91.2143 157.743 91.1527 158.068 91.0222C158.394 90.8917 158.689 90.6953 158.935 90.4452L159.808 91.452C159.489 91.8287 159.082 92.1198 158.622 92.2986C158.106 92.4958 157.557 92.5932 157.005 92.5856C156.304 92.6 155.61 92.4431 154.983 92.1283C154.421 91.843 153.952 91.4018 153.634 90.8574C153.311 90.2963 153.147 89.6583 153.157 89.0112C153.148 88.3706 153.308 87.739 153.622 87.1804C153.922 86.6446 154.366 86.2042 154.905 85.9095C155.472 85.5993 156.109 85.4418 156.755 85.4522C157.391 85.4413 158.019 85.5965 158.576 85.9024C159.105 86.1965 159.538 86.6357 159.826 87.1682C160.135 87.7473 160.29 88.3962 160.276 89.0525C160.276 89.1656 160.267 89.3271 160.25 89.5357M155.432 87.2197C155.068 87.5349 154.833 87.974 154.774 88.4523H158.726C158.673 87.9729 158.44 87.5314 158.074 87.2168C157.709 86.9022 157.238 86.7379 156.756 86.7571C156.273 86.7439 155.802 86.9084 155.433 87.2194" fill="#1A1818"/>
<path d="M166.275 92.4923L164.49 90.079L162.689 92.4923H160.889L163.601 88.9592L161.008 85.5288H162.821L164.528 87.8115L166.237 85.5288H167.997L165.389 88.9313L168.114 92.4919L166.275 92.4923Z" fill="#1A1818"/>
<path d="M179.431 89.5344H173.968C174.049 90.0228 174.318 90.4602 174.717 90.7531C175.157 91.0638 175.686 91.2219 176.223 91.2033C176.574 91.2143 176.923 91.1527 177.248 91.0222C177.574 90.8917 177.869 90.6953 178.115 90.4452L178.988 91.452C178.669 91.8287 178.262 92.1198 177.802 92.2986C177.286 92.4959 176.737 92.5933 176.185 92.5856C175.484 92.6 174.79 92.4431 174.163 92.1283C173.601 91.843 173.132 91.4018 172.814 90.8574C172.491 90.2963 172.327 89.6583 172.338 89.0112C172.328 88.3706 172.488 87.739 172.802 87.1804C173.102 86.6446 173.546 86.2042 174.085 85.9095C174.652 85.5993 175.289 85.4418 175.936 85.4522C176.571 85.4413 177.199 85.5965 177.756 85.9024C178.285 86.1965 178.718 86.6357 179.006 87.1682C179.315 87.7473 179.47 88.3962 179.456 89.0525C179.456 89.1656 179.447 89.3271 179.43 89.5357M174.612 87.2197C174.248 87.5349 174.013 87.974 173.954 88.4523H177.906C177.853 87.9729 177.62 87.5314 177.255 87.2168C176.889 86.9022 176.418 86.7379 175.936 86.7571C175.453 86.7439 174.982 86.9084 174.613 87.2194" fill="#1A1818"/>
<path d="M187.543 85.5298L184.556 92.4919H182.873L179.886 85.5288H181.581L183.746 90.6924L185.976 85.5288L187.543 85.5298Z" fill="#1A1818"/>
<path d="M195.078 89.5344H189.616C189.697 90.0228 189.966 90.4602 190.365 90.7531C190.804 91.0638 191.333 91.2219 191.871 91.2033C192.221 91.2143 192.57 91.1527 192.896 91.0222C193.222 90.8917 193.517 90.6953 193.763 90.4452L194.635 91.452C194.317 91.8287 193.909 92.1198 193.45 92.2986C192.934 92.4959 192.385 92.5933 191.833 92.5856C191.132 92.6 190.438 92.4431 189.811 92.1283C189.248 91.843 188.78 91.4018 188.462 90.8574C188.139 90.2963 187.974 89.6583 187.985 89.0112C187.976 88.3706 188.136 87.739 188.45 87.1804C188.749 86.6446 189.194 86.2042 189.733 85.9095C190.299 85.5993 190.937 85.4418 191.583 85.4522C192.219 85.4413 192.846 85.5965 193.404 85.9024C193.932 86.1965 194.366 86.6357 194.654 87.1682C194.963 87.7473 195.118 88.3962 195.104 89.0525C195.104 89.1656 195.095 89.3271 195.078 89.5357M190.26 87.2197C189.896 87.5349 189.661 87.974 189.601 88.4523H193.553C193.5 87.9729 193.268 87.5314 192.902 87.2168C192.537 86.9022 192.065 86.7379 191.583 86.7571C191.101 86.7439 190.63 86.9084 190.26 87.2194" fill="#1A1818"/>
<path d="M200.699 85.4521V87.0047C200.574 86.9789 200.448 86.9655 200.32 86.9646C200.048 86.9492 199.775 86.9904 199.519 87.0855C199.263 87.1807 199.03 87.3277 198.834 87.5175C198.452 87.9589 198.26 88.5332 198.3 89.1154V92.4937H196.671V85.5316H198.222V86.5487C198.691 85.8186 199.517 85.4535 200.699 85.4535" fill="#1A1818"/>
<path d="M208.667 85.5306L205.407 93.0536C205.196 93.6806 204.811 94.2346 204.297 94.6516C203.834 94.9698 203.281 95.1325 202.72 95.1159C202.369 95.1144 202.021 95.0569 201.689 94.9457C201.38 94.8496 201.096 94.689 200.854 94.4746L201.506 93.275C201.668 93.4254 201.856 93.5446 202.061 93.6263C202.265 93.7116 202.484 93.7558 202.706 93.7565C202.961 93.7665 203.213 93.6879 203.417 93.5341C203.644 93.3308 203.82 93.0773 203.931 92.7939L204.049 92.5193L201.01 85.5303H202.706L204.896 90.6784L207.101 85.5303L208.667 85.5306Z" fill="#1A1818"/>
<path d="M214.507 92.1283C213.955 91.8369 213.497 91.3959 213.184 90.8557C212.872 90.2923 212.708 89.6587 212.708 89.0145C212.708 88.3702 212.872 87.7366 213.184 87.1732C213.498 86.6364 213.957 86.1985 214.507 85.9094C215.099 85.6088 215.754 85.4521 216.418 85.4521C217.082 85.4521 217.737 85.6088 218.329 85.9094C218.879 86.1995 219.337 86.6371 219.652 87.1732C219.964 87.7366 220.128 88.3702 220.128 89.0145C220.128 89.6587 219.964 90.2923 219.652 90.8557C219.338 91.3951 218.88 91.8359 218.329 92.1283C217.736 92.4277 217.082 92.5837 216.418 92.5837C215.754 92.5837 215.1 92.4277 214.507 92.1283ZM217.898 90.5895C218.276 90.1508 218.484 89.5909 218.484 89.0118C218.484 88.4327 218.276 87.8728 217.898 87.434C217.705 87.2365 217.473 87.0811 217.217 86.9778C216.961 86.8746 216.687 86.8256 216.411 86.8341C216.136 86.825 215.862 86.8737 215.607 86.9771C215.352 87.0804 215.122 87.2361 214.931 87.434C214.556 87.8743 214.35 88.4336 214.35 89.0118C214.35 89.59 214.556 90.1493 214.931 90.5895C215.122 90.7872 215.352 90.9426 215.607 91.0459C215.862 91.1493 216.136 91.1982 216.411 91.1895C216.687 91.1975 216.961 91.1484 217.217 91.0451C217.473 90.9419 217.705 90.7868 217.898 90.5895Z" fill="#1A1818"/>
<path d="M225.878 92.1147C225.672 92.2788 225.435 92.3989 225.18 92.4676C224.898 92.5472 224.606 92.587 224.313 92.5857C223.666 92.6267 223.028 92.4105 222.54 91.9841C222.32 91.752 222.151 91.4769 222.043 91.1761C221.936 90.8753 221.892 90.5555 221.914 90.2368V86.8864H220.766V85.5826H221.914V83.9917H223.545V85.5826H225.409V86.8864H223.545V90.1967C223.525 90.4779 223.613 90.756 223.792 90.974C223.885 91.0669 223.998 91.139 224.121 91.1854C224.245 91.2318 224.376 91.2515 224.508 91.2432C224.836 91.2545 225.158 91.1532 225.421 90.9562L225.878 92.1147Z" fill="#1A1818"/>
<path d="M233.284 86.2206C233.814 86.7334 234.08 87.4937 234.08 88.5016V92.4909H232.449V88.7119C232.487 88.2151 232.333 87.7227 232.018 87.3367C231.859 87.1764 231.667 87.052 231.455 86.9719C231.244 86.8919 231.018 86.8579 230.792 86.8723C230.531 86.8589 230.269 86.9001 230.025 86.9935C229.78 87.0869 229.558 87.2304 229.372 87.4147C228.999 87.8441 228.812 88.4037 228.85 88.971V92.4909H227.221V82.8164H228.85V86.337C229.129 86.0444 229.47 85.8191 229.848 85.6782C230.272 85.523 230.72 85.4464 231.171 85.4521C231.557 85.4336 231.942 85.4921 232.305 85.624C232.668 85.756 233 85.9588 233.284 86.2206Z" fill="#1A1818"/>
<path d="M242.672 89.5344H237.21C237.291 90.0228 237.56 90.4602 237.959 90.7531C238.398 91.0638 238.927 91.2219 239.465 91.2033C239.816 91.2143 240.165 91.1527 240.49 91.0222C240.816 90.8917 241.111 90.6953 241.357 90.4452L242.23 91.452C241.911 91.8287 241.504 92.1198 241.044 92.2986C240.528 92.4959 239.979 92.5933 239.427 92.5856C238.726 92.6 238.032 92.4431 237.405 92.1283C236.843 91.843 236.374 91.4018 236.056 90.8574C235.733 90.2963 235.569 89.6583 235.579 89.0112C235.57 88.3706 235.73 87.739 236.044 87.1804C236.343 86.6446 236.788 86.2042 237.327 85.9095C237.894 85.5993 238.531 85.4417 239.177 85.4522C239.813 85.4413 240.44 85.5965 240.998 85.9024C241.527 86.1965 241.96 86.6357 242.248 87.1682C242.557 87.7473 242.712 88.3962 242.698 89.0525C242.698 89.1656 242.689 89.3271 242.672 89.5357M237.854 87.2197C237.489 87.5349 237.255 87.974 237.195 88.4523H241.147C241.094 87.9729 240.862 87.5314 240.496 87.2168C240.13 86.9022 239.659 86.7379 239.177 86.7571C238.695 86.7439 238.224 86.9084 237.854 87.2194" fill="#1A1818"/>
<path d="M248.293 85.4521V87.0047C248.169 86.9789 248.042 86.9655 247.914 86.9646C247.642 86.9492 247.369 86.9904 247.113 87.0855C246.857 87.1807 246.624 87.3277 246.428 87.5175C246.046 87.9589 245.854 88.5332 245.894 89.1154V92.4937H244.265V85.5316H245.814V86.5487C246.284 85.8186 247.11 85.4535 248.292 85.4535" fill="#1A1818"/>
<path d="M260.159 82.8164V92.4909H258.595V91.5922C258.329 91.9194 257.986 92.1746 257.597 92.3344C257.18 92.5039 256.734 92.5885 256.284 92.5831C255.655 92.5929 255.033 92.4401 254.48 92.1396C253.949 91.8487 253.513 91.4127 253.221 90.8825C252.909 90.3079 252.751 89.6621 252.764 89.0083C252.751 88.3578 252.909 87.7154 253.221 87.1446C253.514 86.6171 253.951 86.1832 254.48 85.8928C255.033 85.593 255.655 85.4409 256.284 85.4514C256.717 85.4455 257.147 85.5246 257.55 85.6842C257.928 85.8376 258.262 86.0801 258.526 86.3908V82.8164H260.159ZM257.537 90.9219C257.852 90.7419 258.11 90.4776 258.282 90.1587C258.461 89.8029 258.555 89.4099 258.555 89.0113C258.555 88.6128 258.461 88.2198 258.282 87.864C258.11 87.5447 257.852 87.2802 257.537 87.1008C257.213 86.9251 256.85 86.8331 256.481 86.8331C256.112 86.8331 255.749 86.9251 255.425 87.1008C255.111 87.2804 254.853 87.5449 254.683 87.864C254.502 88.2195 254.408 88.6126 254.408 89.0113C254.408 89.4101 254.502 89.8032 254.683 90.1587C254.854 90.4775 255.111 90.7418 255.425 90.9219C255.75 91.0965 256.112 91.1879 256.481 91.1879C256.85 91.1879 257.213 91.0965 257.537 90.9219Z" fill="#1A1818"/>
<path d="M267.31 86.1893C267.852 86.6797 268.124 87.4199 268.125 88.4101V92.4933H266.586V91.6467C266.377 91.9581 266.08 92.2007 265.733 92.3439C265.308 92.5146 264.853 92.5968 264.396 92.5855C263.926 92.5957 263.459 92.5039 263.028 92.3163C262.661 92.1598 262.346 91.9032 262.119 91.576C261.907 91.2575 261.796 90.8821 261.801 90.4993C261.791 90.211 261.849 89.9244 261.97 89.6625C262.091 89.4007 262.272 89.171 262.498 88.9918C262.962 88.6145 263.695 88.4257 264.696 88.4252H266.493V88.3209C266.507 88.1134 266.475 87.9054 266.399 87.7117C266.324 87.5179 266.206 87.3431 266.056 87.1994C265.687 86.9129 265.225 86.7735 264.759 86.8081C264.367 86.8083 263.977 86.87 263.604 86.9908C263.255 87.0975 262.93 87.2705 262.646 87.5002L262.007 86.3128C262.402 86.0197 262.849 85.8028 263.323 85.6735C263.853 85.5237 264.401 85.4494 264.952 85.4527C265.978 85.4527 266.763 85.6985 267.307 86.19M265.824 91.1171C266.136 90.9376 266.373 90.6528 266.494 90.3139V89.5063H264.812C263.873 89.5063 263.404 89.8152 263.404 90.433C263.4 90.5705 263.43 90.7069 263.491 90.8298C263.553 90.9528 263.644 91.0584 263.757 91.1372C264.046 91.3267 264.388 91.4182 264.733 91.398C265.114 91.4047 265.49 91.3079 265.821 91.1181" fill="#1A1818"/>
<path d="M276.732 85.5306L273.471 93.0536C273.259 93.6806 272.874 94.2346 272.36 94.6516C271.897 94.9698 271.345 95.1325 270.783 95.1159C270.433 95.1144 270.085 95.0569 269.752 94.9457C269.444 94.8496 269.159 94.689 268.918 94.4746L269.57 93.275C269.731 93.4254 269.919 93.5445 270.124 93.6263C270.329 93.7116 270.548 93.7558 270.769 93.7565C271.025 93.7665 271.276 93.6879 271.48 93.5341C271.707 93.3308 271.883 93.0773 271.995 92.7939L272.113 92.5193L269.074 85.5303H270.769L272.96 90.6784L275.164 85.5303L276.732 85.5306Z" fill="#1A1818"/>
<path d="M277.514 92.2781C277.411 92.1778 277.33 92.0572 277.276 91.924C277.222 91.7908 277.197 91.6478 277.201 91.5042C277.197 91.3615 277.222 91.2196 277.274 91.0867C277.327 90.9538 277.405 90.8327 277.504 90.7306C277.604 90.6284 277.723 90.5472 277.855 90.4917C277.986 90.4363 278.128 90.4077 278.27 90.4077C278.413 90.4077 278.554 90.4363 278.686 90.4917C278.817 90.5472 278.936 90.6284 279.036 90.7306C279.136 90.8327 279.214 90.9538 279.266 91.0867C279.318 91.2196 279.343 91.3615 279.34 91.5042C279.341 91.7164 279.28 91.9242 279.163 92.1015C279.047 92.2789 278.881 92.4177 278.685 92.5005C278.49 92.5833 278.274 92.6064 278.066 92.5668C277.858 92.5272 277.665 92.4268 277.514 92.2781Z" fill="#1A1818"/>
</g>
<defs>
<clipPath id="clip0_1281_2209">
<rect width="331.677" height="120" fill="white"/>
</clipPath>
</defs>
</svg>
