<svg width="332" height="120" viewBox="0 0 332 120" fill="none" xmlns="http://www.w3.org/2000/svg">
<g clip-path="url(#clip0_1281_2408)">
<mask id="mask0_1281_2408" style="mask-type:luminance" maskUnits="userSpaceOnUse" x="0" y="0" width="332" height="120">
<path d="M331.676 0H0V120H331.676V0Z" fill="white"/>
</mask>
<g mask="url(#mask0_1281_2408)">
<path d="M310.644 120H21.0337C18.2716 120 15.5366 119.456 12.9847 118.399C10.4328 117.342 8.1141 115.793 6.16094 113.84C4.20777 111.887 2.65841 109.569 1.60131 107.017C0.544215 104.465 8.83704e-05 101.73 0 98.968L0 21.0316C4.41801e-05 18.2696 0.544141 15.5346 1.60122 12.9828C2.6583 10.431 4.20766 8.1124 6.16084 6.15941C8.11401 4.20643 10.4327 2.65729 12.9846 1.60045C15.5365 0.543613 18.2716 -0.000220878 21.0337 6.72959e-08H310.644C316.222 6.72959e-08 321.571 2.21583 325.515 6.16003C329.46 10.1042 331.675 15.4537 331.675 21.0316V98.968C331.675 104.546 329.46 109.895 325.515 113.84C321.571 117.784 316.222 120 310.644 120Z" fill="#FCE7E8"/>
</g>
<path d="M81.6373 34.3047H83.671V43.5377H89.3979V45.2588H81.6373V34.3047Z" fill="#EB4F53"/>
<path d="M92.5073 44.8191C91.8453 44.4703 91.2952 43.9419 90.9201 43.2945C90.5449 42.6184 90.348 41.8579 90.348 41.0847C90.348 40.3115 90.5449 39.551 90.9201 38.8748C91.297 38.2306 91.8468 37.7048 92.5073 37.357C93.2174 36.9959 94.0028 36.8076 94.7995 36.8076C95.5962 36.8076 96.3816 36.9959 97.0918 37.357C97.7526 37.7043 98.3025 38.2302 98.679 38.8748C99.0541 39.551 99.251 40.3115 99.251 41.0847C99.251 41.8579 99.0541 42.6184 98.679 43.2945C98.3043 43.9423 97.7541 44.4708 97.0918 44.8191C96.3816 45.1802 95.5962 45.3685 94.7995 45.3685C94.0028 45.3685 93.2174 45.1802 92.5073 44.8191ZM96.5756 42.9728C97.0299 42.4466 97.2798 41.7746 97.2798 41.0795C97.2798 40.3843 97.0299 39.7123 96.5756 39.1861C96.3442 38.9495 96.0662 38.7634 95.7593 38.6395C95.4524 38.5156 95.1231 38.4567 94.7923 38.4664C94.4626 38.4561 94.1343 38.5148 93.8286 38.6387C93.5229 38.7627 93.2465 38.9491 93.017 39.1861C92.567 39.7143 92.3198 40.3855 92.3198 41.0795C92.3198 41.7734 92.567 42.4446 93.017 42.9728C93.2463 43.2101 93.5227 43.3968 93.8284 43.5207C94.1342 43.6447 94.4625 43.7032 94.7923 43.6926C95.1232 43.7027 95.4526 43.644 95.7596 43.5201C96.0666 43.3962 96.3445 43.2098 96.5756 42.9728Z" fill="#EB4F53"/>
<path d="M114.111 36.9027L111.029 45.2585H109.151L106.991 39.5L104.801 45.2581H102.923L99.8563 36.9023H101.703L103.909 43.0673L106.209 36.9023H107.853L110.107 43.0969L112.376 36.9023L114.111 36.9027Z" fill="#EB4F53"/>
<path d="M121.998 36.0093V39.3421H127.286V41.0632H121.998V45.2567H119.963V34.3057H127.959V36.0096L121.998 36.0093Z" fill="#EB4F53"/>
<path d="M137.535 41.707H130.979C131.077 42.2928 131.4 42.817 131.88 43.1673C132.406 43.5411 133.041 43.7317 133.686 43.7097C134.107 43.7224 134.526 43.6483 134.916 43.492C135.307 43.3357 135.661 43.1006 135.957 42.8012L137.005 44.0079C136.622 44.4602 136.132 44.8093 135.58 45.0234C134.875 45.2823 134.126 45.3979 133.377 45.3632C132.627 45.3285 131.892 45.1444 131.214 44.8215C130.54 44.478 129.978 43.9482 129.595 43.2949C129.209 42.6216 129.011 41.8562 129.023 41.0798C129.012 40.3112 129.204 39.5532 129.58 38.8823C129.941 38.2397 130.474 37.7109 131.12 37.3557C131.802 36.9845 132.568 36.7953 133.344 36.8062C134.106 36.7943 134.858 36.9813 135.526 37.3486C136.16 37.7016 136.681 38.2279 137.028 38.8661C137.398 39.5615 137.583 40.3403 137.566 41.1279C137.566 41.2625 137.555 41.4547 137.535 41.707M131.754 38.9287C131.317 39.3067 131.035 39.8331 130.963 40.4065H135.704C135.639 39.8391 135.367 39.3157 134.939 38.9375C134.488 38.5744 133.927 38.3757 133.348 38.3741C132.769 38.3725 132.207 38.5681 131.754 38.9287Z" fill="#EB4F53"/>
<path d="M144.373 36.8076V38.6697C144.223 38.6409 144.071 38.6252 143.919 38.6226C143.592 38.6038 143.264 38.6534 142.957 38.768C142.65 38.8826 142.37 39.0599 142.136 39.2885C141.677 39.8175 141.447 40.5061 141.494 41.2044V45.2569H139.538V36.9032H141.4V38.1236C141.962 37.2463 142.953 36.8076 144.373 36.8076Z" fill="#EB4F53"/>
<path d="M151.597 44.8038C151.349 44.9991 151.065 45.1427 150.761 45.2261C150.421 45.3216 150.07 45.369 149.717 45.3671C148.941 45.417 148.176 45.1585 147.589 44.6477C147.326 44.3691 147.123 44.039 146.994 43.6781C146.865 43.3172 146.812 42.9335 146.838 42.5511V38.5291H145.461V36.9645H146.838V35.0557H148.794V36.9645H151.032V38.5291H148.794V42.5036C148.771 42.8403 148.877 43.1731 149.092 43.4337C149.204 43.5451 149.339 43.6312 149.488 43.6864C149.636 43.7415 149.794 43.7645 149.952 43.7537C150.346 43.7685 150.733 43.6476 151.048 43.4111L151.597 44.8038Z" fill="#EB4F53"/>
<path d="M153.301 35.1894C153.187 35.0814 153.097 34.9515 153.035 34.8074C152.973 34.6633 152.941 34.5082 152.941 34.3514C152.941 34.1946 152.973 34.0394 153.035 33.8954C153.097 33.7513 153.187 33.6213 153.301 33.5134C153.543 33.2883 153.863 33.1675 154.193 33.1769C154.52 33.1666 154.839 33.281 155.085 33.4969C155.201 33.5966 155.293 33.7207 155.356 33.8603C155.418 33.9999 155.448 34.1516 155.445 34.3045C155.449 34.4656 155.42 34.6259 155.359 34.7751C155.299 34.9244 155.208 35.0595 155.092 35.1719C154.975 35.2892 154.834 35.3811 154.679 35.4418C154.525 35.5025 154.359 35.5308 154.193 35.5249C153.863 35.5344 153.543 35.4135 153.301 35.1884M153.208 36.9007H155.163V45.2565H153.207L153.208 36.9007Z" fill="#EB4F53"/>
<path d="M159.685 33.6475H157.729V45.2577H159.685V33.6475Z" fill="#EB4F53"/>
<path d="M162.363 35.1894C162.249 35.0814 162.158 34.9515 162.097 34.8074C162.035 34.6633 162.003 34.5082 162.003 34.3514C162.003 34.1946 162.035 34.0394 162.097 33.8954C162.158 33.7513 162.249 33.6213 162.363 33.5134C162.604 33.2883 162.925 33.1675 163.255 33.1769C163.582 33.1666 163.901 33.281 164.147 33.4969C164.263 33.5966 164.355 33.7207 164.417 33.8603C164.48 33.9999 164.51 34.1516 164.507 34.3045C164.511 34.4655 164.481 34.6257 164.421 34.7749C164.36 34.9242 164.269 35.0593 164.154 35.1719C164.036 35.2892 163.896 35.3811 163.741 35.4418C163.587 35.5025 163.421 35.5308 163.255 35.5249C162.925 35.5344 162.605 35.4135 162.363 35.1884M162.269 36.9007H164.225V45.2565H162.269L162.269 36.9007Z" fill="#EB4F53"/>
<path d="M171.885 44.8038C171.637 44.9992 171.352 45.1428 171.047 45.2261C170.709 45.3214 170.359 45.3689 170.007 45.3671C169.231 45.4169 168.466 45.1582 167.879 44.6473C167.377 44.1675 167.128 43.467 167.128 42.5507V38.5291H165.751V36.9645H167.128V35.0557H169.084V36.9645H171.322V38.5291H169.084V42.5036C169.061 42.8403 169.167 43.1731 169.381 43.4337C169.494 43.5452 169.629 43.6314 169.777 43.6866C169.926 43.7418 170.084 43.7646 170.242 43.7537C170.636 43.7684 171.022 43.6475 171.337 43.4111L171.885 44.8038Z" fill="#EB4F53"/>
<path d="M181.685 36.9019L177.773 45.9286C177.52 46.6808 177.059 47.3458 176.443 47.8465C175.887 48.2271 175.224 48.4212 174.55 48.401C174.13 48.4002 173.712 48.3321 173.314 48.1992C172.944 48.0845 172.603 47.8925 172.312 47.6359L173.095 46.1964C173.289 46.3767 173.515 46.5199 173.761 46.619C174.006 46.7205 174.269 46.7737 174.535 46.7755C174.842 46.7875 175.143 46.6923 175.388 46.5063C175.661 46.2622 175.872 45.9571 176.005 45.616L176.146 45.2856L172.5 36.9019H174.534L177.163 43.0826L179.808 36.9019H181.685Z" fill="#EB4F53"/>
<path d="M56.047 21.8298C55.4686 21.2587 54.7808 20.8101 54.0249 20.5111C53.269 20.212 52.4605 20.0687 51.6479 20.0896C50.8315 20.1012 50.0256 20.2751 49.277 20.601C48.5285 20.9269 47.8522 21.3983 47.2874 21.988L44.8082 24.5698L42.3116 21.9863C41.7461 21.398 41.07 20.9273 40.322 20.6013C39.574 20.2752 38.769 20.1002 37.9532 20.0863C37.1373 20.0725 36.3268 20.22 35.5682 20.5205C34.8096 20.8209 34.1178 21.2684 33.5327 21.8371C32.9476 22.4058 32.4807 23.0846 32.1588 23.8344C31.8369 24.5841 31.6664 25.3901 31.6571 26.206C31.6478 27.0219 31.7999 27.8316 32.1046 28.5886C32.4093 29.3455 32.8606 30.0347 33.4326 30.6167L44.3681 40.4257C44.4902 40.5345 44.6481 40.5944 44.8116 40.5939C44.9756 40.5948 45.1338 40.534 45.2551 40.4237L56.2031 30.5817C56.9091 29.8519 57.4249 28.9598 57.705 27.9839C57.9851 27.0079 58.021 25.9781 57.8095 24.985C57.5539 23.7797 56.94 22.6798 56.0483 21.8295" fill="#F6A199"/>
<path d="M49.6008 55.7705H49.5974C49.4925 55.77 49.3892 55.7444 49.2961 55.696C49.203 55.6477 49.1228 55.5778 49.0621 55.4923L39.3715 41.9119C39.2959 41.8071 39.2526 41.6823 39.2471 41.5532C39.2416 41.424 39.274 41.296 39.3404 41.1851C39.4068 41.0741 39.5043 40.9851 39.6207 40.9289C39.7371 40.8727 39.8675 40.8518 39.9956 40.8689L46.305 41.6963L46.3642 32.7217C46.3698 31.9355 46.6829 31.1826 47.2364 30.6243C47.7899 30.0659 48.54 29.7463 49.3261 29.7338C50.1123 29.7213 50.8721 30.0169 51.4431 30.5575C52.014 31.098 52.3509 31.8405 52.3814 32.6261L52.729 41.7242L59.3045 41.1034C59.4318 41.0926 59.5594 41.1183 59.6726 41.1774C59.7859 41.2365 59.8799 41.3266 59.9438 41.4372C60.0063 41.5484 60.0354 41.6753 60.0277 41.8026C60.02 41.9299 59.9758 42.0523 59.9004 42.1552L50.1361 55.499C50.0744 55.583 49.9938 55.6514 49.9008 55.6985C49.8078 55.7456 49.705 55.7702 49.6008 55.7702" fill="#EB4F53"/>
<path d="M37.7776 72.4422V75.6636H36.0824V72.4671L32.4958 66.5366H34.3091L36.9815 70.9822L39.6814 66.5366H41.3503L37.7776 72.4422Z" fill="#1A1818"/>
<path d="M43.5277 75.2987C42.9757 75.0074 42.5172 74.5663 42.2046 74.0262C41.8922 73.4628 41.7282 72.8292 41.7282 72.185C41.7282 71.5407 41.8922 70.9071 42.2046 70.3437C42.5186 69.8069 42.977 69.369 43.5277 69.0799C44.1135 68.7694 44.7684 68.6121 45.4315 68.6226C46.0991 68.6113 46.7587 68.7685 47.3494 69.0799C47.8993 69.37 48.3575 69.8076 48.6724 70.3437C48.9849 70.9071 49.1488 71.5407 49.1488 72.185C49.1488 72.8292 48.9849 73.4628 48.6724 74.0262C48.3589 74.5656 47.9006 75.0064 47.3494 75.2987C46.7583 75.6088 46.0988 75.7654 45.4315 75.7543C44.7687 75.7646 44.114 75.6079 43.5277 75.2987ZM46.918 73.76C47.296 73.3213 47.5039 72.7614 47.5039 72.1823C47.5039 71.6031 47.296 71.0433 46.918 70.6045C46.7253 70.407 46.4937 70.2516 46.2378 70.1484C45.9819 70.0451 45.7073 69.9961 45.4315 70.0046C45.1565 69.9955 44.8826 70.0442 44.6276 70.1476C44.3726 70.2509 44.1421 70.4066 43.9509 70.6045C43.5761 71.0448 43.3703 71.6041 43.3703 72.1823C43.3703 72.7605 43.5761 73.3198 43.9509 73.76C44.1423 73.9577 44.3728 74.1131 44.6278 74.2164C44.8828 74.3197 45.1565 74.3686 45.4315 74.36C45.7072 74.368 45.9817 74.3189 46.2375 74.2156C46.4934 74.1124 46.7251 73.9572 46.918 73.76Z" fill="#1A1818"/>
<path d="M57.4538 68.6992V75.6623H55.9013V74.775C55.6381 75.0902 55.3036 75.3382 54.9255 75.4985C54.5259 75.6704 54.0948 75.7574 53.6597 75.7538C53.2605 75.7758 52.8609 75.7184 52.484 75.5849C52.1071 75.4515 51.7603 75.2448 51.4638 74.9766C50.9284 74.4584 50.6606 73.6911 50.6606 72.6747V68.6992H52.2916V72.4533C52.2522 72.9569 52.403 73.4569 52.7142 73.8548C52.8702 74.014 53.0588 74.1378 53.267 74.2177C53.4753 74.2975 53.6982 74.3315 53.9208 74.3174C54.1773 74.3301 54.4336 74.2885 54.673 74.1953C54.9123 74.1021 55.1293 73.9595 55.3098 73.7767C55.679 73.3442 55.8644 72.7845 55.8263 72.2171V68.6992H57.4538Z" fill="#1A1818"/>
<path d="M63.6205 68.6229V70.1754C63.4958 70.1497 63.3689 70.1363 63.2416 70.1354C62.9691 70.12 62.6963 70.1611 62.4405 70.2563C62.1847 70.3514 61.9513 70.4985 61.7551 70.6882C61.3734 71.1296 61.1816 71.704 61.2214 72.2861V75.6641H59.5922V68.7006H61.143V69.7178C61.6125 68.9876 62.4383 68.6226 63.6205 68.6226" fill="#1A1818"/>
<path d="M70.4655 68.3356V68.7528H72.3834V70.0567H70.5177V75.6638H68.8884V70.0567H67.741V68.7528H68.8884V68.3077C68.8705 67.9846 68.9192 67.6613 69.0313 67.3577C69.1435 67.0542 69.3168 66.777 69.5405 66.5432C69.7882 66.3178 70.0787 66.1445 70.3947 66.0337C70.7107 65.9229 71.0458 65.8768 71.3801 65.8982C71.8977 65.8696 72.4117 66.0007 72.8525 66.2737L72.3969 67.5025C72.1343 67.3158 71.8204 67.215 71.4982 67.2138C70.8131 67.2138 70.4672 67.5893 70.4672 68.337" fill="#1A1818"/>
<path d="M79.998 72.7028H74.5356C74.6168 73.1913 74.8857 73.6286 75.2849 73.9216C75.7241 74.2322 76.253 74.3903 76.7906 74.3718C77.1412 74.3828 77.4902 74.3211 77.8158 74.1906C78.1414 74.0602 78.4364 73.8637 78.6823 73.6137L79.5552 74.6204C79.2367 74.9971 78.8291 75.2882 78.3694 75.467C77.8535 75.6643 77.3049 75.7617 76.7526 75.754C76.0515 75.7685 75.3574 75.6115 74.7307 75.2967C74.1683 75.0114 73.6999 74.5702 73.3814 74.0259C73.0588 73.4647 72.8942 72.8267 72.905 72.1796C72.8957 71.5391 73.0559 70.9075 73.3693 70.3488C73.6691 69.8131 74.1138 69.3726 74.6523 69.0779C75.2192 68.7678 75.8569 68.6102 76.503 68.6207C77.1386 68.6097 77.7661 68.7649 78.3233 69.0709C78.8522 69.365 79.2859 69.8042 79.5733 70.3367C79.8827 70.9157 80.0377 71.5647 80.0235 72.221C80.0235 72.334 80.0148 72.4955 79.9976 72.7042M75.1816 70.3872C74.817 70.7023 74.5823 71.1415 74.5228 71.6197H78.4734C78.4205 71.1403 78.1879 70.6988 77.8223 70.3842C77.4568 70.0696 76.9855 69.9053 76.5036 69.9245C76.0209 69.9113 75.55 70.0758 75.1806 70.3868" fill="#1A1818"/>
<path d="M85.6189 68.623V70.1756C85.4942 70.1498 85.3673 70.1364 85.24 70.1355C84.9675 70.1201 84.6947 70.1613 84.4389 70.2564C84.183 70.3515 83.9497 70.4986 83.7534 70.6884C83.3718 71.1298 83.18 71.7041 83.2198 72.2863V75.6642H81.5909V68.7008H83.1417V69.718C83.6112 68.988 84.4369 68.623 85.6189 68.623Z" fill="#1A1818"/>
<path d="M91.2522 75.2851C91.0457 75.4491 90.8079 75.5693 90.5533 75.638C90.2711 75.7177 89.9791 75.7575 89.6859 75.7561C89.0391 75.7968 88.4025 75.5806 87.9143 75.1545C87.6948 74.9224 87.5258 74.6473 87.418 74.3465C87.3103 74.0457 87.2662 73.7259 87.2884 73.4072V70.0568H86.1411V68.753H87.2884V67.1621H88.918V68.753H90.7801V70.0568H88.918V73.3671C88.8983 73.6479 88.986 73.9258 89.1633 74.1444C89.2574 74.2371 89.37 74.309 89.4937 74.3553C89.6174 74.4017 89.7495 74.4216 89.8814 74.4136C90.209 74.4249 90.5306 74.3236 90.7925 74.1266L91.2522 75.2851Z" fill="#1A1818"/>
<path d="M92.6725 67.2716C92.578 67.1816 92.5028 67.0732 92.4514 66.9533C92.4 66.8333 92.3735 66.7041 92.3735 66.5736C92.3735 66.4431 92.4 66.3139 92.4514 66.1939C92.5028 66.0739 92.578 65.9656 92.6725 65.8756C92.8744 65.6886 93.1414 65.5881 93.4165 65.5956C93.689 65.5883 93.9542 65.6845 94.1587 65.8648C94.2553 65.9475 94.3324 66.0505 94.3844 66.1665C94.4364 66.2825 94.4621 66.4086 94.4595 66.5357C94.4629 66.67 94.4385 66.8035 94.3879 66.9279C94.3374 67.0523 94.2618 67.1649 94.1658 67.2588C94.0676 67.3564 93.9505 67.4328 93.8216 67.4834C93.6927 67.5339 93.5548 67.5574 93.4165 67.5526C93.1413 67.5609 92.8739 67.4603 92.6725 67.2726M92.5941 68.7016H94.223V75.6637H92.5941V68.7016Z" fill="#1A1818"/>
<path d="M97.9929 65.9868H96.3636V75.6623H97.9929V65.9868Z" fill="#1A1818"/>
<path d="M100.209 67.2716C100.115 67.1816 100.04 67.0733 99.9882 66.9533C99.9368 66.8333 99.9103 66.7041 99.9103 66.5736C99.9103 66.4431 99.9368 66.3139 99.9882 66.1939C100.04 66.0739 100.115 65.9656 100.209 65.8756C100.411 65.6885 100.678 65.588 100.954 65.5956C101.226 65.5883 101.491 65.6845 101.696 65.8648C101.792 65.9475 101.87 66.0505 101.922 66.1665C101.974 66.2825 101.999 66.4086 101.997 66.5357C102 66.67 101.976 66.8035 101.925 66.9279C101.875 67.0523 101.799 67.1649 101.703 67.2588C101.605 67.3564 101.488 67.4328 101.359 67.4834C101.23 67.5339 101.092 67.5574 100.954 67.5526C100.678 67.561 100.411 67.4604 100.209 67.2726M100.131 68.7017H101.76V75.6638H100.131V68.7017Z" fill="#1A1818"/>
<path d="M108.085 75.2851C107.879 75.4491 107.642 75.5693 107.388 75.638C107.106 75.7176 106.814 75.7573 106.521 75.7561C105.873 75.797 105.236 75.5808 104.747 75.1545C104.528 74.9224 104.359 74.6473 104.251 74.3465C104.143 74.0457 104.099 73.7259 104.122 73.4072V70.0568H102.974V68.753H104.122V67.1621H105.752V68.753H107.616V70.0568H105.752V73.3671C105.732 73.6482 105.821 73.9263 105.999 74.1444C106.093 74.2373 106.205 74.3093 106.328 74.3557C106.452 74.4021 106.584 74.4219 106.715 74.4136C107.044 74.4249 107.366 74.3236 107.628 74.1266L108.085 75.2851Z" fill="#1A1818"/>
<path d="M115.949 68.6991L112.689 76.2217C112.477 76.8486 112.092 77.4027 111.579 77.8197C111.116 78.138 110.563 78.3006 110.001 78.284C109.651 78.2825 109.303 78.225 108.971 78.1138C108.662 78.0177 108.378 77.8572 108.136 77.6427L108.788 76.4431C108.95 76.5935 109.138 76.7127 109.343 76.7944C109.547 76.8798 109.766 76.9242 109.988 76.925C110.243 76.9349 110.494 76.8564 110.699 76.7026C110.925 76.4992 111.102 76.2457 111.213 75.9623L111.331 75.6877L108.292 68.6987H109.989L112.179 73.8469L114.384 68.6987L115.949 68.6991Z" fill="#1A1818"/>
<path d="M122.194 65.9868H120.565V75.6623H122.194V65.9868Z" fill="#1A1818"/>
<path d="M130.852 72.7028H125.389C125.471 73.1913 125.74 73.6286 126.139 73.9216C126.578 74.2322 127.107 74.3903 127.644 74.3718C127.995 74.3828 128.344 74.3211 128.67 74.1906C128.995 74.0602 129.29 73.8637 129.536 73.6137L130.409 74.6204C130.091 74.9971 129.683 75.2882 129.223 75.467C128.707 75.6643 128.159 75.7617 127.606 75.754C126.905 75.7685 126.211 75.6115 125.585 75.2967C125.022 75.0114 124.554 74.5702 124.235 74.0259C123.913 73.4647 123.748 72.8267 123.759 72.1796C123.75 71.5391 123.91 70.9075 124.223 70.3488C124.523 69.8131 124.968 69.3726 125.506 69.0779C126.073 68.7678 126.711 68.6102 127.357 68.6207C127.992 68.6097 128.62 68.7649 129.177 69.0709C129.706 69.3652 130.139 69.8047 130.426 70.3374C130.736 70.9164 130.891 71.5653 130.877 72.2217C130.877 72.3347 130.868 72.4962 130.851 72.7048M126.033 70.3892C125.668 70.7043 125.434 71.1435 125.374 71.6217H129.327C129.274 71.1423 129.042 70.7008 128.676 70.3862C128.311 70.0716 127.839 69.9074 127.357 69.9265C126.875 69.9133 126.404 70.0778 126.034 70.3889" fill="#1A1818"/>
<path d="M138.963 68.6997L135.977 75.6631H134.294L131.307 68.7H133.003L135.169 73.8637L137.4 68.7L138.963 68.6997Z" fill="#1A1818"/>
<path d="M146.499 72.7028H141.037C141.118 73.1913 141.387 73.6286 141.786 73.9216C142.226 74.2322 142.754 74.3903 143.292 74.3718C143.643 74.3828 143.992 74.3211 144.317 74.1906C144.643 74.0602 144.938 73.8637 145.184 73.6137L146.057 74.6204C145.738 74.9971 145.331 75.2882 144.871 75.467C144.355 75.6643 143.806 75.7617 143.254 75.754C142.553 75.7685 141.859 75.6115 141.232 75.2967C140.67 75.0114 140.201 74.5702 139.883 74.0259C139.56 73.4647 139.396 72.8267 139.406 72.1796C139.397 71.5391 139.557 70.9075 139.871 70.3488C140.171 69.8131 140.615 69.3726 141.154 69.0779C141.721 68.7678 142.358 68.6102 143.004 68.6207C143.64 68.6097 144.268 68.7649 144.825 69.0709C145.353 69.3652 145.787 69.8047 146.074 70.3374C146.383 70.9164 146.539 71.5653 146.524 72.2217C146.524 72.3347 146.516 72.4962 146.498 72.7048M141.68 70.3892C141.316 70.7043 141.081 71.1435 141.022 71.6217H144.975C144.922 71.1423 144.689 70.7008 144.324 70.3862C143.958 70.0716 143.487 69.9074 143.005 69.9265C142.522 69.9133 142.052 70.0778 141.682 70.3889" fill="#1A1818"/>
<path d="M149.719 65.9868H148.09V75.6623H149.719V65.9868Z" fill="#1A1818"/>
<path d="M155.537 67.2716C155.442 67.1819 155.366 67.0737 155.314 66.9537C155.262 66.8336 155.236 66.7043 155.236 66.5736C155.236 66.4429 155.262 66.3136 155.314 66.1936C155.366 66.0736 155.442 65.9653 155.537 65.8756C155.738 65.6884 156.004 65.5878 156.279 65.5956C156.552 65.5886 156.818 65.6847 157.023 65.8648C157.119 65.9478 157.196 66.051 157.248 66.1669C157.299 66.2829 157.325 66.4088 157.322 66.5358C157.326 66.67 157.301 66.8035 157.251 66.9279C157.2 67.0523 157.125 67.165 157.029 67.2589C156.93 67.3566 156.813 67.4331 156.684 67.4836C156.555 67.5342 156.418 67.5577 156.279 67.5526C156.004 67.5612 155.738 67.4606 155.537 67.2727M155.459 68.7017H157.087V75.6638H155.458L155.459 68.7017Z" fill="#1A1818"/>
<path d="M159.721 75.5314C159.263 75.4196 158.826 75.2303 158.431 74.9715L159.057 73.7319C159.404 73.9569 159.784 74.1264 160.184 74.2342C160.606 74.3569 161.043 74.4201 161.483 74.422C162.456 74.422 162.943 74.1658 162.943 73.6535C162.946 73.5396 162.911 73.4279 162.844 73.336C162.776 73.2441 162.68 73.1772 162.571 73.1457C162.183 73.0162 161.783 72.9242 161.378 72.8712C160.904 72.8052 160.435 72.7053 159.975 72.572C159.616 72.4586 159.292 72.2537 159.036 71.9775C158.755 71.6506 158.612 71.2273 158.638 70.7971C158.632 70.4846 158.704 70.1756 158.849 69.8987C158.994 69.6218 159.207 69.386 159.467 69.2133C160.132 68.7864 160.914 68.579 161.703 68.6204C162.186 68.6215 162.667 68.6764 163.138 68.784C163.549 68.8688 163.945 69.0163 164.311 69.2214L163.685 70.461C163.08 70.1089 162.391 69.928 161.691 69.9377C161.315 69.9162 160.94 69.9904 160.601 70.1534C160.493 70.2042 160.4 70.284 160.335 70.384C160.269 70.4841 160.232 70.6004 160.229 70.7201C160.226 70.8434 160.263 70.9643 160.335 71.0647C160.407 71.1651 160.509 71.2394 160.627 71.2766C161.027 71.4191 161.439 71.5215 161.859 71.5825C162.323 71.6478 162.781 71.7478 163.23 71.8816C163.58 71.9907 163.896 72.1883 164.147 72.4553C164.422 72.7727 164.561 73.1855 164.533 73.6044C164.538 73.9158 164.463 74.2232 164.314 74.4969C164.165 74.7707 163.949 75.0016 163.685 75.1673C162.994 75.594 162.189 75.799 161.378 75.7548C160.818 75.7554 160.261 75.6806 159.721 75.5324" fill="#1A1818"/>
<path d="M171.168 65.9868H169.54V75.6623H171.168V65.9868Z" fill="#1A1818"/>
<path d="M174.534 75.2987C173.982 75.0073 173.524 74.5663 173.211 74.0261C172.899 73.4627 172.735 72.8291 172.735 72.1849C172.735 71.5407 172.899 70.907 173.211 70.3437C173.525 69.8068 173.984 69.3689 174.534 69.0798C175.126 68.7792 175.781 68.6226 176.445 68.6226C177.109 68.6226 177.764 68.7792 178.356 69.0798C178.906 69.3699 179.364 69.8075 179.679 70.3437C179.991 70.907 180.155 71.5407 180.155 72.1849C180.155 72.8291 179.991 73.4627 179.679 74.0261C179.365 74.5655 178.907 75.0063 178.356 75.2987C177.763 75.5981 177.109 75.7542 176.445 75.7542C175.781 75.7542 175.127 75.5981 174.534 75.2987ZM177.925 73.7599C178.303 73.3212 178.51 72.7613 178.51 72.1822C178.51 71.6031 178.303 71.0432 177.925 70.6044C177.732 70.4069 177.5 70.2516 177.244 70.1483C176.988 70.045 176.714 69.996 176.438 70.0045C176.163 69.9954 175.889 70.0442 175.634 70.1475C175.379 70.2508 175.149 70.4065 174.957 70.6044C174.583 71.0447 174.377 71.604 174.377 72.1822C174.377 72.7604 174.583 73.3197 174.957 73.7599C175.149 73.9576 175.379 74.113 175.634 74.2163C175.889 74.3197 176.163 74.3685 176.438 74.3599C176.714 74.3679 176.988 74.3188 177.244 74.2155C177.5 74.1123 177.732 73.9572 177.925 73.7599Z" fill="#1A1818"/>
<path d="M192.58 68.6997L190.009 75.6631H188.446L186.646 70.8646L184.821 75.6631H183.256L180.699 68.7H182.24L184.077 73.8377L185.995 68.7H187.364L189.241 73.8637L191.131 68.7L192.58 68.6997Z" fill="#1A1818"/>
<path d="M199.099 68.3355V68.7528H201.017V70.0566H199.151V75.6637H197.522V70.0566H196.375V68.7528H197.522V68.3076C197.504 67.9845 197.553 67.6612 197.665 67.3577C197.777 67.0542 197.951 66.7769 198.174 66.5431C198.422 66.3179 198.712 66.1447 199.028 66.0339C199.343 65.923 199.678 65.8769 200.012 65.8981C200.53 65.8693 201.045 66.0004 201.487 66.2736L201.029 67.5011C200.767 67.3144 200.453 67.2135 200.131 67.2124C199.444 67.2124 199.1 67.5868 199.099 68.3355Z" fill="#1A1818"/>
<path d="M203.338 75.2987C202.786 75.0073 202.327 74.5663 202.015 74.0261C201.702 73.4627 201.538 72.8291 201.538 72.1849C201.538 71.5407 201.702 70.907 202.015 70.3437C202.329 69.8068 202.787 69.3689 203.338 69.0798C203.93 68.7792 204.585 68.6226 205.249 68.6226C205.913 68.6226 206.567 68.7792 207.159 69.0798C207.709 69.3699 208.167 69.8075 208.482 70.3437C208.795 70.907 208.959 71.5407 208.959 72.1849C208.959 72.8291 208.795 73.4627 208.482 74.0261C208.169 74.5655 207.71 75.0063 207.159 75.2987C206.567 75.5981 205.912 75.7542 205.249 75.7542C204.585 75.7542 203.93 75.5981 203.338 75.2987ZM206.728 73.7599C207.106 73.3212 207.314 72.7613 207.314 72.1822C207.314 71.6031 207.106 71.0432 206.728 70.6044C206.536 70.4069 206.304 70.2516 206.048 70.1483C205.792 70.045 205.518 69.996 205.242 70.0045C204.967 69.9954 204.693 70.0442 204.438 70.1475C204.183 70.2508 203.952 70.4065 203.761 70.6044C203.386 71.0447 203.181 71.604 203.181 72.1822C203.181 72.7604 203.386 73.3197 203.761 73.7599C203.953 73.9576 204.183 74.113 204.438 74.2163C204.693 74.3197 204.967 74.3685 205.242 74.3599C205.517 74.3679 205.792 74.3188 206.048 74.2155C206.304 74.1123 206.535 73.9572 206.728 73.7599Z" fill="#1A1818"/>
<path d="M214.552 68.6229V70.1754C214.427 70.1497 214.3 70.1363 214.173 70.1354C213.9 70.12 213.628 70.1611 213.372 70.2563C213.116 70.3514 212.882 70.4985 212.686 70.6882C212.305 71.1296 212.113 71.704 212.153 72.2861V75.6641H210.523V68.7006H212.075V69.7178C212.545 68.9876 213.371 68.6226 214.553 68.6226" fill="#1A1818"/>
<path d="M223.782 75.2851C223.576 75.4491 223.339 75.5693 223.085 75.638C222.803 75.7176 222.511 75.7573 222.217 75.7561C221.57 75.797 220.933 75.5808 220.444 75.1545C220.225 74.9224 220.056 74.6473 219.948 74.3465C219.84 74.0457 219.796 73.7259 219.818 73.4072V70.0568H218.671V68.753H219.818V67.1621H221.449V68.753H223.313V70.0568H221.449V73.3671C221.429 73.6482 221.518 73.9263 221.696 74.1444C221.79 74.2373 221.902 74.3093 222.026 74.3557C222.149 74.4021 222.281 74.4219 222.413 74.4136C222.741 74.4251 223.063 74.3238 223.325 74.1266L223.782 75.2851Z" fill="#1A1818"/>
<path d="M226.35 75.2987C225.798 75.0073 225.34 74.5663 225.027 74.0261C224.715 73.4627 224.551 72.8291 224.551 72.1849C224.551 71.5407 224.715 70.907 225.027 70.3437C225.341 69.8068 225.799 69.3689 226.35 69.0798C226.942 68.7792 227.597 68.6226 228.261 68.6226C228.925 68.6226 229.579 68.7792 230.171 69.0798C230.721 69.3699 231.18 69.8075 231.494 70.3437C231.807 70.907 231.971 71.5407 231.971 72.1849C231.971 72.8291 231.807 73.4627 231.494 74.0261C231.181 74.5655 230.723 75.0063 230.171 75.2987C229.579 75.5981 228.925 75.7542 228.261 75.7542C227.597 75.7542 226.942 75.5981 226.35 75.2987ZM229.74 73.7599C230.118 73.3212 230.326 72.7613 230.326 72.1822C230.326 71.6031 230.118 71.0432 229.74 70.6044C229.548 70.4069 229.316 70.2516 229.06 70.1483C228.804 70.045 228.53 69.996 228.254 70.0045C227.979 69.9954 227.705 70.0442 227.45 70.1475C227.195 70.2508 226.964 70.4065 226.773 70.6044C226.398 71.0447 226.193 71.604 226.193 72.1822C226.193 72.7604 226.398 73.3197 226.773 73.7599C226.965 73.9576 227.195 74.113 227.45 74.2163C227.705 74.3197 227.979 74.3685 228.254 74.3599C228.53 74.3679 228.804 74.3188 229.06 74.2155C229.316 74.1123 229.547 73.9572 229.74 73.7599Z" fill="#1A1818"/>
<path d="M240.356 65.9868V75.6619H238.791V74.7632C238.526 75.0904 238.183 75.3457 237.793 75.5055C237.377 75.675 236.931 75.7595 236.481 75.7541C235.851 75.7639 235.23 75.6112 234.677 75.3107C234.146 75.0198 233.709 74.5837 233.418 74.0536C233.106 73.479 232.948 72.8332 232.961 72.1794C232.948 71.5289 233.106 70.8864 233.418 70.3156C233.711 69.7882 234.147 69.3543 234.677 69.0639C235.23 68.7641 235.852 68.612 236.481 68.6225C236.914 68.6166 237.344 68.6957 237.747 68.8553C238.124 69.0087 238.459 69.2512 238.723 69.5619V65.9868H240.356ZM237.734 74.0923C238.049 73.9124 238.306 73.648 238.478 73.3291C238.658 72.9732 238.751 72.5802 238.751 72.1816C238.751 71.783 238.658 71.3899 238.478 71.034C238.307 70.7148 238.049 70.4503 237.734 70.2709C237.41 70.0951 237.047 70.0031 236.678 70.0031C236.309 70.0031 235.946 70.0951 235.622 70.2709C235.308 70.4504 235.05 70.7149 234.879 71.034C234.699 71.3896 234.605 71.7828 234.605 72.1816C234.605 72.5804 234.699 72.9736 234.879 73.3291C235.051 73.6479 235.308 73.9123 235.622 74.0923C235.946 74.2669 236.309 74.3583 236.678 74.3583C237.047 74.3583 237.409 74.2669 237.734 74.0923Z" fill="#1A1818"/>
<path d="M247.507 69.3578C248.051 69.8482 248.323 70.5884 248.322 71.5786V75.6607H246.783V74.8142C246.574 75.1256 246.277 75.3681 245.93 75.5113C245.505 75.6821 245.05 75.7643 244.593 75.7529C244.123 75.7632 243.656 75.6714 243.225 75.4837C242.859 75.3268 242.544 75.0703 242.316 74.7435C242.104 74.425 241.993 74.0496 241.998 73.6668C241.988 73.3785 242.047 73.092 242.168 72.8303C242.289 72.5685 242.469 72.3387 242.695 72.1593C243.159 71.782 243.892 71.5931 244.893 71.5927H246.691V71.4884C246.704 71.2809 246.672 71.0729 246.596 70.8792C246.521 70.6854 246.404 70.5106 246.253 70.3669C245.885 70.0806 245.423 69.9412 244.958 69.9756C244.565 69.9757 244.175 70.0373 243.802 70.1583C243.453 70.265 243.128 70.438 242.844 70.6677L242.208 69.4803C242.602 69.1868 243.048 68.97 243.522 68.841C244.052 68.691 244.602 68.6167 245.153 68.6202C246.177 68.6202 246.963 68.8672 247.505 69.3575M246.019 74.2866C246.331 74.1071 246.568 73.8223 246.69 73.4834V72.6758H245.007C244.068 72.6758 243.599 72.9847 243.599 73.6025C243.595 73.7399 243.625 73.8762 243.687 73.999C243.749 74.1217 243.84 74.2272 243.953 74.3057C244.242 74.4952 244.584 74.5867 244.929 74.5665C245.311 74.5731 245.687 74.4764 246.018 74.2866" fill="#1A1818"/>
<path d="M256.928 68.6991L253.668 76.2217C253.457 76.8486 253.072 77.4027 252.558 77.8197C252.095 78.138 251.542 78.3006 250.981 78.284C250.63 78.2822 250.282 78.2247 249.95 78.1138C249.641 78.0173 249.357 77.8568 249.115 77.6427L249.767 76.4431C249.929 76.5935 250.117 76.7126 250.322 76.7944C250.527 76.8798 250.747 76.9242 250.969 76.925C251.224 76.9345 251.474 76.856 251.678 76.7026C251.905 76.4992 252.081 76.2457 252.192 75.9623L252.31 75.6877L249.271 68.6987H250.968L253.157 73.8469L255.363 68.6987L256.928 68.6991Z" fill="#1A1818"/>
<path d="M257.711 75.4466C257.608 75.3463 257.527 75.2257 257.473 75.0925C257.419 74.9593 257.393 74.8163 257.398 74.6727C257.394 74.53 257.419 74.388 257.471 74.2552C257.523 74.1223 257.602 74.0012 257.701 73.899C257.801 73.7968 257.92 73.7156 258.051 73.6602C258.183 73.6047 258.324 73.5762 258.467 73.5762C258.61 73.5762 258.751 73.6047 258.883 73.6602C259.014 73.7156 259.133 73.7968 259.233 73.899C259.332 74.0012 259.411 74.1223 259.463 74.2552C259.515 74.388 259.54 74.53 259.536 74.6727C259.538 74.8848 259.477 75.0927 259.36 75.27C259.244 75.4473 259.077 75.5861 258.882 75.6689C258.687 75.7518 258.471 75.7748 258.263 75.7352C258.054 75.6957 257.862 75.5952 257.711 75.4466Z" fill="#1A1818"/>
<path d="M266.734 67.9694H263.709V66.5356H271.455V67.9701H268.43V75.6633H266.734V67.9694Z" fill="#1A1818"/>
<path d="M277.59 69.3578C278.132 69.8482 278.404 70.5884 278.405 71.5786V75.6607H276.866V74.8141C276.657 75.1256 276.36 75.3682 276.013 75.5113C275.588 75.6821 275.133 75.7643 274.676 75.7529C274.206 75.7632 273.739 75.6713 273.308 75.4837C272.941 75.3273 272.627 75.0707 272.399 74.7435C272.187 74.4249 272.076 74.0495 272.081 73.6667C272.071 73.3784 272.129 73.0918 272.25 72.83C272.371 72.5682 272.552 72.3385 272.778 72.1593C273.243 71.782 273.975 71.5931 274.976 71.5927H276.774V71.4884C276.787 71.2808 276.755 71.0729 276.679 70.8791C276.604 70.6854 276.487 70.5105 276.336 70.3669C275.967 70.0804 275.505 69.941 275.039 69.9756C274.647 69.9758 274.258 70.0374 273.885 70.1583C273.536 70.265 273.211 70.438 272.927 70.6677L272.288 69.4803C272.683 69.1871 273.129 68.9703 273.604 68.841C274.134 68.6911 274.682 68.6168 275.233 68.6202C276.259 68.6202 277.044 68.866 277.588 69.3575M276.102 74.2865C276.414 74.1071 276.651 73.8223 276.772 73.4834V72.6758H275.09C274.151 72.6758 273.682 72.9847 273.682 73.6025C273.678 73.74 273.708 73.8763 273.769 73.9993C273.831 74.1223 273.922 74.2279 274.035 74.3067C274.324 74.4962 274.666 74.5877 275.011 74.5675C275.392 74.5741 275.768 74.4773 276.099 74.2876" fill="#1A1818"/>
<path d="M283.333 72.6761L282.122 73.8235V75.663H280.491V65.9858H282.122V71.8291L285.498 68.6999H287.454L284.546 71.6209L287.728 75.663H285.747L283.333 72.6761Z" fill="#1A1818"/>
<path d="M295.302 72.7028H289.84C289.921 73.1913 290.19 73.6286 290.589 73.9216C291.029 74.2322 291.557 74.3903 292.095 74.3718C292.446 74.3828 292.795 74.3211 293.12 74.1906C293.446 74.0602 293.741 73.8637 293.987 73.6137L294.86 74.6204C294.541 74.9971 294.134 75.2882 293.674 75.467C293.158 75.6643 292.609 75.7617 292.057 75.754C291.356 75.7685 290.662 75.6115 290.035 75.2967C289.473 75.0114 289.004 74.5702 288.686 74.0259C288.363 73.4647 288.199 72.8267 288.209 72.1796C288.2 71.5391 288.36 70.9075 288.674 70.3488C288.974 69.8131 289.418 69.3726 289.957 69.0779C290.524 68.7678 291.161 68.6102 291.807 68.6207C292.443 68.6097 293.07 68.7649 293.628 69.0709C294.157 69.365 294.59 69.8042 294.878 70.3367C295.187 70.9157 295.342 71.5647 295.328 72.221C295.328 72.334 295.319 72.4955 295.302 72.7042M290.484 70.3885C290.119 70.7037 289.885 71.1428 289.825 71.621H293.777C293.724 71.1417 293.492 70.7002 293.126 70.3856C292.761 70.071 292.289 69.9067 291.807 69.9259C291.325 69.9126 290.854 70.0771 290.484 70.3882" fill="#1A1818"/>
<path d="M40.2032 84.3462L36.9434 91.8689C36.7318 92.4958 36.3468 93.0498 35.8331 93.4668C35.3701 93.785 34.8179 93.9476 34.2563 93.9311C33.9058 93.9295 33.5577 93.8719 33.2253 93.7605C32.9169 93.6645 32.6324 93.5039 32.3909 93.2895L33.043 92.0899C33.2045 92.2403 33.3925 92.3594 33.5975 92.4412C33.8019 92.5265 34.021 92.5707 34.2425 92.5714C34.498 92.5814 34.7492 92.5028 34.9535 92.349C35.1803 92.1457 35.3564 91.8922 35.468 91.6088L35.5861 91.3342L32.5497 84.3462H34.2449L36.4354 89.4943L38.64 84.3462H40.2032Z" fill="#1A1818"/>
<path d="M42.4445 90.9462C41.8934 90.6543 41.4356 90.2134 41.1232 89.6737C40.8096 89.1106 40.645 88.4769 40.645 87.8324C40.645 87.188 40.8096 86.5542 41.1232 85.9912C41.437 85.4548 41.8947 85.017 42.4445 84.7274C43.0311 84.4171 43.6865 84.2598 44.35 84.2701C45.017 84.2585 45.6761 84.4159 46.2659 84.7274C46.8167 85.0169 47.2756 85.4547 47.5906 85.9912C47.902 86.555 48.0653 87.1884 48.0653 87.8324C48.0653 88.4764 47.902 89.1099 47.5906 89.6737C47.277 90.2135 46.818 90.6544 46.2659 90.9462C45.6756 91.2564 45.0168 91.4131 44.35 91.4018C43.6867 91.4119 43.0315 91.2552 42.4445 90.9462ZM45.8366 89.4075C46.2146 88.9687 46.4225 88.4089 46.4225 87.8297C46.4225 87.2506 46.2146 86.6907 45.8366 86.252C45.6439 86.0545 45.4122 85.8991 45.1563 85.7958C44.9004 85.6926 44.6258 85.6436 44.35 85.652C44.075 85.6428 43.8011 85.6915 43.5461 85.7948C43.291 85.8982 43.0605 86.0539 42.8695 86.252C42.4947 86.6922 42.2888 87.2515 42.2888 87.8297C42.2888 88.4079 42.4947 88.9673 42.8695 89.4075C43.0608 89.6053 43.2913 89.7608 43.5463 89.8641C43.8013 89.9674 44.075 90.0163 44.35 90.0074C44.6258 90.0155 44.9002 89.9663 45.1561 89.8631C45.4119 89.7598 45.6436 89.6047 45.8366 89.4075Z" fill="#1A1818"/>
<path d="M56.3724 84.3462V91.3093H54.8202V90.422C54.557 90.7372 54.2225 90.9852 53.8444 91.1454C53.4441 91.3174 53.0126 91.4044 52.5769 91.4012C52.178 91.4231 51.7786 91.3657 51.402 91.2323C51.0254 91.0989 50.6789 90.8921 50.3827 90.6239C49.8473 90.1057 49.579 89.3384 49.5779 88.322V84.3462H51.2105V88.1003C51.1711 88.6039 51.3219 89.1039 51.6331 89.5017C51.7888 89.6609 51.9771 89.7847 52.1851 89.8645C52.393 89.9443 52.6157 89.9782 52.838 89.9641C53.0949 89.9769 53.3516 89.9354 53.5913 89.8422C53.831 89.749 54.0483 89.6063 54.229 89.4233C54.5969 88.9902 54.7814 88.4307 54.7435 87.8637V84.3462H56.3724Z" fill="#1A1818"/>
<path d="M62.5391 84.2704V85.8229C62.4144 85.7971 62.2875 85.7837 62.1602 85.7828C61.8877 85.7674 61.6149 85.8086 61.3591 85.9037C61.1032 85.9989 60.8699 86.1459 60.6736 86.3357C60.292 86.7771 60.1002 87.3514 60.14 87.9336V91.3115H58.5107V84.3481H60.0616V85.3653C60.5311 84.6351 61.3569 84.27 62.5391 84.27" fill="#1A1818"/>
<path d="M73.6486 85.0385C74.1789 85.5513 74.4444 86.3116 74.445 87.3195V91.3094H72.8141V87.5298C72.8528 87.0326 72.6976 86.5399 72.3811 86.1546C72.222 85.9943 72.0305 85.8699 71.8193 85.7898C71.6082 85.7097 71.3823 85.6757 71.157 85.6902C70.8955 85.6766 70.6341 85.7178 70.3895 85.8112C70.1449 85.9046 69.9225 86.0482 69.7367 86.2326C69.5517 86.445 69.4105 86.6918 69.321 86.9588C69.2315 87.2259 69.1955 87.5079 69.2151 87.7889V91.3094H67.5862V84.348H69.134V85.2461C69.4081 84.9222 69.7582 84.6714 70.1529 84.5159C70.5934 84.345 71.0628 84.2611 71.5352 84.2689C71.9206 84.2505 72.3059 84.309 72.6686 84.4409C73.0313 84.5729 73.3641 84.7757 73.6476 85.0375" fill="#1A1818"/>
<path d="M83.0354 88.3503H77.573C77.6542 88.8387 77.9231 89.2761 78.3223 89.569C78.7615 89.8796 79.2904 90.0378 79.8281 90.0192C80.1786 90.0302 80.5277 89.9686 80.8532 89.8381C81.1788 89.7076 81.4738 89.5112 81.7197 89.2611L82.5926 90.2679C82.2742 90.6446 81.8665 90.9357 81.4068 91.1145C80.891 91.3118 80.3423 91.4092 79.79 91.4015C79.0889 91.4159 78.3948 91.259 77.7681 90.9442C77.2057 90.6589 76.7373 90.2177 76.4188 89.6733C76.0963 89.1122 75.9316 88.4742 75.9424 87.8271C75.9331 87.1865 76.0933 86.5549 76.4067 85.9963C76.7065 85.4605 77.1512 85.0201 77.6897 84.7254C78.2566 84.4152 78.8943 84.2577 79.5404 84.2681C80.176 84.2572 80.8035 84.4124 81.3607 84.7183C81.8898 85.0126 82.3236 85.452 82.6111 85.9848C82.9204 86.5639 83.0755 87.2128 83.0613 87.8691C83.0613 87.9822 83.0525 88.1437 83.035 88.3523M78.2173 86.0367C77.8527 86.3518 77.618 86.791 77.5585 87.2692H81.5108C81.4579 86.7898 81.2253 86.3483 80.8597 86.0337C80.4942 85.7191 80.0229 85.5548 79.541 85.574C79.0583 85.5608 78.5875 85.7253 78.218 86.0363" fill="#1A1818"/>
<path d="M89.0611 91.3101L87.2754 88.8969L85.4742 91.3101H83.675L86.3874 87.7771L83.7935 84.3467H85.6068L87.3141 86.6294L89.0231 84.3467H90.7825L88.1745 87.7495L90.8999 91.3101H89.0611Z" fill="#1A1818"/>
<path d="M96.2853 90.9325C96.0794 91.0966 95.8422 91.2167 95.5881 91.2855C95.3058 91.365 95.0139 91.4048 94.7206 91.4036C94.0734 91.4445 93.4361 91.2283 92.9474 90.802C92.7278 90.5699 92.5588 90.2947 92.4511 89.994C92.3434 89.6932 92.2993 89.3733 92.3215 89.0546V85.7043H91.1741V84.4004H92.3215V82.8096H93.9528V84.4004H95.8165V85.7043H93.9528V89.0146C93.9328 89.2957 94.0212 89.5738 94.1998 89.7919C94.2934 89.8848 94.4056 89.9568 94.5291 90.0032C94.6526 90.0496 94.7845 90.0693 94.9161 90.061C95.2442 90.0723 95.5664 89.971 95.829 89.774L96.2853 90.9325Z" fill="#1A1818"/>
<path d="M105.413 90.9325C105.207 91.0966 104.97 91.2167 104.716 91.2855C104.434 91.365 104.142 91.4048 103.848 91.4036C103.201 91.4445 102.564 91.2283 102.075 90.802C101.856 90.5699 101.687 90.2947 101.579 89.994C101.471 89.6932 101.427 89.3733 101.449 89.0546V85.7043H100.302V84.4004H101.449V82.8096H103.079V84.4004H104.943V85.7043H103.08V89.0146C103.06 89.2957 103.148 89.5738 103.327 89.7919C103.42 89.8848 103.533 89.9568 103.656 90.0032C103.78 90.0496 103.911 90.0693 104.043 90.061C104.371 90.0723 104.693 89.971 104.956 89.774L105.413 90.9325Z" fill="#1A1818"/>
<path d="M113.275 88.3503H107.812C107.894 88.8387 108.163 89.2761 108.562 89.569C109.001 89.8797 109.53 90.0378 110.067 90.0192C110.418 90.0302 110.767 89.9686 111.093 89.8381C111.418 89.7076 111.713 89.5112 111.959 89.2611L112.832 90.2679C112.514 90.6446 112.106 90.9357 111.646 91.1145C111.13 91.3118 110.582 91.4092 110.029 91.4015C109.328 91.4159 108.634 91.259 108.008 90.9442C107.445 90.6589 106.977 90.2177 106.658 89.6733C106.336 89.1122 106.171 88.4742 106.182 87.8271C106.172 87.1865 106.333 86.5549 106.646 85.9963C106.946 85.4605 107.391 85.0201 107.929 84.7254C108.496 84.4152 109.134 84.2577 109.78 84.2681C110.415 84.2572 111.043 84.4124 111.6 84.7183C112.129 85.0124 112.563 85.4516 112.85 85.9842C113.159 86.5632 113.315 87.2121 113.3 87.8684C113.3 87.9815 113.292 88.143 113.274 88.3516M108.457 86.036C108.092 86.3511 107.857 86.7903 107.798 87.2685H111.75C111.697 86.7891 111.465 86.3476 111.099 86.033C110.734 85.7184 110.262 85.5541 109.78 85.5733C109.298 85.5601 108.827 85.7246 108.457 86.0356" fill="#1A1818"/>
<path d="M115.361 91.1793C114.903 91.0676 114.466 90.8782 114.071 90.6194L114.697 89.3798C115.044 89.6048 115.424 89.7743 115.824 89.8822C116.246 90.0048 116.683 90.068 117.122 90.07C118.096 90.07 118.583 89.8138 118.583 89.3014C118.586 89.1875 118.551 89.0759 118.483 88.9839C118.416 88.892 118.32 88.8251 118.211 88.7937C117.823 88.6641 117.423 88.5722 117.018 88.5191C116.544 88.4532 116.075 88.3532 115.615 88.22C115.255 88.1066 114.932 87.9017 114.676 87.6254C114.395 87.2985 114.252 86.8753 114.278 86.4451C114.271 86.1326 114.344 85.8235 114.489 85.5466C114.634 85.2697 114.847 85.034 115.107 84.8613C115.772 84.4343 116.554 84.2269 117.343 84.2684C117.826 84.2695 118.307 84.3243 118.778 84.4319C119.189 84.5167 119.585 84.6642 119.951 84.8693L119.325 86.1089C118.72 85.7568 118.031 85.576 117.331 85.5857C116.955 85.5642 116.58 85.6384 116.241 85.8014C116.132 85.8521 116.04 85.9319 115.975 86.032C115.909 86.132 115.872 86.2484 115.869 86.368C115.866 86.4913 115.903 86.6122 115.975 86.7124C116.047 86.8127 116.149 86.887 116.267 86.9242C116.666 87.0667 117.079 87.1691 117.499 87.2301C117.963 87.2954 118.421 87.3954 118.869 87.5292C119.22 87.6383 119.536 87.8359 119.787 88.1029C120.062 88.4204 120.201 88.8331 120.173 89.252C120.178 89.5634 120.102 89.8709 119.954 90.1446C119.805 90.4184 119.588 90.6492 119.325 90.8149C118.634 91.2416 117.828 91.4466 117.017 91.4024C116.458 91.403 115.9 91.3282 115.361 91.18" fill="#1A1818"/>
<path d="M125.767 90.9325C125.561 91.0966 125.324 91.2167 125.069 91.2855C124.787 91.365 124.495 91.4048 124.202 91.4036C123.555 91.4445 122.917 91.2283 122.429 90.802C122.209 90.5699 122.04 90.2947 121.932 89.994C121.825 89.6932 121.781 89.3733 121.803 89.0546V85.7043H120.656V84.4004H121.803V82.8096H123.434V84.4004H125.298V85.7043H123.433V89.0146C123.414 89.2957 123.502 89.5738 123.68 89.7919C123.774 89.8848 123.886 89.9568 124.01 90.0032C124.133 90.0496 124.265 90.0693 124.397 90.061C124.725 90.0723 125.047 89.971 125.31 89.774L125.767 90.9325Z" fill="#1A1818"/>
<path d="M141.57 84.3467L139 91.3098H137.438L135.638 86.5113L133.813 91.3098H132.25L129.692 84.3467H131.233L133.071 89.4844L134.988 84.3467H136.355L138.232 89.5103L140.122 84.3467H141.57Z" fill="#1A1818"/>
<path d="M148.756 85.0384C149.286 85.5512 149.552 86.3116 149.553 87.3194V91.3094H147.922V87.5284C147.96 87.0316 147.806 86.5392 147.491 86.1532C147.331 85.9929 147.139 85.8686 146.928 85.7885C146.717 85.7084 146.491 85.6744 146.265 85.6889C146.003 85.6754 145.742 85.7167 145.497 85.8101C145.253 85.9035 145.031 86.0469 144.845 86.2313C144.472 86.6606 144.284 87.2202 144.323 87.7875V91.3081H142.694V81.6343H144.323V85.1549C144.601 84.8623 144.943 84.637 145.321 84.496C145.745 84.3409 146.193 84.2643 146.644 84.2699C147.03 84.2515 147.415 84.31 147.778 84.4419C148.14 84.5739 148.473 84.7766 148.756 85.0384Z" fill="#1A1818"/>
<path d="M158.144 88.3503H152.682C152.763 88.8387 153.032 89.2761 153.431 89.569C153.87 89.8796 154.399 90.0378 154.937 90.0192C155.288 90.0302 155.637 89.9686 155.962 89.8381C156.288 89.7076 156.583 89.5112 156.829 89.2611L157.702 90.2679C157.383 90.6446 156.975 90.9357 156.516 91.1145C156 91.3118 155.451 91.4092 154.899 91.4015C154.198 91.4159 153.504 91.259 152.877 90.9442C152.315 90.6589 151.846 90.2177 151.528 89.6733C151.205 89.1122 151.041 88.4742 151.051 87.8271C151.042 87.1865 151.202 86.5549 151.516 85.9963C151.815 85.4605 152.26 85.0201 152.799 84.7254C153.366 84.4152 154.003 84.2577 154.649 84.2681C155.285 84.2572 155.912 84.4124 156.47 84.7183C156.999 85.0126 157.432 85.4521 157.72 85.9848C158.029 86.5639 158.184 87.2128 158.17 87.8691C158.17 87.9822 158.161 88.1437 158.144 88.3523M153.326 86.0367C152.962 86.3518 152.727 86.791 152.667 87.2692H156.619C156.567 86.7898 156.334 86.3483 155.968 86.0337C155.603 85.7191 155.132 85.5548 154.65 85.574C154.167 85.5608 153.696 85.7253 153.327 86.0363" fill="#1A1818"/>
<path d="M165.8 85.0385C166.33 85.5513 166.595 86.3116 166.596 87.3195V91.3094H164.963V87.5298C165.002 87.0332 164.848 86.5408 164.534 86.1546C164.374 85.9943 164.182 85.8699 163.971 85.7899C163.76 85.7098 163.534 85.6758 163.308 85.6902C163.046 85.6766 162.785 85.7178 162.54 85.8112C162.296 85.9046 162.073 86.0482 161.888 86.2326C161.514 86.6618 161.326 87.2213 161.364 87.7889V91.3094H159.737V84.348H161.288V85.2461C161.561 84.9215 161.91 84.6705 162.305 84.5159C162.746 84.3452 163.215 84.2613 163.687 84.2689C164.073 84.2505 164.458 84.309 164.821 84.4409C165.184 84.5729 165.516 84.7757 165.8 85.0375" fill="#1A1818"/>
<path d="M177.945 84.7135C178.475 85.0039 178.911 85.4378 179.204 85.9652C179.516 86.5363 179.673 87.1786 179.661 87.829C179.673 88.4821 179.515 89.1272 179.204 89.7015C178.912 90.2317 178.476 90.6682 177.945 90.9603C177.386 91.2602 176.76 91.4122 176.125 91.4017C175.707 91.421 175.29 91.3466 174.905 91.1842C174.519 91.0218 174.174 90.7754 173.896 90.463V93.8412H172.265V84.3481H173.819V85.2593C174.085 84.9335 174.427 84.6786 174.815 84.517C175.232 84.3489 175.678 84.265 176.127 84.2701C176.762 84.2594 177.389 84.4121 177.948 84.7135M177.425 89.4078C177.799 88.9675 178.005 88.4082 178.005 87.83C178.005 87.2518 177.799 86.6925 177.425 86.2523C177.234 86.0545 177.004 85.8989 176.749 85.7955C176.495 85.6922 176.221 85.6434 175.947 85.6523C175.577 85.6468 175.212 85.7386 174.89 85.9185C174.575 86.0985 174.317 86.3636 174.145 86.6833C173.967 87.0392 173.874 87.4318 173.874 87.8298C173.874 88.2279 173.967 88.6205 174.145 88.9764C174.317 89.2956 174.575 89.5601 174.89 89.7395C175.212 89.9212 175.577 90.0141 175.947 90.0087C176.221 90.0172 176.495 89.9683 176.749 89.8649C177.004 89.7616 177.234 89.6062 177.425 89.4088" fill="#1A1818"/>
<path d="M185.24 84.2704V85.8229C185.116 85.7971 184.989 85.7837 184.861 85.7828C184.589 85.7674 184.316 85.8086 184.06 85.9037C183.804 85.9989 183.571 86.1459 183.375 86.3357C182.993 86.7771 182.801 87.3514 182.841 87.9336V91.3115H181.212V84.3481H182.763V85.3653C183.232 84.6351 184.058 84.27 185.24 84.27" fill="#1A1818"/>
<path d="M187.914 90.9461C187.362 90.6548 186.904 90.2137 186.591 89.6735C186.279 89.1102 186.115 88.4766 186.115 87.8323C186.115 87.1881 186.279 86.5545 186.591 85.9911C186.905 85.4543 187.364 85.0164 187.914 84.7273C188.506 84.4267 189.161 84.27 189.825 84.27C190.489 84.27 191.144 84.4267 191.736 84.7273C192.286 85.0173 192.744 85.455 193.059 85.9911C193.371 86.5545 193.535 87.1881 193.535 87.8323C193.535 88.4766 193.371 89.1102 193.059 89.6735C192.745 90.213 192.287 90.6538 191.736 90.9461C191.143 91.2456 190.489 91.4016 189.825 91.4016C189.161 91.4016 188.507 91.2456 187.914 90.9461ZM191.305 89.4074C191.683 88.9686 191.891 88.4088 191.891 87.8296C191.891 87.2505 191.683 86.6906 191.305 86.2519C191.112 86.0544 190.88 85.899 190.624 85.7957C190.369 85.6925 190.094 85.6435 189.818 85.6519C189.543 85.6429 189.269 85.6916 189.014 85.7949C188.759 85.8983 188.529 86.0539 188.338 86.2519C187.963 86.6921 187.757 87.2514 187.757 87.8296C187.757 88.4078 187.963 88.9672 188.338 89.4074C188.529 89.605 188.76 89.7605 189.014 89.8638C189.269 89.9671 189.543 90.016 189.818 90.0073C190.094 90.0154 190.368 89.9662 190.624 89.863C190.88 89.7597 191.112 89.6046 191.305 89.4074Z" fill="#1A1818"/>
<path d="M205.973 85.0316C206.486 85.541 206.742 86.3037 206.742 87.3197V91.3096H205.113V87.53C205.15 87.0377 205.006 86.5488 204.709 86.1548C204.562 85.9961 204.382 85.8721 204.182 85.7918C203.981 85.7114 203.765 85.6768 203.549 85.6904C203.304 85.6797 203.059 85.7225 202.831 85.8159C202.603 85.9093 202.399 86.051 202.232 86.2312C201.876 86.6647 201.699 87.2172 201.736 87.7766V91.3096H200.107V87.53C200.143 87.0378 199.999 86.5492 199.703 86.1548C199.556 85.9962 199.375 85.8722 199.174 85.7919C198.973 85.7116 198.757 85.677 198.541 85.6904C198.295 85.6783 198.049 85.72 197.821 85.8125C197.592 85.905 197.387 86.0461 197.218 86.2261C196.865 86.6623 196.69 87.2167 196.73 87.7769V91.31H195.099V84.3465H196.65V85.2332C196.914 84.9196 197.25 84.6739 197.628 84.5168C198.042 84.3476 198.486 84.2636 198.932 84.2698C199.412 84.26 199.887 84.3599 200.321 84.5619C200.718 84.7518 201.051 85.0533 201.279 85.4293C201.573 85.0582 201.953 84.7643 202.387 84.5733C202.859 84.3665 203.371 84.2632 203.887 84.2705C204.268 84.2505 204.649 84.3076 205.008 84.4385C205.366 84.5693 205.695 84.7712 205.973 85.0319" fill="#1A1818"/>
<path d="M214.507 84.7135C215.036 85.0034 215.473 85.4374 215.765 85.9652C216.078 86.536 216.235 87.1785 216.223 87.829C216.235 88.4822 216.077 89.1275 215.765 89.7015C215.474 90.2321 215.037 90.6687 214.507 90.9603C213.949 91.2601 213.323 91.4121 212.69 91.4017C212.272 91.4211 211.855 91.3469 211.469 91.1845C211.083 91.022 210.739 90.7755 210.461 90.4629V93.8412H208.83V84.3481H210.381V85.2593C210.647 84.9331 210.99 84.6781 211.379 84.517C211.796 84.3489 212.242 84.265 212.691 84.27C213.325 84.2595 213.95 84.4122 214.508 84.7135M213.986 89.4077C214.361 88.9675 214.567 88.4082 214.567 87.83C214.567 87.2518 214.361 86.6925 213.986 86.2522C213.795 86.0543 213.565 85.8986 213.31 85.7953C213.055 85.692 212.781 85.6433 212.506 85.6523C212.136 85.6466 211.771 85.7387 211.448 85.9191C211.133 86.0988 210.875 86.3639 210.704 86.6839C210.525 87.0395 210.431 87.4322 210.431 87.8305C210.431 88.2288 210.525 88.6215 210.704 88.9771C210.875 89.2966 211.133 89.5612 211.448 89.7402C211.77 89.9218 212.134 90.0148 212.504 90.0094C212.779 90.018 213.052 89.9691 213.307 89.8658C213.562 89.7625 213.793 89.6071 213.984 89.4094" fill="#1A1818"/>
<path d="M221.96 90.9325C221.754 91.0966 221.517 91.2167 221.263 91.2855C220.981 91.365 220.689 91.4048 220.395 91.4036C219.748 91.4445 219.111 91.2283 218.622 90.802C218.403 90.5699 218.234 90.2947 218.126 89.994C218.018 89.6932 217.974 89.3733 217.996 89.0546V85.7043H216.849V84.4004H217.996V82.8096H219.627V84.4004H221.491V85.7043H219.627V89.0146C219.607 89.2957 219.696 89.5738 219.874 89.7919C219.968 89.8848 220.08 89.9568 220.203 90.0032C220.327 90.0496 220.459 90.0693 220.591 90.061C220.919 90.0723 221.241 89.971 221.503 89.774L221.96 90.9325Z" fill="#1A1818"/>
<path d="M229.822 88.3503H224.359C224.44 88.8387 224.709 89.2761 225.108 89.569C225.548 89.8796 226.077 90.0378 226.614 90.0192C226.965 90.0302 227.314 89.9686 227.639 89.8381C227.965 89.7076 228.26 89.5112 228.506 89.2611L229.379 90.2679C229.06 90.6446 228.653 90.9357 228.193 91.1145C227.677 91.3118 227.128 91.4092 226.576 91.4015C225.875 91.4159 225.181 91.259 224.554 90.9442C223.992 90.6589 223.523 90.2177 223.205 89.6733C222.882 89.1122 222.718 88.4742 222.729 87.8271C222.719 87.1865 222.879 86.5549 223.193 85.9963C223.493 85.4605 223.937 85.0201 224.476 84.7254C225.043 84.4152 225.68 84.2577 226.326 84.2681C226.962 84.2572 227.59 84.4124 228.147 84.7183C228.676 85.0125 229.109 85.4517 229.397 85.9842C229.706 86.5632 229.861 87.2121 229.847 87.8684C229.847 87.9815 229.838 88.143 229.821 88.3516M225.003 86.036C224.639 86.3511 224.404 86.7903 224.345 87.2685H228.297C228.244 86.7891 228.011 86.3476 227.646 86.033C227.28 85.7184 226.809 85.5541 226.327 85.5733C225.844 85.5601 225.373 85.7246 225.004 86.0356" fill="#1A1818"/>
<path d="M238.233 81.6343V91.3094H236.669V90.4107C236.404 90.7379 236.061 90.9931 235.671 91.1529C235.255 91.3224 234.809 91.407 234.359 91.4016C233.729 91.4114 233.108 91.2586 232.554 90.9581C232.024 90.6672 231.587 90.2312 231.296 89.701C230.983 89.1265 230.826 88.4806 230.838 87.8268C230.826 87.1764 230.983 86.5339 231.296 85.9631C231.589 85.4356 232.025 85.0017 232.554 84.7114C233.108 84.4115 233.729 84.2595 234.359 84.2699C234.792 84.2641 235.222 84.3432 235.625 84.5028C236.002 84.6562 236.337 84.8986 236.601 85.2094V81.6343H238.233ZM235.611 89.7397C235.926 89.5598 236.183 89.2954 236.355 88.9766C236.535 88.6207 236.628 88.2277 236.628 87.8292C236.628 87.4307 236.535 87.0377 236.355 86.6818C236.184 86.3626 235.926 86.0982 235.611 85.9187C235.287 85.7429 234.924 85.6509 234.555 85.6509C234.186 85.6509 233.823 85.7429 233.499 85.9187C233.185 86.0982 232.927 86.3627 232.757 86.6818C232.576 87.0373 232.482 87.4305 232.482 87.8292C232.482 88.228 232.576 88.6211 232.757 88.9766C232.928 89.2953 233.185 89.5597 233.499 89.7397C233.824 89.9143 234.186 90.0057 234.555 90.0057C234.924 90.0057 235.287 89.9143 235.611 89.7397Z" fill="#1A1818"/>
<path d="M249.648 84.7132C250.178 85.0031 250.614 85.4371 250.907 85.9649C251.219 86.5357 251.377 87.1782 251.364 87.8287C251.377 88.4819 251.219 89.1272 250.907 89.7012C250.615 90.232 250.179 90.6687 249.648 90.9603C249.09 91.2602 248.465 91.4122 247.831 91.4018C247.382 91.4077 246.936 91.3238 246.519 91.1548C246.129 90.9943 245.786 90.7383 245.521 90.4105V91.3109H243.97V81.6338H245.601V85.1944C245.873 84.8937 246.209 84.6578 246.585 84.5043C246.98 84.3441 247.403 84.2641 247.83 84.2688C248.464 84.2582 249.089 84.4109 249.647 84.7122M249.125 89.4065C249.5 88.9662 249.706 88.4069 249.706 87.8287C249.706 87.2505 249.5 86.6912 249.125 86.251C248.934 86.053 248.704 85.8974 248.449 85.794C248.194 85.6907 247.92 85.642 247.645 85.651C247.276 85.6455 246.912 85.7373 246.59 85.9172C246.274 86.0968 246.016 86.3619 245.846 86.682C245.666 87.0375 245.573 87.4303 245.573 87.8285C245.573 88.2268 245.666 88.6195 245.846 88.9751C246.017 89.2946 246.274 89.5592 246.59 89.7382C246.911 89.9199 247.275 90.0128 247.645 90.0074C247.92 90.0161 248.193 89.9672 248.448 89.8639C248.703 89.7605 248.934 89.6051 249.125 89.4075" fill="#1A1818"/>
<path d="M259.435 84.3462L256.175 91.8689C255.964 92.4958 255.579 93.0499 255.065 93.4668C254.602 93.785 254.05 93.9477 253.488 93.9312C253.138 93.9295 252.79 93.8719 252.457 93.7606C252.149 93.6646 251.864 93.504 251.623 93.2895L252.275 92.09C252.436 92.2404 252.624 92.3595 252.829 92.4412C253.034 92.5265 253.253 92.5707 253.474 92.5715C253.73 92.5814 253.981 92.5028 254.185 92.3491C254.412 92.1457 254.588 91.8922 254.7 91.6088L254.818 91.3342L251.779 84.3452H253.474L255.664 89.4934L257.869 84.3452L259.435 84.3462Z" fill="#1A1818"/>
<path d="M268.236 90.9325C268.03 91.0966 267.793 91.2167 267.539 91.2855C267.257 91.365 266.965 91.4048 266.671 91.4036C266.024 91.4445 265.387 91.2283 264.898 90.802C264.679 90.5699 264.51 90.2947 264.402 89.994C264.294 89.6932 264.25 89.3733 264.272 89.0546V85.7043H263.125V84.4004H264.272V82.8096H265.903V84.4004H267.767V85.7043H265.903V89.0146C265.883 89.2957 265.971 89.5738 266.15 89.7919C266.243 89.8848 266.356 89.9568 266.479 90.0032C266.603 90.0496 266.735 90.0693 266.866 90.061C267.194 90.0723 267.516 89.971 267.779 89.774L268.236 90.9325Z" fill="#1A1818"/>
<path d="M275.642 85.0384C276.173 85.5512 276.438 86.3116 276.439 87.3194V91.3094H274.808V87.5284C274.846 87.0316 274.692 86.5392 274.377 86.1532C274.217 85.9929 274.025 85.8686 273.814 85.7885C273.603 85.7084 273.377 85.6744 273.151 85.6889C272.889 85.6754 272.628 85.7167 272.384 85.8101C272.139 85.9035 271.917 86.0469 271.731 86.2313C271.358 86.6606 271.17 87.2202 271.209 87.7875V91.3081H269.58V81.6343H271.21V85.1549C271.488 84.8623 271.829 84.637 272.208 84.496C272.631 84.3409 273.08 84.2643 273.531 84.2699C273.916 84.2515 274.302 84.31 274.664 84.4419C275.027 84.5739 275.36 84.7766 275.643 85.0384" fill="#1A1818"/>
<path d="M285.031 88.3503H279.568C279.65 88.8387 279.918 89.2761 280.318 89.569C280.757 89.8796 281.286 90.0378 281.823 90.0192C282.174 90.0302 282.523 89.9686 282.849 89.8381C283.174 89.7076 283.469 89.5112 283.715 89.2611L284.588 90.2679C284.269 90.6446 283.862 90.9356 283.402 91.1145C282.886 91.3118 282.338 91.4092 281.785 91.4015C281.084 91.4159 280.39 91.259 279.763 90.9442C279.201 90.6589 278.733 90.2177 278.414 89.6733C278.092 89.1122 277.927 88.4742 277.938 87.8271C277.928 87.1865 278.089 86.5549 278.402 85.9963C278.702 85.4605 279.146 85.0201 279.685 84.7254C280.252 84.4152 280.89 84.2577 281.536 84.2681C282.171 84.2572 282.799 84.4124 283.356 84.7183C283.885 85.0125 284.319 85.4517 284.606 85.9842C284.915 86.5632 285.07 87.2121 285.056 87.8684C285.056 87.9815 285.047 88.143 285.03 88.3516M280.213 86.036C279.848 86.3511 279.613 86.7903 279.554 87.2685H283.506C283.453 86.7891 283.22 86.3476 282.855 86.033C282.489 85.7184 282.018 85.5541 281.536 85.5733C281.053 85.5601 280.582 85.7246 280.213 86.0356" fill="#1A1818"/>
<path d="M295.235 85.0053C295.777 85.4956 296.049 86.2359 296.05 87.226V91.3082H294.511V90.4616C294.302 90.7731 294.005 91.0156 293.658 91.1588C293.233 91.3296 292.778 91.4118 292.321 91.4004C291.851 91.4106 291.384 91.3188 290.953 91.1312C290.586 90.9747 290.272 90.7182 290.044 90.3909C289.832 90.0724 289.721 89.697 289.726 89.3142C289.716 89.0259 289.774 88.7393 289.895 88.4775C290.016 88.2156 290.197 87.9859 290.423 87.8068C290.887 87.4295 291.62 87.2406 292.621 87.2401H294.418V87.1358C294.432 86.9283 294.4 86.7204 294.324 86.5266C294.249 86.3329 294.131 86.158 293.981 86.0144C293.612 85.7279 293.15 85.5884 292.684 85.623C292.292 85.6232 291.902 85.6849 291.529 85.8057C291.18 85.9125 290.855 86.0854 290.572 86.3152L289.932 85.1277C290.327 84.8346 290.774 84.6178 291.248 84.4884C291.778 84.3386 292.326 84.2643 292.877 84.2677C293.903 84.2677 294.688 84.5134 295.232 85.0049M293.75 89.934C294.062 89.7546 294.3 89.4698 294.421 89.1308V88.3233H292.739C291.8 88.3233 291.331 88.6322 291.331 89.2499C291.326 89.3874 291.356 89.5238 291.418 89.6468C291.48 89.7697 291.571 89.8754 291.684 89.9542C291.972 90.1437 292.315 90.2351 292.659 90.215C293.041 90.2216 293.417 90.1249 293.748 89.935" fill="#1A1818"/>
<path d="M303.815 84.7135C304.344 85.0033 304.781 85.4374 305.074 85.9652C305.386 86.5359 305.544 87.1784 305.531 87.8289C305.543 88.4822 305.386 89.1274 305.074 89.7015C304.782 90.2321 304.346 90.6687 303.815 90.9602C303.257 91.2597 302.631 91.4117 301.998 91.4017C301.58 91.4211 301.163 91.3468 300.777 91.1844C300.392 91.022 300.047 90.7755 299.769 90.4629V93.8412H298.135V84.3481H299.686V85.2593C299.953 84.9334 300.296 84.6784 300.685 84.517C301.102 84.3487 301.548 84.2647 301.998 84.27C302.631 84.2598 303.257 84.4126 303.815 84.7135ZM303.293 89.4077C303.668 88.9675 303.874 88.4082 303.874 87.83C303.874 87.2518 303.668 86.6925 303.293 86.2522C303.102 86.0543 302.871 85.8986 302.616 85.7952C302.361 85.6919 302.088 85.6432 301.813 85.6523C301.444 85.6466 301.08 85.7384 300.757 85.9184C300.441 86.0971 300.183 86.3625 300.013 86.6832C299.834 87.0388 299.741 87.4315 299.741 87.8298C299.741 88.2281 299.834 88.6208 300.013 88.9763C300.183 89.2966 300.442 89.5615 300.757 89.7395C301.079 89.9214 301.443 90.0143 301.813 90.0087C302.088 90.0173 302.361 89.9684 302.616 89.8651C302.871 89.7618 303.102 89.6063 303.293 89.4087" fill="#1A1818"/>
<path d="M312.759 84.7135C313.289 85.0034 313.725 85.4374 314.018 85.9652C314.33 86.5359 314.488 87.1785 314.475 87.829C314.488 88.4822 314.33 89.1275 314.018 89.7015C313.727 90.2321 313.29 90.6687 312.759 90.9603C312.201 91.2601 311.576 91.4121 310.942 91.4017C310.524 91.4211 310.107 91.3469 309.722 91.1845C309.336 91.022 308.992 90.7755 308.713 90.4629V93.8412H307.083V84.3481H308.633V85.2593C308.9 84.9331 309.242 84.6781 309.631 84.517C310.048 84.3489 310.494 84.265 310.944 84.27C311.577 84.2595 312.203 84.4122 312.761 84.7135M312.239 89.4077C312.614 88.9675 312.82 88.4082 312.82 87.83C312.82 87.2518 312.614 86.6925 312.239 86.2522C312.048 86.0543 311.817 85.8986 311.562 85.7953C311.307 85.6919 311.034 85.6432 310.759 85.6523C310.39 85.6468 310.026 85.7386 309.703 85.9185C309.388 86.0976 309.13 86.3628 308.959 86.6833C308.78 87.0388 308.686 87.4316 308.686 87.8298C308.686 88.2281 308.78 88.6208 308.959 88.9764C309.13 89.2964 309.388 89.5611 309.703 89.7395C310.025 89.9212 310.389 90.0141 310.759 90.0087C311.034 90.0174 311.307 89.9685 311.562 89.8652C311.817 89.7619 312.048 89.6064 312.239 89.4088" fill="#1A1818"/>
<path d="M315.79 91.0937C315.687 90.9934 315.606 90.8728 315.553 90.7396C315.499 90.6064 315.473 90.4634 315.477 90.3198C315.473 90.1766 315.497 90.034 315.549 89.9005C315.601 89.7669 315.679 89.6451 315.779 89.5423C315.878 89.4395 315.998 89.3577 316.13 89.3019C316.262 89.2461 316.403 89.2173 316.547 89.2173C316.69 89.2173 316.832 89.2461 316.963 89.3019C317.095 89.3577 317.215 89.4395 317.314 89.5423C317.414 89.6451 317.492 89.7669 317.544 89.9005C317.596 90.034 317.62 90.1766 317.616 90.3198C317.617 90.5319 317.556 90.7398 317.44 90.9171C317.323 91.0944 317.157 91.2333 316.961 91.3161C316.766 91.3989 316.551 91.422 316.342 91.3824C316.134 91.3428 315.942 91.2424 315.79 91.0937Z" fill="#1A1818"/>
</g>
<defs>
<clipPath id="clip0_1281_2408">
<rect width="331.676" height="120" fill="white"/>
</clipPath>
</defs>
</svg>
