<svg width="332" height="120" viewBox="0 0 332 120" fill="none" xmlns="http://www.w3.org/2000/svg">
<g clip-path="url(#clip0_1281_2499)">
<mask id="mask0_1281_2499" style="mask-type:luminance" maskUnits="userSpaceOnUse" x="0" y="0" width="332" height="120">
<path d="M331.677 0H0V120H331.677V0Z" fill="white"/>
</mask>
<g mask="url(#mask0_1281_2499)">
<path d="M310.645 120H21.0337C18.2716 120 15.5366 119.456 12.9847 118.4C10.4328 117.343 8.11404 115.794 6.16086 113.841C4.20768 111.888 2.65831 109.569 1.60123 107.017C0.544142 104.465 4.41802e-05 101.73 0 98.9683L0 21.0317C8.83706e-05 18.2696 0.544217 15.5346 1.60132 12.9829C2.65842 10.4311 4.20778 8.11251 6.16095 6.15953C8.11413 4.20654 10.4328 2.6574 12.9847 1.60054C15.5366 0.543686 18.2717 -0.000176711 21.0337 4.30696e-08H310.645C316.223 4.30696e-08 321.572 2.21583 325.516 6.16004C329.461 10.1043 331.676 15.4538 331.676 21.0317V98.9683C331.676 104.546 329.461 109.896 325.516 113.84C321.572 117.784 316.223 120 310.645 120Z" fill="#D0D5E7"/>
</g>
<path d="M83.7331 43.5868C82.8566 43.1211 82.1256 42.4225 81.6207 41.5679C81.1182 40.6887 80.8539 39.6936 80.8539 38.6809C80.8539 37.6683 81.1182 36.6731 81.6207 35.7939C82.1254 34.9392 82.8565 34.2406 83.7331 33.775C84.6681 33.2974 85.7031 33.0483 86.753 33.0483C87.803 33.0483 88.838 33.2974 89.773 33.775C90.6476 34.2392 91.3782 34.9344 91.8854 35.7849C92.3878 36.6669 92.6521 37.6645 92.6521 38.6796C92.6521 39.6947 92.3878 40.6923 91.8854 41.5743C91.3788 42.4261 90.6481 43.1225 89.773 43.5875C88.838 44.0652 87.803 44.3142 86.753 44.3142C85.7031 44.3142 84.6681 44.0652 83.7331 43.5875M88.7258 42.036C89.304 41.7142 89.7809 41.2373 90.1027 40.6591C90.4313 40.0514 90.6034 39.3714 90.6034 38.6806C90.6034 37.9897 90.4313 37.3098 90.1027 36.7021C89.7809 36.1239 89.304 35.647 88.7258 35.3252C88.1196 34.9999 87.4422 34.8297 86.7542 34.8297C86.0662 34.8297 85.3889 34.9999 84.7826 35.3252C84.2044 35.647 83.7276 36.1239 83.4057 36.7021C83.0771 37.3098 82.905 37.9897 82.905 38.6806C82.905 39.3714 83.0771 40.0514 83.4057 40.6591C83.7275 41.2373 84.2044 41.7142 84.7826 42.036C85.3892 42.3602 86.0664 42.5298 86.7542 42.5298C87.442 42.5298 88.1192 42.3602 88.7258 42.036Z" fill="#593C8F"/>
<path d="M102.693 35.8018L99.1093 44.1576H97.0904L93.5076 35.8018H95.5416L98.1392 41.9964L100.815 35.8018H102.693Z" fill="#593C8F"/>
<path d="M112.206 35.8018V44.1576H110.344V43.0913C110.027 43.47 109.625 43.768 109.17 43.9607C108.691 44.1672 108.174 44.2714 107.652 44.2666C107.173 44.2932 106.693 44.2245 106.24 44.0645C105.788 43.9045 105.371 43.6564 105.015 43.3345C104.376 42.7158 104.054 41.7924 104.054 40.5737V35.8018H106.009V40.3082C105.962 40.9131 106.144 41.5136 106.519 41.9906C106.706 42.1814 106.932 42.3296 107.182 42.4253C107.432 42.521 107.699 42.5619 107.966 42.5452C108.274 42.5598 108.581 42.5095 108.869 42.3974C109.156 42.2854 109.416 42.1141 109.633 41.8947C110.074 41.3759 110.295 40.7054 110.25 40.0259V35.8018H112.206Z" fill="#593C8F"/>
<path d="M116.726 32.5469H114.77V44.1571H116.726V32.5469Z" fill="#593C8F"/>
<path d="M125.4 36.5911C126.052 37.1806 126.378 38.0696 126.379 39.258V44.1558H124.533V43.1386C124.281 43.5129 123.924 43.8043 123.507 43.9765C122.998 44.1822 122.452 44.281 121.904 44.2669C121.339 44.2781 120.779 44.1684 120.261 43.9452C119.821 43.7562 119.443 43.4463 119.172 43.0515C118.916 42.6705 118.783 42.2204 118.79 41.7614C118.778 41.416 118.848 41.0726 118.993 40.759C119.138 40.4453 119.355 40.17 119.626 39.9552C120.184 39.4996 121.064 39.2755 122.263 39.2755H124.422V39.1487C124.438 38.8999 124.399 38.6508 124.309 38.4186C124.218 38.1865 124.078 37.9769 123.897 37.8048C123.455 37.4599 122.9 37.2919 122.341 37.3337C121.871 37.3338 121.403 37.4077 120.956 37.5527C120.537 37.681 120.147 37.8881 119.807 38.1631L119.04 36.7408C119.514 36.3881 120.051 36.1274 120.621 35.9723C121.257 35.7928 121.916 35.7032 122.577 35.7061C123.806 35.7061 124.747 36.0011 125.4 36.5911ZM123.617 42.5057C123.992 42.2903 124.278 41.9491 124.425 41.5427V40.5743H122.406C121.279 40.5743 120.716 40.9445 120.716 41.6847C120.711 41.8497 120.747 42.0134 120.821 42.1611C120.895 42.3088 121.004 42.436 121.139 42.5313C121.486 42.7584 121.898 42.8675 122.312 42.8425C122.77 42.8509 123.221 42.7345 123.618 42.5061" fill="#593C8F"/>
<path d="M133.864 43.7032C133.616 43.8987 133.331 44.0424 133.026 44.1255C132.686 44.2209 132.335 44.2684 131.983 44.2665C131.206 44.3163 130.442 44.0576 129.855 43.5468C129.592 43.2682 129.389 42.938 129.26 42.5772C129.13 42.2163 129.077 41.8325 129.104 41.4501V37.4295H127.728V35.8649H129.105V33.9561H131.061V35.8649H133.299V37.4295H131.061V41.4041C131.038 41.7407 131.144 42.0735 131.359 42.3341C131.471 42.4455 131.606 42.5316 131.754 42.5868C131.903 42.6419 132.061 42.6649 132.219 42.6541C132.613 42.669 133 42.548 133.315 42.3115L133.864 43.7032Z" fill="#593C8F"/>
<path d="M135.568 34.0888C135.454 33.9809 135.363 33.8509 135.301 33.7068C135.24 33.5628 135.208 33.4076 135.208 33.2508C135.208 33.094 135.24 32.9389 135.301 32.7948C135.363 32.6507 135.454 32.5208 135.568 32.4128C135.809 32.1877 136.13 32.0668 136.46 32.0763C136.787 32.066 137.106 32.1804 137.352 32.3963C137.468 32.4959 137.56 32.62 137.622 32.7596C137.685 32.8993 137.715 33.051 137.712 33.2039C137.715 33.3648 137.686 33.5248 137.626 33.674C137.565 33.8232 137.475 33.9584 137.36 34.0713C137.242 34.1888 137.102 34.2807 136.947 34.3414C136.792 34.4021 136.626 34.4303 136.46 34.4243C136.13 34.4337 135.809 34.3129 135.568 34.0878M135.474 35.8005H137.43V44.1563H135.474V35.8005Z" fill="#593C8F"/>
<path d="M141.541 43.7176C140.879 43.3688 140.329 42.8404 139.954 42.193C139.566 41.52 139.369 40.7545 139.382 39.978C139.368 39.2047 139.566 38.4424 139.954 37.7733C140.331 37.1291 140.881 36.6032 141.541 36.2555C142.251 35.8943 143.037 35.7061 143.833 35.7061C144.63 35.7061 145.416 35.8943 146.126 36.2555C146.787 36.6027 147.337 37.1286 147.713 37.7733C148.101 38.4424 148.299 39.2047 148.285 39.978C148.298 40.7545 148.101 41.52 147.713 42.193C147.338 42.8408 146.788 43.3694 146.126 43.7176C145.416 44.0788 144.63 44.267 143.833 44.267C143.037 44.267 142.251 44.0788 141.541 43.7176ZM145.61 41.87C146.064 41.3438 146.314 40.6718 146.314 39.9766C146.314 39.2814 146.064 38.6094 145.61 38.0832C145.378 37.8466 145.1 37.6605 144.793 37.5366C144.486 37.4128 144.157 37.3538 143.826 37.3635C143.496 37.3533 143.168 37.412 142.863 37.5359C142.557 37.6599 142.28 37.8463 142.051 38.0832C141.601 38.6115 141.354 39.2827 141.354 39.9766C141.354 40.6705 141.601 41.3418 142.051 41.87C142.28 42.1073 142.557 42.2939 142.862 42.4179C143.168 42.5419 143.496 42.6004 143.826 42.5897C144.157 42.5999 144.486 42.5411 144.793 42.4172C145.1 42.2933 145.378 42.107 145.61 41.87Z" fill="#593C8F"/>
<path d="M157.531 36.6308C158.168 37.2464 158.486 38.1591 158.486 39.3691V44.1572H156.53V39.6194C156.574 39.0241 156.39 38.4343 156.014 37.9707C155.822 37.7789 155.592 37.6301 155.338 37.5342C155.084 37.4383 154.813 37.3975 154.543 37.4145C154.229 37.3979 153.915 37.447 153.622 37.5587C153.328 37.6703 153.061 37.8421 152.837 38.0629C152.39 38.5796 152.165 39.252 152.211 39.9337V44.1586H150.255V35.8014H152.117V36.8828C152.444 36.4928 152.864 36.191 153.338 36.005C153.866 35.7997 154.429 35.6987 154.996 35.7075C155.459 35.6856 155.921 35.756 156.356 35.9145C156.792 36.073 157.191 36.3165 157.531 36.6308Z" fill="#593C8F"/>
<path d="M167.552 43.5872C166.682 43.1223 165.956 42.4263 165.456 41.5758C164.957 40.6924 164.695 39.6947 164.696 38.6801C164.697 37.6654 164.962 36.6684 165.463 35.7863C165.969 34.9368 166.697 34.2414 167.568 33.7748C168.489 33.2829 169.519 33.0329 170.563 33.048C171.406 33.0379 172.242 33.1981 173.021 33.5191C173.744 33.8207 174.387 34.2869 174.899 34.8805L173.583 36.1167C173.216 35.705 172.765 35.3773 172.261 35.1558C171.756 34.9344 171.21 34.8245 170.658 34.8337C169.954 34.8224 169.259 34.9923 168.64 35.3273C168.057 35.6447 167.575 36.1186 167.247 36.6955C166.919 37.3066 166.748 37.9893 166.748 38.6827C166.748 39.3761 166.919 40.0588 167.247 40.67C167.574 41.2474 168.057 41.7215 168.64 42.0384C169.259 42.3749 169.954 42.5456 170.658 42.5341C171.211 42.5426 171.759 42.4309 172.264 42.2066C172.769 41.9824 173.219 41.6509 173.583 41.2353L174.899 42.4853C174.385 43.0807 173.739 43.547 173.012 43.8467C172.231 44.167 171.393 44.3272 170.549 44.3178C169.504 44.3324 168.473 44.0824 167.551 43.591" fill="#593C8F"/>
<path d="M178.158 43.7176C177.496 43.3688 176.946 42.8404 176.571 42.193C176.183 41.52 175.985 40.7545 175.999 39.978C175.985 39.2047 176.183 38.4424 176.571 37.7733C176.948 37.1291 177.497 36.6032 178.158 36.2555C178.868 35.8943 179.653 35.7061 180.45 35.7061C181.247 35.7061 182.032 35.8943 182.742 36.2555C183.403 36.6027 183.953 37.1286 184.33 37.7733C184.718 38.4424 184.916 39.2047 184.902 39.978C184.915 40.7545 184.718 41.52 184.33 42.193C183.955 42.8408 183.405 43.3694 182.742 43.7176C182.032 44.0788 181.247 44.267 180.45 44.267C179.653 44.267 178.868 44.0788 178.158 43.7176ZM182.226 41.8713C182.681 41.3451 182.93 40.6731 182.93 39.978C182.93 39.2828 182.681 38.6108 182.226 38.0846C181.995 37.848 181.717 37.6618 181.41 37.538C181.103 37.4141 180.774 37.3552 180.443 37.3648C180.113 37.3546 179.785 37.4133 179.479 37.5373C179.174 37.6612 178.897 37.8476 178.668 38.0846C178.218 38.6128 177.971 39.284 177.971 39.978C177.971 40.6719 178.218 41.3431 178.668 41.8713C178.897 42.1086 179.173 42.2953 179.479 42.4192C179.785 42.5432 180.113 42.6017 180.443 42.5911C180.774 42.6012 181.103 42.5425 181.41 42.4186C181.717 42.2947 181.995 42.1083 182.226 41.8713Z" fill="#593C8F"/>
<path d="M194.148 36.6308C194.785 37.2464 195.103 38.1591 195.103 39.3691V44.1572H193.147V39.6195C193.191 39.0241 193.006 38.4343 192.63 37.9707C192.439 37.7789 192.208 37.6301 191.955 37.5342C191.701 37.4383 191.43 37.3975 191.16 37.4145C190.846 37.3979 190.532 37.447 190.238 37.5587C189.945 37.6703 189.677 37.8421 189.454 38.0629C189.007 38.5796 188.782 39.252 188.828 39.9337V44.1586H186.872V35.8014H188.734V36.8829C189.061 36.4928 189.481 36.191 189.955 36.005C190.483 35.7997 191.046 35.6987 191.613 35.7075C192.076 35.6856 192.538 35.7559 192.973 35.9144C193.409 36.073 193.808 36.3165 194.148 36.6308Z" fill="#593C8F"/>
<path d="M199.826 35.3633V35.864H202.126V37.4287H199.889V44.1583H197.933V37.4287H196.556V35.864H197.933V35.332C197.912 34.944 197.971 34.5559 198.105 34.1914C198.24 33.8269 198.447 33.4937 198.715 33.2122C199.272 32.7726 199.947 32.5075 200.654 32.4502C201.361 32.393 202.069 32.5462 202.69 32.8905L202.142 34.3633C201.826 34.1396 201.449 34.0193 201.062 34.0191C200.238 34.0191 199.826 34.4677 199.826 35.365M204.786 34.0908C204.673 33.9828 204.582 33.8528 204.52 33.7088C204.458 33.5647 204.426 33.4096 204.426 33.2528C204.426 33.096 204.458 32.9408 204.52 32.7967C204.582 32.6527 204.673 32.5227 204.786 32.4148C205.028 32.1897 205.348 32.0688 205.678 32.0783C206.006 32.068 206.324 32.1824 206.57 32.3983C206.686 32.4979 206.779 32.6219 206.841 32.7616C206.903 32.9012 206.934 33.053 206.93 33.2058C206.934 33.3667 206.905 33.5267 206.845 33.6759C206.784 33.8251 206.694 33.9604 206.579 34.0733C206.461 34.1907 206.32 34.2826 206.165 34.3433C206.01 34.404 205.845 34.4323 205.678 34.4262C205.348 34.4357 205.028 34.3148 204.786 34.0898M204.692 35.8024H206.648V44.1583H204.692V35.8024Z" fill="#593C8F"/>
<path d="M214.107 35.7061V37.5681C213.958 37.5394 213.806 37.5236 213.654 37.521C213.326 37.5023 212.999 37.5518 212.692 37.6665C212.385 37.7811 212.105 37.9583 211.87 38.1869C211.412 38.7159 211.181 39.4046 211.229 40.1028V44.1554H209.273V35.8016H211.134V37.022C211.697 36.144 212.688 35.7054 214.107 35.7061" fill="#593C8F"/>
<path d="M228.828 36.6221C229.444 37.2341 229.751 38.1498 229.751 39.3692V44.1573H227.796V39.6195C227.839 39.0283 227.667 38.4415 227.31 37.9677C227.134 37.7782 226.917 37.6302 226.676 37.5343C226.435 37.4384 226.176 37.397 225.918 37.4132C225.623 37.4004 225.329 37.4518 225.056 37.5637C224.783 37.6756 224.537 37.8455 224.336 38.0616C223.91 38.5821 223.697 39.2452 223.742 39.9166V44.1563H221.786V39.6195C221.829 39.0283 221.657 38.4415 221.3 37.9677C221.124 37.7782 220.907 37.6302 220.666 37.5343C220.425 37.4384 220.166 37.397 219.908 37.4132C219.613 37.3989 219.318 37.4488 219.044 37.5595C218.77 37.6702 218.523 37.8391 218.321 38.0545C217.896 38.5782 217.686 39.2439 217.733 39.9166V44.1563H215.778V35.8015H217.64V36.8654C217.956 36.4877 218.359 36.1924 218.814 36.0047C219.31 35.8013 219.842 35.7001 220.378 35.7072C220.953 35.6957 221.523 35.8165 222.044 36.0602C222.521 36.287 222.921 36.6484 223.195 37.0999C223.548 36.6547 224.005 36.3031 224.525 36.076C225.092 35.8251 225.705 35.6988 226.325 35.7059C226.782 35.6817 227.24 35.7503 227.67 35.9075C228.1 36.0646 228.494 36.3072 228.829 36.6205" fill="#593C8F"/>
<path d="M240.166 40.6058H233.609C233.707 41.1922 234.03 41.7171 234.51 42.0678C235.037 42.441 235.671 42.631 236.317 42.6085C236.737 42.6214 237.156 42.5474 237.547 42.3911C237.937 42.2348 238.291 41.9995 238.587 41.7L239.636 42.905C239.253 43.3578 238.763 43.7075 238.21 43.9221C237.505 44.1805 236.756 44.2957 236.007 44.261C235.257 44.2263 234.522 44.0425 233.844 43.7203C233.17 43.3768 232.608 42.847 232.226 42.1936C231.839 41.5204 231.641 40.755 231.654 39.9786C231.643 39.21 231.835 38.452 232.21 37.781C232.571 37.1389 233.104 36.6107 233.75 36.2561C234.432 35.8842 235.198 35.6949 235.974 35.7066C236.736 35.6942 237.488 35.8806 238.156 36.2474C238.791 36.6004 239.312 37.1269 239.658 37.7652C240.028 38.4606 240.214 39.2394 240.196 40.027C240.196 40.1616 240.186 40.3547 240.165 40.6061M234.384 37.8278C233.947 38.207 233.666 38.7342 233.593 39.3083H238.335C238.271 38.7404 237.999 38.2164 237.571 37.8376C237.12 37.4745 236.558 37.2758 235.98 37.2742C235.401 37.2726 234.838 37.4682 234.385 37.8288" fill="#593C8F"/>
<path d="M250.454 32.5469V44.1571H248.577V43.0774C248.258 43.4696 247.846 43.7762 247.379 43.9694C246.88 44.1722 246.346 44.2732 245.807 44.2665C245.051 44.2781 244.304 44.0949 243.639 43.7345C243.004 43.3846 242.48 42.8613 242.13 42.2254C241.756 41.5368 241.567 40.7627 241.582 39.9791C241.567 39.1982 241.755 38.4267 242.13 37.7415C242.482 37.1087 243.005 36.5881 243.639 36.2394C244.304 35.879 245.051 35.6958 245.807 35.7074C246.327 35.7011 246.843 35.7968 247.325 35.9891C247.778 36.1726 248.181 36.4624 248.499 36.834V32.5469H250.454ZM247.309 42.2712C247.687 42.0565 247.996 41.7394 248.201 41.3566C248.417 40.9297 248.53 40.458 248.53 39.9796C248.53 39.5011 248.417 39.0294 248.201 38.6025C247.996 38.2196 247.687 37.9022 247.309 37.6863C246.92 37.4763 246.484 37.3664 246.042 37.3664C245.599 37.3664 245.164 37.4763 244.774 37.6863C244.397 37.9022 244.088 38.2196 243.882 38.6025C243.666 39.0294 243.554 39.5011 243.554 39.9796C243.554 40.458 243.666 40.9297 243.882 41.3566C244.088 41.7394 244.397 42.0565 244.774 42.2712C245.163 42.4823 245.599 42.5928 246.042 42.5928C246.485 42.5928 246.92 42.4823 247.309 42.2712Z" fill="#593C8F"/>
<g opacity="0.37">
<mask id="mask1_1281_2499" style="mask-type:luminance" maskUnits="userSpaceOnUse" x="31" y="18" width="27" height="22">
<path d="M57.9453 18.9858H31.6655V39.4943H57.9453V18.9858Z" fill="white"/>
</mask>
<g mask="url(#mask1_1281_2499)">
<path d="M56.0472 20.7297C55.4688 20.1586 54.781 19.71 54.0251 19.411C53.2692 19.112 52.4607 18.9686 51.648 18.9895C50.8317 19.001 50.0257 19.1748 49.2771 19.5007C48.5286 19.8266 47.8523 20.2982 47.2876 20.8879L44.8084 23.4697L42.3117 20.8862C41.7463 20.2979 41.0701 19.8272 40.3222 19.5012C39.5742 19.1751 38.7691 19.0001 37.9533 18.9862C37.1375 18.9724 36.3269 19.1199 35.5683 19.4204C34.8097 19.7208 34.1179 20.1683 33.5328 20.737C32.9477 21.3057 32.4808 21.9845 32.1589 22.7343C31.8371 23.484 31.6666 24.2901 31.6573 25.106C31.648 25.9219 31.8 26.7316 32.1047 27.4885C32.4094 28.2454 32.8607 28.9347 33.4327 29.5166L44.3683 39.3257C44.4904 39.4344 44.6483 39.4943 44.8118 39.4939C44.9757 39.4947 45.134 39.4339 45.2553 39.3236L56.2033 29.4813C56.9093 28.7515 57.4251 27.8594 57.7052 26.8835C57.9853 25.9075 58.0212 24.8777 57.8097 23.8846C57.5541 22.6793 56.9402 21.5793 56.0485 20.7291" fill="#593C8F"/>
</g>
</g>
<path d="M44.8091 45.2072L35.716 37.1088C35.4603 36.8811 35.2519 36.6052 35.1029 36.297C34.9538 35.9887 34.8668 35.6541 34.8471 35.3122C34.8273 34.9704 34.875 34.628 34.9876 34.3046C35.1001 33.9812 35.2753 33.6831 35.503 33.4274C35.7308 33.1717 36.0066 32.9633 36.3149 32.8142C36.6232 32.6651 36.9578 32.5782 37.2996 32.5585C37.6415 32.5387 37.9839 32.5864 38.3073 32.699C38.6307 32.8115 38.9287 32.9867 39.1845 33.2144L44.8003 38.2155L56.207 28.0013C56.7223 27.54 57.3997 27.3023 58.0903 27.3404C58.7808 27.3785 59.4279 27.6895 59.8893 28.2047C60.3506 28.72 60.5883 29.3974 60.5502 30.088C60.512 30.7785 60.2011 31.4257 59.6859 31.887L44.8091 45.2072Z" fill="#593C8F"/>
<path d="M37.777 66.5786V69.8001H36.0818V66.6035L32.4949 60.6714H34.3082L36.9806 65.117L39.6805 60.6714H41.3494L37.777 66.5786Z" fill="#1A1818"/>
<path d="M43.5261 69.435C42.9749 69.1427 42.5166 68.7018 42.203 68.1624C41.8906 67.599 41.7266 66.9654 41.7266 66.3212C41.7266 65.677 41.8906 65.0434 42.203 64.48C42.518 63.9439 42.9761 63.5062 43.5261 63.2162C44.1126 62.9058 44.768 62.7486 45.4316 62.7589C46.0979 62.7475 46.7564 62.9047 47.3458 63.2158C47.8966 63.5053 48.3554 63.9431 48.6705 64.4796C48.983 65.043 49.1469 65.6766 49.1469 66.3209C49.1469 66.9651 48.983 67.5987 48.6705 68.1621C48.3568 68.7019 47.8978 69.1429 47.3458 69.4346C46.7555 69.7448 46.0966 69.9015 45.4299 69.8902C44.7666 69.9003 44.1114 69.7436 43.5244 69.4346M46.9164 67.8959C47.2944 67.4572 47.5024 66.8973 47.5024 66.3182C47.5024 65.739 47.2944 65.1792 46.9164 64.7404C46.7237 64.543 46.492 64.3877 46.2361 64.2845C45.9802 64.1812 45.7057 64.1322 45.4299 64.1405C45.1549 64.1312 44.8809 64.1799 44.6259 64.2832C44.3709 64.3866 44.1404 64.5423 43.9494 64.7404C43.5735 65.1802 43.367 65.7397 43.367 66.3182C43.367 66.8967 43.5735 67.4562 43.9494 67.8959C44.1406 68.0937 44.3712 68.2493 44.6261 68.3526C44.8811 68.4559 45.1549 68.5047 45.4299 68.4959C45.7056 68.5038 45.9801 68.4545 46.2359 68.3513C46.4917 68.248 46.7234 68.093 46.9164 67.8959Z" fill="#1A1818"/>
<path d="M57.454 62.8369V69.8H55.9015V68.9134C55.6383 69.2286 55.3038 69.4766 54.9257 69.6369C54.526 69.8088 54.095 69.8958 53.6599 69.8922C53.2607 69.9141 52.8611 69.8567 52.4842 69.7233C52.1073 69.5899 51.7605 69.3831 51.464 69.115C50.9286 68.5968 50.6608 67.8295 50.6608 66.8131V62.8369H52.2917V66.5924C52.2523 67.0959 52.4031 67.596 52.7144 67.9938C52.8705 68.153 53.059 68.2768 53.2673 68.3565C53.4755 68.4363 53.6985 68.4703 53.921 68.4561C54.1775 68.4688 54.4338 68.4272 54.6732 68.334C54.9125 68.2408 55.1295 68.0982 55.31 67.9154C55.6792 67.483 55.8646 66.9232 55.8265 66.3558V62.8369H57.454Z" fill="#1A1818"/>
<path d="M69.2537 63.5267C69.784 64.0395 70.0495 64.7999 70.0502 65.8077V69.7977H68.4192V66.018C68.4576 65.5213 68.3032 65.0288 67.9882 64.6428C67.8288 64.4826 67.6369 64.3582 67.4255 64.2781C67.2141 64.198 66.988 64.1641 66.7624 64.1785C66.501 64.165 66.2396 64.2063 65.995 64.2997C65.7504 64.3931 65.528 64.5366 65.3421 64.7209C64.9694 65.1502 64.7819 65.7096 64.8206 66.2768V69.7974H63.1913V60.1226H64.8206V63.6432C65.0989 63.3506 65.4402 63.1253 65.8186 62.9843C66.2422 62.8292 66.6905 62.7526 67.1416 62.7582C67.5271 62.7398 67.9124 62.7983 68.2751 62.9302C68.6377 63.0621 68.9702 63.2649 69.2537 63.5267Z" fill="#1A1818"/>
<path d="M77.1347 63.4955C77.6771 63.9858 77.9489 64.7261 77.95 65.7163V69.7984H76.4116V68.9519C76.202 69.2633 75.905 69.5059 75.558 69.649C75.1335 69.8198 74.6786 69.902 74.2212 69.8906C73.751 69.9009 73.2842 69.8091 72.853 69.6214C72.4866 69.465 72.1718 69.2084 71.9445 68.8812C71.7321 68.5627 71.6211 68.1873 71.6262 67.8045C71.6163 67.5161 71.6742 67.2295 71.7953 66.9677C71.9164 66.7059 72.0973 66.4762 72.3234 66.297C72.7875 65.9197 73.52 65.7308 74.521 65.7304H76.3188V65.6261C76.3322 65.4185 76.3 65.2106 76.2244 65.0168C76.1488 64.8231 76.0317 64.6482 75.8813 64.5046C75.5123 64.2182 75.0501 64.0789 74.5842 64.1136C74.1922 64.1137 73.8027 64.1752 73.4297 64.296C73.0807 64.4027 72.7554 64.5757 72.4718 64.8054L71.8325 63.618C72.2275 63.3248 72.6738 63.108 73.1485 62.9787C73.6783 62.8288 74.2267 62.7545 74.7774 62.7579C75.8032 62.7579 76.5883 63.0037 77.1327 63.4951M75.6482 68.4243C75.9602 68.2448 76.198 67.96 76.3191 67.6211V66.8135H74.6367C73.6979 66.8135 73.2285 67.1224 73.2285 67.7402C73.2242 67.8777 73.2542 68.014 73.3159 68.137C73.3775 68.2599 73.4688 68.3656 73.5815 68.4444C73.8703 68.6339 74.2125 68.7254 74.5573 68.7052C74.9388 68.7119 75.3149 68.6151 75.6458 68.4253" fill="#1A1818"/>
<path d="M86.5569 62.8369L83.57 69.8H81.8876L78.9006 62.8369H80.5968L82.7614 68.0005L84.9919 62.8369H86.5569Z" fill="#1A1818"/>
<path d="M94.093 66.8405H88.6306C88.7118 67.329 88.9807 67.7663 89.3799 68.0593C89.8191 68.3699 90.348 68.5281 90.8857 68.5095C91.2362 68.5205 91.5853 68.4589 91.9109 68.3284C92.2364 68.1979 92.5314 68.0015 92.7774 67.7514L93.6502 68.7581C93.3318 69.1348 92.9241 69.4259 92.4644 69.6047C91.9486 69.802 91.3999 69.8994 90.8477 69.8917C90.1465 69.9062 89.4524 69.7492 88.8257 69.4345C88.2633 69.1491 87.7949 68.7079 87.4765 68.1636C87.1539 67.6025 86.9892 66.9645 87 66.3173C86.9907 65.6768 87.1509 65.0452 87.4644 64.4865C87.7642 63.9508 88.2088 63.5103 88.7474 63.2156C89.3142 62.9055 89.9519 62.7479 90.598 62.7584C91.2336 62.7474 91.8611 62.9026 92.4183 63.2086C92.9472 63.5027 93.3809 63.9419 93.6684 64.4744C93.9778 65.0534 94.1328 65.7024 94.1186 66.3587C94.1186 66.4718 94.1098 66.6333 94.0927 66.8419M89.2743 64.5249C88.9097 64.84 88.6749 65.2792 88.6154 65.7574H92.5684C92.5156 65.278 92.2829 64.8365 91.9174 64.5219C91.5518 64.2073 91.0806 64.043 90.5987 64.0622C90.1159 64.0491 89.645 64.2137 89.2756 64.5249" fill="#1A1818"/>
<path d="M99.7785 69.6694C99.3197 69.5577 98.8834 69.3683 98.4885 69.1095L99.1143 67.8699C99.4614 68.0949 99.8415 68.2644 100.241 68.3723C100.663 68.4949 101.1 68.5581 101.54 68.56C102.513 68.56 103 68.3039 103 67.7915C103.003 67.6776 102.968 67.566 102.901 67.474C102.833 67.3821 102.737 67.3152 102.628 67.2838C102.24 67.1541 101.841 67.062 101.435 67.0089C100.961 66.9429 100.492 66.843 100.032 66.7097C99.6727 66.5963 99.3492 66.3914 99.0931 66.1152C98.8123 65.7883 98.6696 65.365 98.6951 64.9348C98.6887 64.6223 98.7613 64.3133 98.9063 64.0364C99.0513 63.7595 99.264 63.5237 99.5245 63.351C100.189 62.9241 100.971 62.7167 101.76 62.7581C102.243 62.7592 102.724 62.8141 103.195 62.9217C103.606 63.0064 104.002 63.154 104.368 63.3591L103.743 64.5987C103.138 64.2466 102.448 64.0657 101.748 64.0754C101.372 64.0539 100.997 64.1281 100.658 64.2911C100.55 64.3419 100.457 64.4217 100.392 64.5217C100.326 64.6218 100.289 64.7381 100.286 64.8578C100.283 64.9811 100.32 65.102 100.392 65.2024C100.464 65.3028 100.566 65.3771 100.684 65.4143C101.084 65.5568 101.497 65.6592 101.917 65.7202C102.38 65.7855 102.838 65.8855 103.287 66.0193C103.637 66.1285 103.953 66.326 104.205 66.593C104.479 66.9104 104.618 67.3232 104.591 67.7421C104.595 68.0535 104.52 68.361 104.371 68.6347C104.222 68.9085 104.006 69.1393 103.742 69.305C103.051 69.7318 102.246 69.9369 101.435 69.8928C100.875 69.8935 100.318 69.8187 99.7779 69.6704" fill="#1A1818"/>
<path d="M112.74 62.8369V69.8H111.187V68.9134C110.924 69.2286 110.59 69.4766 110.211 69.6369C109.812 69.8088 109.381 69.8958 108.946 69.8922C108.546 69.9141 108.147 69.8567 107.77 69.7233C107.393 69.5899 107.046 69.3831 106.75 69.115C106.214 68.5968 105.947 67.8295 105.947 66.8131V62.8369H107.577V66.5924C107.538 67.0959 107.689 67.596 108 67.9938C108.156 68.153 108.345 68.2768 108.553 68.3565C108.761 68.4363 108.984 68.4703 109.207 68.4561C109.463 68.4688 109.72 68.4272 109.959 68.334C110.198 68.2408 110.415 68.0982 110.596 67.9154C110.965 67.483 111.15 66.9232 111.112 66.3558V62.8369H112.74Z" fill="#1A1818"/>
<path d="M116.13 69.4347C115.572 69.1452 115.107 68.7048 114.788 68.1638C114.46 67.6043 114.293 66.9656 114.304 66.3176C114.293 65.6721 114.46 65.036 114.788 64.4797C115.107 63.9429 115.57 63.5053 116.123 63.2156C116.725 62.9024 117.396 62.7452 118.075 62.7583C118.702 62.7442 119.322 62.8876 119.879 63.1755C120.386 63.4418 120.795 63.8617 121.047 64.3751L119.794 65.1052C119.614 64.8015 119.355 64.5517 119.045 64.3821C118.742 64.2199 118.404 64.1368 118.061 64.1405C117.781 64.1314 117.503 64.1792 117.242 64.2811C116.982 64.3831 116.745 64.537 116.546 64.7334C116.161 65.171 115.948 65.7337 115.947 66.3167C115.945 66.8998 116.156 67.4634 116.539 67.9027C116.87 68.2119 117.287 68.4116 117.736 68.4745C118.184 68.5374 118.64 68.4604 119.043 68.254C119.353 68.0849 119.612 67.8351 119.792 67.5309L121.046 68.2611C120.784 68.7735 120.372 69.1943 119.865 69.4677C119.314 69.7589 118.697 69.905 118.073 69.892C117.397 69.9026 116.729 69.7455 116.129 69.4347" fill="#1A1818"/>
<path d="M123.705 69.4349C123.147 69.1453 122.682 68.705 122.363 68.164C122.036 67.6044 121.869 66.9658 121.88 66.3177C121.868 65.6723 122.035 65.0362 122.363 64.4799C122.682 63.9432 123.145 63.5057 123.698 63.216C124.3 62.9029 124.971 62.7457 125.65 62.7588C126.276 62.7447 126.897 62.8881 127.454 63.176C127.961 63.4423 128.37 63.8622 128.622 64.3755L127.369 65.1057C127.188 64.802 126.93 64.5522 126.62 64.3826C126.317 64.2204 125.979 64.1373 125.635 64.141C125.356 64.1318 125.078 64.1797 124.817 64.2816C124.557 64.3835 124.32 64.5374 124.121 64.7339C123.736 65.1715 123.523 65.7342 123.521 66.3172C123.52 66.9003 123.731 67.4639 124.114 67.9032C124.445 68.2124 124.862 68.4121 125.31 68.475C125.759 68.5378 126.215 68.4608 126.618 68.2545C126.928 68.0854 127.187 67.8356 127.367 67.5314L128.621 68.2616C128.358 68.774 127.947 69.1948 127.44 69.4682C126.888 69.7594 126.272 69.9054 125.648 69.8925C124.972 69.9031 124.304 69.746 123.704 69.4352" fill="#1A1818"/>
<path d="M136.548 66.8405H131.086C131.167 67.329 131.436 67.7663 131.835 68.0593C132.274 68.3699 132.803 68.5281 133.341 68.5095C133.691 68.5205 134.04 68.4589 134.366 68.3284C134.691 68.1979 134.987 68.0015 135.232 67.7514L136.105 68.7581C135.787 69.1348 135.379 69.4259 134.92 69.6047C134.404 69.802 133.855 69.8994 133.303 69.8917C132.602 69.9062 131.908 69.7492 131.281 69.4345C130.718 69.1491 130.25 68.7079 129.932 68.1636C129.609 67.6025 129.444 66.9645 129.455 66.3173C129.446 65.6768 129.606 65.0452 129.919 64.4865C130.219 63.9508 130.664 63.5103 131.202 63.2156C131.769 62.9055 132.407 62.7479 133.053 62.7584C133.689 62.7474 134.316 62.9026 134.873 63.2086C135.402 63.5027 135.836 63.9419 136.123 64.4744C136.433 65.0534 136.588 65.7024 136.574 66.3587C136.574 66.4718 136.565 66.6333 136.548 66.8419M131.73 64.5262C131.365 64.8414 131.131 65.2805 131.071 65.7588H135.024C134.971 65.2794 134.738 64.8379 134.372 64.5233C134.007 64.2087 133.536 64.0444 133.054 64.0636C132.571 64.0504 132.1 64.2151 131.731 64.5262" fill="#1A1818"/>
<path d="M138.635 69.6694C138.176 69.5576 137.74 69.3682 137.346 69.1095L137.971 67.8699C138.319 68.0949 138.699 68.2644 139.098 68.3723C139.52 68.4949 139.957 68.5581 140.397 68.56C141.37 68.56 141.857 68.3039 141.857 67.7915C141.86 67.6776 141.825 67.566 141.758 67.474C141.69 67.3821 141.594 67.3152 141.485 67.2838C141.097 67.1541 140.698 67.062 140.292 67.0089C139.818 66.9429 139.349 66.843 138.889 66.7097C138.53 66.5963 138.206 66.3914 137.95 66.1152C137.669 65.7883 137.527 65.365 137.552 64.9348C137.546 64.6223 137.618 64.3133 137.763 64.0364C137.908 63.7595 138.121 63.5237 138.382 63.351C139.046 62.9241 139.829 62.7167 140.618 62.7581C141.1 62.7592 141.581 62.8141 142.052 62.9217C142.463 63.0065 142.859 63.154 143.226 63.3591L142.6 64.5987C141.995 64.2466 141.305 64.0657 140.605 64.0754C140.23 64.0539 139.854 64.1281 139.515 64.2911C139.407 64.3419 139.315 64.4217 139.249 64.5217C139.183 64.6218 139.147 64.7381 139.143 64.8578C139.14 64.9811 139.178 65.102 139.249 65.2024C139.321 65.3028 139.423 65.3771 139.541 65.4143C139.941 65.5568 140.354 65.6592 140.774 65.7202C141.237 65.7855 141.695 65.8855 142.144 66.0193C142.494 66.1285 142.81 66.326 143.062 66.593C143.336 66.9104 143.475 67.3232 143.448 67.7421C143.452 68.0535 143.377 68.361 143.228 68.6347C143.079 68.9085 142.863 69.1393 142.599 69.305C141.908 69.7318 141.103 69.9369 140.292 69.8928C139.732 69.8935 139.175 69.8187 138.635 69.6704" fill="#1A1818"/>
<path d="M145.351 69.6691C144.892 69.5574 144.456 69.368 144.061 69.1092L144.687 67.8696C145.034 68.0946 145.414 68.2641 145.813 68.372C146.235 68.4946 146.672 68.5578 147.112 68.5598C148.085 68.5598 148.572 68.3036 148.572 67.7912C148.575 67.6773 148.54 67.5657 148.473 67.4737C148.406 67.3818 148.31 67.3149 148.2 67.2835C147.812 67.1538 147.413 67.0617 147.007 67.0086C146.533 66.9426 146.064 66.8427 145.604 66.7094C145.245 66.596 144.921 66.3911 144.665 66.1149C144.384 65.788 144.242 65.3647 144.267 64.9345C144.261 64.6219 144.333 64.3127 144.479 64.0356C144.624 63.7586 144.836 63.5228 145.097 63.35C145.762 62.9231 146.544 62.7157 147.333 62.7571C147.816 62.7583 148.297 62.8131 148.767 62.9207C149.179 63.0055 149.575 63.153 149.941 63.3581L149.315 64.5977C148.71 64.2456 148.021 64.0647 147.321 64.0745C146.945 64.0529 146.57 64.1272 146.231 64.2902C146.122 64.3409 146.03 64.4207 145.964 64.5208C145.899 64.6208 145.862 64.7371 145.858 64.8568C145.856 64.9801 145.893 65.1011 145.965 65.2014C146.036 65.3018 146.139 65.3761 146.257 65.4133C146.656 65.5558 147.069 65.6583 147.489 65.7192C147.953 65.7845 148.411 65.8845 148.859 66.0183C149.209 66.1275 149.526 66.3251 149.777 66.592C150.052 66.9093 150.191 67.3221 150.164 67.7411C150.169 68.0525 150.094 68.3599 149.945 68.6337C149.796 68.9074 149.58 69.1383 149.316 69.304C148.625 69.7308 147.82 69.936 147.009 69.8919C146.449 69.8925 145.892 69.8177 145.352 69.6695" fill="#1A1818"/>
<path d="M153.369 62.4714V62.8887H155.287V64.1925H153.422V69.8007H151.792V64.1929H150.645V62.889H151.792V62.4438C151.774 62.1208 151.823 61.7974 151.935 61.4939C152.047 61.1904 152.22 60.9132 152.444 60.6793C152.692 60.4541 152.982 60.2809 153.297 60.1701C153.613 60.0593 153.948 60.0131 154.282 60.0343C154.8 60.0055 155.315 60.1366 155.756 60.4098L155.299 61.6373C155.037 61.4507 154.723 61.3498 154.4 61.3486C153.714 61.3486 153.37 61.723 153.369 62.4718" fill="#1A1818"/>
<path d="M163.123 62.8369V69.8H161.57V68.9134C161.307 69.2286 160.972 69.4766 160.594 69.6369C160.195 69.8088 159.764 69.8958 159.329 69.8922C158.929 69.9141 158.53 69.8567 158.153 69.7233C157.776 69.5899 157.429 69.3831 157.133 69.115C156.597 68.5968 156.329 67.8295 156.329 66.8131V62.8369H157.96V66.5924C157.921 67.0959 158.072 67.596 158.383 67.9938C158.539 68.153 158.728 68.2768 158.936 68.3565C159.144 68.4363 159.367 68.4703 159.59 68.4561C159.846 68.4688 160.102 68.4272 160.342 68.334C160.581 68.2408 160.798 68.0982 160.979 67.9154C161.348 67.483 161.533 66.9232 161.495 66.3558V62.8369H163.123Z" fill="#1A1818"/>
<path d="M166.89 60.1226H165.261V69.7977H166.89V60.1226Z" fill="#1A1818"/>
<path d="M170.659 60.1226H169.031V69.7977H170.659V60.1226Z" fill="#1A1818"/>
<path d="M179.317 62.8368L176.058 70.3598C175.846 70.9867 175.461 71.5408 174.947 71.9577C174.484 72.276 173.932 72.4386 173.37 72.4221C173.02 72.4205 172.672 72.363 172.339 72.2518C172.031 72.1558 171.747 71.9952 171.505 71.7807L172.157 70.5812C172.319 70.7316 172.507 70.8507 172.712 70.9325C172.916 71.0177 173.135 71.062 173.357 71.0627C173.612 71.0726 173.863 70.9941 174.068 70.8403C174.294 70.6369 174.471 70.3835 174.582 70.1L174.7 69.8255L171.661 62.8364H173.356L175.547 67.9846L177.751 62.8364L179.317 62.8368Z" fill="#1A1818"/>
<path d="M185.159 69.4349C184.608 69.1435 184.149 68.7024 183.836 68.1623C183.524 67.5989 183.36 66.9653 183.36 66.3211C183.36 65.6768 183.524 65.0432 183.836 64.4799C184.15 63.943 184.609 63.5051 185.159 63.216C185.752 62.9154 186.406 62.7588 187.07 62.7588C187.734 62.7588 188.389 62.9154 188.981 63.216C189.531 63.5061 189.989 63.9438 190.304 64.4799C190.616 65.0432 190.78 65.6768 190.78 66.3211C190.78 66.9653 190.616 67.5989 190.304 68.1623C189.99 68.7017 189.532 69.1425 188.981 69.4349C188.388 69.7343 187.734 69.8903 187.07 69.8903C186.406 69.8903 185.752 69.7343 185.159 69.4349ZM188.55 67.8961C188.928 67.4574 189.136 66.8975 189.136 66.3184C189.136 65.7393 188.928 65.1794 188.55 64.7406C188.357 64.5431 188.125 64.3877 187.87 64.2845C187.614 64.1812 187.339 64.1322 187.063 64.1407C186.788 64.1316 186.514 64.1803 186.259 64.2837C186.004 64.387 185.774 64.5427 185.583 64.7406C185.208 65.1809 185.002 65.7402 185.002 66.3184C185.002 66.8966 185.208 67.4559 185.583 67.8961C185.774 68.0938 186.005 68.2492 186.26 68.3525C186.515 68.4559 186.788 68.5047 187.063 68.4961C187.339 68.5041 187.613 68.455 187.869 68.3517C188.125 68.2485 188.357 68.0934 188.55 67.8961Z" fill="#1A1818"/>
<path d="M198.864 62.8369L195.877 69.8H194.195L191.208 62.8369H192.903L195.067 68.0005L197.298 62.8369H198.864Z" fill="#1A1818"/>
<path d="M206.622 62.8369V69.8H205.07V68.9134C204.807 69.2286 204.472 69.4766 204.094 69.6369C203.694 69.8088 203.263 69.8958 202.828 69.8922C202.429 69.9141 202.03 69.8567 201.653 69.7233C201.276 69.5899 200.929 69.3831 200.632 69.115C200.097 68.5968 199.829 67.8295 199.829 66.8131V62.8369H201.46V66.5924C201.421 67.0959 201.572 67.596 201.883 67.9938C202.039 68.153 202.228 68.2768 202.436 68.3565C202.644 68.4363 202.867 68.4703 203.089 68.4561C203.346 68.4688 203.602 68.4272 203.842 68.334C204.081 68.2408 204.298 68.0982 204.478 67.9154C204.848 67.4829 205.033 66.9232 204.995 66.3558V62.8369H206.622Z" fill="#1A1818"/>
<path d="M210.39 60.1226H208.761V69.7977H210.39V60.1226Z" fill="#1A1818"/>
<path d="M217.543 63.4955C218.085 63.9858 218.357 64.7261 218.358 65.7163V69.7984H216.819V68.9519C216.61 69.2633 216.313 69.5059 215.966 69.649C215.541 69.8198 215.086 69.902 214.629 69.8906C214.159 69.9009 213.692 69.8091 213.261 69.6214C212.894 69.465 212.579 69.2084 212.352 68.8812C212.14 68.5627 212.029 68.1873 212.034 67.8045C212.024 67.5161 212.082 67.2295 212.203 66.9677C212.324 66.7059 212.505 66.4762 212.731 66.297C213.195 65.9197 213.928 65.7308 214.928 65.7304H216.726V65.6261C216.74 65.4185 216.707 65.2106 216.632 65.0168C216.556 64.8231 216.439 64.6482 216.289 64.5046C215.92 64.2182 215.458 64.0789 214.992 64.1136C214.6 64.1137 214.21 64.1752 213.837 64.296C213.488 64.4027 213.163 64.5757 212.879 64.8054L212.24 63.618C212.635 63.3248 213.081 63.108 213.556 62.9787C214.086 62.8288 214.634 62.7545 215.185 62.7579C216.211 62.7579 216.996 63.0037 217.541 63.4951M216.054 68.4239C216.366 68.2444 216.604 67.9597 216.725 67.6207V66.8132H215.043C214.104 66.8132 213.634 67.1221 213.634 67.7399C213.63 67.8773 213.66 68.0137 213.722 68.1367C213.783 68.2596 213.875 68.3653 213.987 68.4441C214.276 68.6336 214.618 68.725 214.963 68.7049C215.345 68.7115 215.721 68.6148 216.052 68.4249" fill="#1A1818"/>
<path d="M224.629 69.4208C224.423 69.5849 224.186 69.7051 223.932 69.7738C223.65 69.8535 223.358 69.8933 223.065 69.8922C222.417 69.9332 221.78 69.717 221.291 69.2906C221.072 69.0585 220.903 68.7834 220.795 68.4826C220.687 68.1818 220.643 67.862 220.666 67.5433V64.1916H219.518V62.8877H220.666V61.2979H222.296V62.8887H224.16V64.1916H222.296V67.5019C222.277 67.783 222.365 68.0611 222.543 68.2791C222.637 68.3721 222.749 68.4441 222.873 68.4905C222.996 68.5369 223.128 68.5566 223.26 68.5483C223.588 68.5596 223.91 68.4583 224.173 68.2613L224.629 69.4208Z" fill="#1A1818"/>
<path d="M232.491 66.8405H227.029C227.11 67.329 227.379 67.7663 227.778 68.0593C228.217 68.3699 228.746 68.5281 229.284 68.5095C229.634 68.5205 229.983 68.4588 230.309 68.3284C230.634 68.1979 230.93 68.0014 231.175 67.7514L232.048 68.7581C231.73 69.1348 231.322 69.4259 230.863 69.6047C230.347 69.802 229.798 69.8994 229.246 69.8917C228.545 69.9062 227.851 69.7492 227.224 69.4345C226.661 69.1491 226.193 68.7079 225.875 68.1636C225.552 67.6025 225.387 66.9645 225.398 66.3173C225.389 65.6768 225.549 65.0452 225.862 64.4865C226.162 63.9508 226.607 63.5103 227.145 63.2156C227.712 62.9055 228.35 62.7479 228.996 62.7584C229.632 62.7474 230.259 62.9026 230.816 63.2086C231.345 63.5027 231.779 63.9419 232.066 64.4744C232.376 65.0534 232.531 65.7024 232.517 66.3587C232.517 66.4718 232.508 66.6333 232.491 66.8419M227.673 64.5262C227.308 64.8414 227.074 65.2805 227.014 65.7588H230.966C230.913 65.2794 230.681 64.8379 230.315 64.5233C229.95 64.2087 229.478 64.0444 228.996 64.0636C228.514 64.0505 228.043 64.2151 227.673 64.5262" fill="#1A1818"/>
<path d="M240.902 60.1226V69.7977H239.338V68.899C239.073 69.2262 238.729 69.4814 238.34 69.6413C237.923 69.8108 237.477 69.8953 237.028 69.8899C236.398 69.8997 235.776 69.747 235.223 69.4464C234.693 69.1554 234.257 68.7195 233.966 68.1897C233.653 67.6151 233.496 66.9693 233.508 66.3155C233.496 65.665 233.653 65.0225 233.966 64.4517C234.259 63.9242 234.695 63.4903 235.224 63.2C235.778 62.9 236.399 62.7479 237.029 62.7582C237.462 62.7524 237.892 62.8315 238.295 62.9911C238.672 63.1445 239.007 63.3869 239.27 63.6977V60.1226H240.902ZM238.281 68.228C238.595 68.0481 238.853 67.7838 239.025 67.4649C239.204 67.109 239.298 66.716 239.298 66.3175C239.298 65.919 239.204 65.526 239.025 65.1701C238.853 64.8509 238.595 64.5864 238.281 64.407C237.956 64.2312 237.593 64.1392 237.224 64.1392C236.855 64.1392 236.492 64.2312 236.168 64.407C235.854 64.5865 235.597 64.851 235.426 65.1701C235.245 65.5256 235.151 65.9188 235.151 66.3175C235.151 66.7163 235.245 67.1094 235.426 67.4649C235.597 67.7836 235.854 68.048 236.168 68.228C236.493 68.4027 236.856 68.494 237.224 68.494C237.593 68.494 237.956 68.4027 238.281 68.228Z" fill="#1A1818"/>
<path d="M250.825 69.4208C250.619 69.5849 250.381 69.7051 250.127 69.7738C249.845 69.8535 249.553 69.8933 249.26 69.8922C248.613 69.9332 247.975 69.717 247.487 69.2906C247.267 69.0585 247.098 68.7834 246.99 68.4826C246.883 68.1818 246.839 67.862 246.861 67.5433V64.1916H245.713V62.8877H246.861V61.2979H248.492V62.8887H250.356V64.1916H248.492V67.5019C248.472 67.783 248.56 68.0611 248.739 68.2791C248.832 68.3721 248.945 68.4441 249.068 68.4905C249.192 68.5369 249.323 68.5566 249.455 68.5483C249.783 68.5596 250.105 68.4583 250.368 68.2613L250.825 69.4208Z" fill="#1A1818"/>
<path d="M258.233 63.5267C258.761 64.0395 259.026 64.7999 259.027 65.8077V69.7977H257.398V66.018C257.436 65.5213 257.282 65.0288 256.967 64.6428C256.808 64.4827 256.616 64.3584 256.404 64.2783C256.193 64.1983 255.967 64.1642 255.741 64.1785C255.48 64.165 255.218 64.2063 254.974 64.2997C254.729 64.3931 254.507 64.5366 254.321 64.7209C253.948 65.1502 253.761 65.7096 253.799 66.2768V69.7974H252.171V60.1226H253.799V63.6432C254.077 63.3502 254.419 63.1248 254.797 62.9843C255.221 62.8292 255.669 62.7526 256.12 62.7582C256.506 62.7399 256.891 62.7985 257.254 62.9304C257.616 63.0623 257.949 63.265 258.233 63.5267Z" fill="#1A1818"/>
<path d="M261.18 61.4094C261.085 61.3197 261.009 61.2115 260.957 61.0914C260.906 60.9714 260.879 60.8421 260.879 60.7114C260.879 60.5807 260.906 60.4514 260.957 60.3313C261.009 60.2113 261.085 60.1031 261.18 60.0134C261.38 59.8257 261.647 59.7251 261.922 59.7334C262.195 59.7251 262.46 59.8202 262.666 59.9996C262.762 60.0828 262.839 60.1863 262.891 60.3026C262.942 60.4189 262.968 60.5453 262.965 60.6725C262.968 60.8067 262.944 60.9402 262.893 61.0646C262.843 61.1889 262.767 61.3016 262.671 61.3956C262.573 61.493 262.456 61.5693 262.327 61.6198C262.198 61.6703 262.06 61.694 261.922 61.6894C261.647 61.6969 261.381 61.5964 261.18 61.4094ZM261.101 62.8368H262.73V69.7999H261.101V62.8368Z" fill="#1A1818"/>
<path d="M265.365 69.6694C264.906 69.5577 264.469 69.3683 264.074 69.1095L264.7 67.8699C265.047 68.0949 265.428 68.2644 265.827 68.3723C266.249 68.4949 266.686 68.5581 267.126 68.56C268.099 68.56 268.586 68.3039 268.586 67.7915C268.589 67.6776 268.554 67.566 268.487 67.474C268.419 67.3821 268.323 67.3152 268.214 67.2838C267.826 67.1541 267.427 67.062 267.021 67.0089C266.547 66.9429 266.078 66.843 265.618 66.7097C265.259 66.5963 264.935 66.3914 264.679 66.1152C264.398 65.7883 264.256 65.365 264.281 64.9348C264.275 64.6223 264.347 64.3133 264.492 64.0364C264.637 63.7595 264.85 63.5237 265.11 63.351C265.775 62.9241 266.557 62.7167 267.346 62.7581C267.829 62.7592 268.31 62.8141 268.781 62.9217C269.192 63.0064 269.588 63.154 269.954 63.3591L269.329 64.5987C268.724 64.2466 268.034 64.0658 267.335 64.0754C266.959 64.0539 266.584 64.1281 266.244 64.2911C266.136 64.3419 266.044 64.4217 265.978 64.5217C265.912 64.6218 265.876 64.7381 265.872 64.8578C265.869 64.9811 265.907 65.102 265.979 65.2024C266.05 65.3028 266.153 65.3771 266.27 65.4143C266.67 65.5568 267.083 65.6592 267.503 65.7202C267.966 65.7855 268.424 65.8855 268.873 66.0193C269.223 66.1285 269.539 66.326 269.791 66.593C270.066 66.9104 270.204 67.3232 270.177 67.7421C270.182 68.0535 270.106 68.361 269.957 68.6347C269.809 68.9085 269.592 69.1393 269.328 69.305C268.637 69.7318 267.832 69.9369 267.021 69.8928C266.461 69.8935 265.904 69.8187 265.364 69.6704" fill="#1A1818"/>
<path d="M34.9338 85.0817C34.3761 84.7921 33.9111 84.3518 33.5915 83.8108C33.2645 83.2512 33.0973 82.6126 33.1083 81.9645C33.0968 81.3191 33.264 80.683 33.5915 80.1267C33.9111 79.5899 34.3733 79.1523 34.9267 78.8625C35.5288 78.5494 36.1998 78.3922 36.8783 78.4052C37.5052 78.3912 38.1257 78.5346 38.6828 78.8225C39.1893 79.0887 39.5983 79.5087 39.8511 80.022L38.5977 80.7522C38.4171 80.4484 38.1583 80.1987 37.8483 80.0291C37.5459 79.8669 37.2073 79.7838 36.8641 79.7875C36.5847 79.7783 36.3064 79.8262 36.046 79.9281C35.7857 80.03 35.5489 80.1839 35.35 80.3804C34.9646 80.8179 34.7515 81.3806 34.7502 81.9637C34.7489 82.5468 34.9595 83.1104 35.3429 83.5497C35.6733 83.8589 36.0911 84.0586 36.5392 84.1215C36.9873 84.1843 37.4439 84.1073 37.8467 83.901C38.157 83.7319 38.416 83.482 38.596 83.1779L39.8494 83.908C39.5872 84.4205 39.1756 84.8412 38.669 85.1147C38.1172 85.4059 37.5004 85.5519 36.8766 85.539C36.2008 85.5496 35.5329 85.3925 34.9327 85.0817" fill="#1A1818"/>
<path d="M47.7775 78.4842L44.5177 86.0073C44.3061 86.6342 43.921 87.1882 43.4073 87.6052C42.9443 87.9234 42.3921 88.086 41.8305 88.0695C41.48 88.068 41.132 88.0105 40.7996 87.8993C40.4911 87.8032 40.2067 87.6427 39.9651 87.4282L40.6172 86.2287C40.7787 86.3791 40.9667 86.4982 41.1717 86.5799C41.3761 86.6652 41.5953 86.7094 41.8167 86.7102C42.0723 86.7201 42.3234 86.6415 42.5277 86.4878C42.7545 86.2844 42.9306 86.0309 43.0422 85.7475L43.1603 85.4729L40.1212 78.4839H41.8164L44.0069 83.632L46.2115 78.4839L47.7775 78.4842Z" fill="#1A1818"/>
<path d="M50.0458 85.0818C49.4881 84.7923 49.0231 84.352 48.7035 83.811C48.3764 83.2514 48.2093 82.6128 48.2203 81.9647C48.2088 81.3192 48.376 80.6832 48.7035 80.1268C49.0232 79.5901 49.4855 79.1526 50.039 78.863C50.6411 78.5499 51.3121 78.3927 51.9906 78.4057C52.6176 78.3916 53.238 78.5351 53.7952 78.823C54.3016 79.0892 54.7107 79.5092 54.9634 80.0225L53.71 80.7527C53.5295 80.4489 53.2707 80.1992 52.9607 80.0296C52.6582 79.8674 52.3197 79.7843 51.9765 79.788C51.6971 79.7788 51.4187 79.8267 51.1584 79.9286C50.8981 80.0305 50.6612 80.1844 50.4623 80.3809C50.077 80.8184 49.8638 81.3811 49.8625 81.9642C49.8612 82.5473 50.0719 83.1109 50.4552 83.5502C50.7856 83.8594 51.2034 84.0591 51.6515 84.1219C52.0997 84.1848 52.5563 84.1078 52.959 83.9015C53.2694 83.7324 53.5283 83.4825 53.7083 83.1784L54.9617 83.9085C54.6995 84.421 54.2879 84.8417 53.7814 85.1152C53.2296 85.4064 52.6127 85.5524 51.9889 85.5395C51.3131 85.5501 50.6452 85.393 50.0451 85.0822" fill="#1A1818"/>
<path d="M58.0001 75.77H56.3709V85.4452H58.0001V75.77Z" fill="#1A1818"/>
<path d="M66.6578 82.488H61.1953C61.2766 82.9764 61.5455 83.4138 61.9447 83.7067C62.3839 84.0174 62.9128 84.1755 63.4504 84.1569C63.801 84.1679 64.15 84.1063 64.4756 83.9758C64.8012 83.8453 65.0962 83.6489 65.3421 83.3988L66.215 84.4056C65.8965 84.7823 65.4889 85.0733 65.0292 85.2522C64.5133 85.4495 63.9647 85.5469 63.4124 85.5392C62.7113 85.5537 62.0172 85.3967 61.3905 85.0819C60.8281 84.7966 60.3597 84.3554 60.0412 83.811C59.7186 83.2499 59.554 82.6119 59.5648 81.9648C59.5555 81.3242 59.7157 80.6926 60.0291 80.134C60.3289 79.5982 60.7736 79.1578 61.3121 78.8631C61.879 78.5529 62.5167 78.3953 63.1627 78.4058C63.7984 78.3949 64.4258 78.5501 64.9831 78.856C65.512 79.1501 65.9457 79.5894 66.2331 80.1219C66.5425 80.7009 66.6975 81.3498 66.6833 82.0062C66.6833 82.1192 66.6746 82.2807 66.6571 82.4893M61.8394 80.1737C61.4748 80.4888 61.24 80.928 61.1805 81.4062H65.1332C65.0803 80.9268 64.8477 80.4853 64.4821 80.1707C64.1166 79.8561 63.6453 79.6919 63.1634 79.711C62.6806 79.6979 62.2098 79.8625 61.8404 80.1737" fill="#1A1818"/>
<path d="M68.0141 85.2314C67.9112 85.1311 67.8303 85.0105 67.7764 84.8773C67.7225 84.7441 67.6969 84.6011 67.7012 84.4575C67.6968 84.3143 67.7212 84.1717 67.7729 84.0382C67.8247 83.9046 67.9027 83.7828 68.0025 83.68C68.1022 83.5772 68.2215 83.4954 68.3534 83.4396C68.4853 83.3837 68.6271 83.355 68.7704 83.355C68.9136 83.355 69.0554 83.3837 69.1873 83.4396C69.3192 83.4954 69.4385 83.5772 69.5383 83.68C69.638 83.7828 69.716 83.9046 69.7678 84.0382C69.8195 84.1717 69.8439 84.3143 69.8395 84.4575C69.8411 84.6696 69.7798 84.8775 69.6633 85.0548C69.5469 85.2321 69.3805 85.371 69.1852 85.4538C68.9898 85.5366 68.7744 85.5597 68.5659 85.5201C68.3575 85.4805 68.1655 85.38 68.0141 85.2314Z" fill="#1A1818"/>
</g>
<defs>
<clipPath id="clip0_1281_2499">
<rect width="331.677" height="120" fill="white"/>
</clipPath>
</defs>
</svg>
