<svg width="332" height="120" viewBox="0 0 332 120" fill="none" xmlns="http://www.w3.org/2000/svg">
<g clip-path="url(#clip0_1281_2295)">
<path d="M310.644 120H21.0333C18.2712 120 15.5361 119.456 12.9843 118.399C10.4324 117.342 8.11368 115.793 6.16055 113.84C4.20742 111.887 2.65811 109.568 1.60108 107.016C0.544048 104.465 -1.98349e-09 101.73 0 98.9675V21.0317C0.000104672 18.2697 0.544229 15.5347 1.60131 12.983C2.65839 10.4312 4.20771 8.11268 6.16083 6.15971C8.11395 4.20673 10.4326 2.65758 12.9844 1.6007C15.5363 0.543813 18.2713 -0.000104661 21.0333 1.51056e-08H310.643C313.405 1.51056e-08 316.14 0.544001 318.692 1.60094C321.243 2.65788 323.562 4.20707 325.515 6.16004C327.468 8.11301 329.017 10.4315 330.074 12.9832C331.131 15.5349 331.675 18.2698 331.675 21.0317V98.9675C331.675 101.729 331.131 104.464 330.074 107.016C329.017 109.568 327.468 111.886 325.515 113.839C323.562 115.792 321.243 117.341 318.692 118.398C316.14 119.455 313.405 119.999 310.643 119.999" fill="#D3EFFD"/>
<path d="M36.829 70.6743V73.8921H35.1336V70.7038L31.5468 64.772H33.3601L36.0327 69.2173L38.7324 64.772H40.4015L36.829 70.6743Z" fill="#1A1818"/>
<path d="M42.5807 73.5303C42.0283 73.2382 41.5697 72.7962 41.2575 72.255C40.9451 71.6916 40.7811 71.0579 40.7811 70.4137C40.7811 69.7695 40.9451 69.1359 41.2575 68.5725C41.5714 68.0355 42.0299 67.5974 42.5807 67.3083C43.1728 67.008 43.8273 66.8516 44.4913 66.8516C45.1552 66.8516 45.8097 67.008 46.4018 67.3083C46.9519 67.5984 47.4101 68.0362 47.725 68.5725C48.0374 69.1359 48.2014 69.7695 48.2014 70.4137C48.2014 71.0579 48.0374 71.6916 47.725 72.255C47.4118 72.7954 46.9535 73.2372 46.4018 73.5303C45.8095 73.8297 45.155 73.9858 44.4913 73.9858C43.8275 73.9858 43.173 73.8297 42.5807 73.5303ZM45.9706 71.9919C46.3486 71.5531 46.5565 70.9932 46.5565 70.4141C46.5565 69.835 46.3486 69.2751 45.9706 68.8363C45.7779 68.6388 45.5463 68.4834 45.2904 68.3801C45.0345 68.2768 44.7599 68.2278 44.4841 68.2361C44.2092 68.2272 43.9356 68.2761 43.6808 68.3794C43.426 68.4828 43.1957 68.6385 43.0047 68.8363C42.6298 69.2765 42.4239 69.8359 42.4239 70.4141C42.4239 70.9924 42.6298 71.5517 43.0047 71.9919C43.1959 72.1895 43.4263 72.3449 43.681 72.4482C43.9358 72.5516 44.2093 72.6006 44.4841 72.5921C44.7599 72.6001 45.0343 72.5509 45.2902 72.4476C45.546 72.3443 45.7777 72.1892 45.9706 71.9919Z" fill="#1A1818"/>
<path d="M56.5056 66.9336V73.8969H54.9529V73.0081C54.6893 73.3233 54.3543 73.5712 53.9757 73.7311C53.5761 73.9032 53.1451 73.9904 52.71 73.9869C52.3107 74.0087 51.9112 73.9513 51.5343 73.8179C51.1574 73.6845 50.8106 73.4778 50.514 73.2098C50.2295 72.9016 50.0114 72.5382 49.8732 72.1423C49.735 71.7463 49.6796 71.3261 49.7105 70.9078V66.9336H51.3414V70.6886C51.302 71.1921 51.4527 71.6921 51.7638 72.0899C51.9199 72.2491 52.1086 72.3728 52.3168 72.4526C52.525 72.5324 52.748 72.5664 52.9706 72.5522C53.2272 72.5649 53.4835 72.5234 53.7229 72.4303C53.9623 72.3372 54.1794 72.1945 54.3599 72.0118C54.7292 71.5792 54.9145 71.0194 54.8764 70.4519V66.9336H56.5056Z" fill="#1A1818"/>
<path d="M73.1039 66.9336L70.5342 73.8969H68.9711L67.1713 69.0985L65.346 73.8969H63.7813L61.2243 66.9336H62.7651L64.6031 72.0708L66.5193 66.9336H67.8879L69.7658 72.0971L71.6541 66.9336H73.1039Z" fill="#1A1818"/>
<path d="M74.3036 65.5053C74.208 65.4158 74.1318 65.3077 74.0797 65.1876C74.0277 65.0675 74.0008 64.938 74.0008 64.807C74.0008 64.6761 74.0277 64.5466 74.0797 64.4265C74.1318 64.3064 74.208 64.1983 74.3036 64.1088C74.5047 63.922 74.7712 63.8215 75.0457 63.829C75.3184 63.8214 75.584 63.9164 75.7901 64.0953C75.8864 64.1785 75.9631 64.2819 76.0147 64.3982C76.0664 64.5145 76.0918 64.6408 76.089 64.768C76.0923 64.9022 76.0678 65.0357 76.0172 65.1601C75.9666 65.2845 75.8909 65.3971 75.7949 65.4909C75.6967 65.5885 75.5796 65.665 75.4507 65.7155C75.3219 65.7661 75.184 65.7898 75.0457 65.7851C74.7712 65.7926 74.5047 65.6921 74.3036 65.5053ZM74.2239 66.9329H75.8531V73.8961H74.2255L74.2239 66.9329Z" fill="#1A1818"/>
<path d="M79.6248 64.2183H77.9956V73.8932H79.6248V64.2183Z" fill="#1A1818"/>
<path d="M83.3918 64.2183H81.7626V73.8932H83.3918V64.2183Z" fill="#1A1818"/>
<path d="M90.3551 73.5303C89.8028 73.2382 89.3441 72.7962 89.0319 72.255C88.7195 71.6916 88.5555 71.0579 88.5555 70.4137C88.5555 69.7695 88.7195 69.1359 89.0319 68.5725C89.3459 68.0355 89.8043 67.5974 90.3551 67.3083C90.9472 67.008 91.6018 66.8516 92.2657 66.8516C92.9296 66.8516 93.5841 67.008 94.1763 67.3083C94.7263 67.5984 95.1845 68.0362 95.4994 68.5725C95.8119 69.1359 95.9758 69.7695 95.9758 70.4137C95.9758 71.0579 95.8119 71.6916 95.4994 72.255C95.1863 72.7954 94.7279 73.2372 94.1763 73.5303C93.5839 73.8297 92.9294 73.9858 92.2657 73.9858C91.6019 73.9858 90.9474 73.8297 90.3551 73.5303ZM93.745 71.9919C94.123 71.5531 94.3309 70.9932 94.3309 70.4141C94.3309 69.835 94.123 69.2751 93.745 68.8363C93.5523 68.6388 93.3207 68.4834 93.0648 68.3801C92.8089 68.2768 92.5343 68.2278 92.2585 68.2361C91.9837 68.2272 91.71 68.2761 91.4552 68.3794C91.2004 68.4828 90.9701 68.6385 90.7791 68.8363C90.4042 69.2765 90.1983 69.8359 90.1983 70.4141C90.1983 70.9924 90.4042 71.5517 90.7791 71.9919C90.9703 72.1895 91.2007 72.3449 91.4554 72.4482C91.7102 72.5516 91.9837 72.6006 92.2585 72.5921C92.5343 72.6001 92.8088 72.5509 93.0646 72.4476C93.3204 72.3443 93.5521 72.1892 93.745 71.9919Z" fill="#1A1818"/>
<path d="M104.06 66.9336L101.073 73.8969H99.3939L96.4049 66.9336H98.1003L100.265 72.0971L102.497 66.9336H104.06Z" fill="#1A1818"/>
<path d="M111.818 66.9336V73.8969H110.265V73.0081C110.002 73.3233 109.667 73.5712 109.288 73.7311C108.888 73.9032 108.457 73.9904 108.022 73.9869C107.623 74.0087 107.224 73.9513 106.847 73.8179C106.47 73.6845 106.123 73.4778 105.826 73.2098C105.542 72.9016 105.324 72.5382 105.186 72.1423C105.047 71.7463 104.992 71.3261 105.023 70.9078V66.9336H106.654V70.6886C106.614 71.1921 106.765 71.6921 107.076 72.0899C107.232 72.2491 107.421 72.3728 107.629 72.4526C107.837 72.5324 108.06 72.5664 108.283 72.5522C108.54 72.5649 108.796 72.5234 109.035 72.4303C109.275 72.3372 109.492 72.1945 109.672 72.0118C110.042 71.5792 110.227 71.0194 110.189 70.4519V66.9336H111.818Z" fill="#1A1818"/>
<path d="M115.586 64.2183H113.957V73.8932H115.586V64.2183Z" fill="#1A1818"/>
<path d="M122.738 67.5912C123.025 67.8815 123.247 68.2301 123.388 68.6136C123.528 68.997 123.585 69.4062 123.553 69.8135V73.8961H122.015V73.0488C121.805 73.3604 121.508 73.603 121.161 73.7463C120.737 73.9161 120.282 73.9975 119.825 73.9854C119.354 73.9956 118.887 73.9037 118.456 73.716C118.09 73.5593 117.775 73.3027 117.548 72.9755C117.336 72.6572 117.225 72.2821 117.229 71.8994C117.219 71.6111 117.277 71.3245 117.399 71.0627C117.52 70.8009 117.701 70.5712 117.927 70.3921C118.575 69.962 119.349 69.7624 120.124 69.8254H121.922V69.721C121.935 69.5136 121.903 69.3057 121.828 69.112C121.753 68.9182 121.636 68.7433 121.486 68.5995C121.117 68.3131 120.655 68.1737 120.189 68.2082C119.797 68.2084 119.408 68.2699 119.035 68.3907C118.686 68.4976 118.361 68.6705 118.078 68.9L117.441 67.7124C117.836 67.4198 118.282 67.2036 118.757 67.0747C119.287 66.9248 119.835 66.8505 120.386 66.8539C121.235 66.7966 122.075 67.0597 122.74 67.5912M121.253 72.5203C121.565 72.3408 121.803 72.056 121.924 71.7169V70.9087H120.242C119.303 70.9087 118.833 71.2177 118.833 71.8357C118.829 71.9731 118.859 72.1094 118.921 72.2323C118.982 72.3552 119.073 72.4607 119.186 72.5395C119.475 72.7292 119.818 72.8206 120.163 72.8001C120.545 72.8067 120.921 72.71 121.251 72.5203" fill="#1A1818"/>
<path d="M129.825 73.5136C129.619 73.6778 129.382 73.798 129.127 73.8667C128.845 73.9462 128.553 73.9859 128.26 73.9847C127.613 74.0256 126.975 73.8094 126.487 73.3829C126.267 73.1507 126.098 72.8756 125.991 72.5749C125.883 72.2742 125.839 71.9544 125.861 71.6357V68.288H124.713V66.9848H125.861V65.3906H127.492V66.9848H129.355V68.2888H127.492V71.6007C127.472 71.8818 127.56 72.1598 127.739 72.3778C127.833 72.4706 127.945 72.5425 128.069 72.5887C128.192 72.6348 128.324 72.6542 128.456 72.6456C128.784 72.6569 129.106 72.5556 129.369 72.3587L129.825 73.5136Z" fill="#1A1818"/>
<path d="M137.688 70.9359H132.224C132.307 71.4233 132.576 71.8595 132.974 72.1523C133.414 72.4629 133.943 72.6211 134.481 72.6026C134.832 72.613 135.181 72.5511 135.506 72.4207C135.831 72.2903 136.127 72.0941 136.373 71.8446L137.244 72.8513C136.926 73.2284 136.518 73.5195 136.058 73.6978C135.542 73.8953 134.993 73.9926 134.441 73.9847C133.739 73.9993 133.045 73.8422 132.418 73.5272C131.856 73.2415 131.388 72.8005 131.069 72.2567C130.759 71.6937 130.596 71.062 130.594 70.4195C130.593 69.7771 130.752 69.1445 131.059 68.5798C131.357 68.0456 131.8 67.6062 132.336 67.3116C132.904 67.0012 133.543 66.8435 134.19 66.8541C134.825 66.8429 135.452 66.9982 136.008 67.3044C136.538 67.5985 136.972 68.0377 137.26 68.5702C137.568 69.149 137.723 69.7972 137.71 70.4529C137.71 70.5661 137.7 70.7279 137.684 70.9359M132.87 68.6204C132.505 68.9349 132.27 69.3743 132.211 69.8527H136.162C136.109 69.3792 135.882 68.9424 135.525 68.6268C135.156 68.3094 134.681 68.1419 134.194 68.1573C133.711 68.1437 133.241 68.3083 132.871 68.6196" fill="#1A1818"/>
<path d="M153.74 66.9336L151.171 73.8969H149.606L147.806 69.0985L145.981 73.8969H144.415L141.859 66.9336H143.4L145.238 72.0708L147.155 66.9336H148.523L150.401 72.0971L152.29 66.9336H153.74Z" fill="#1A1818"/>
<path d="M154.938 65.5053C154.844 65.4152 154.769 65.3069 154.717 65.1869C154.666 65.0668 154.639 64.9376 154.639 64.807C154.639 64.6765 154.666 64.5473 154.717 64.4272C154.769 64.3072 154.844 64.1989 154.938 64.1088C155.14 63.9217 155.408 63.8213 155.683 63.829C155.955 63.8216 156.22 63.9167 156.425 64.0953C156.521 64.1784 156.598 64.2818 156.65 64.3981C156.702 64.5144 156.728 64.6407 156.725 64.768C156.729 64.9022 156.704 65.0357 156.654 65.1601C156.603 65.2845 156.527 65.3971 156.431 65.4909C156.333 65.5882 156.216 65.6645 156.087 65.7151C155.958 65.7656 155.82 65.7894 155.682 65.7851C155.407 65.7928 155.14 65.6924 154.938 65.5053ZM154.858 66.9328H156.487V73.8961H154.86L154.858 66.9328Z" fill="#1A1818"/>
<path d="M162.814 73.5136C162.608 73.6778 162.371 73.798 162.117 73.8667C161.835 73.9462 161.543 73.9859 161.25 73.9847C160.602 74.0256 159.965 73.8094 159.476 73.3829C159.257 73.1507 159.088 72.8756 158.98 72.5749C158.872 72.2742 158.828 71.9544 158.85 71.6357V68.288H157.703V66.9848H158.85V65.3906H160.481V66.9848H162.345V68.2888H160.481V71.6007C160.461 71.8817 160.55 72.1598 160.728 72.3778C160.822 72.4706 160.935 72.5425 161.058 72.5887C161.182 72.6348 161.314 72.6542 161.446 72.6456C161.774 72.6569 162.096 72.5556 162.358 72.3587L162.814 73.5136Z" fill="#1A1818"/>
<path d="M170.221 67.625C170.503 67.9302 170.719 68.2902 170.857 68.6827C170.994 69.0752 171.049 69.4917 171.018 69.9063V73.8964H169.387V70.1159C169.425 69.6192 169.271 69.1268 168.956 68.7409C168.796 68.5804 168.605 68.4559 168.393 68.3758C168.182 68.2958 167.955 68.2621 167.73 68.277C167.468 68.2636 167.207 68.3049 166.962 68.3984C166.718 68.4919 166.495 68.6354 166.309 68.8198C165.937 69.249 165.749 69.8085 165.788 70.3757V73.8964H164.158V64.2207H165.787V67.7398C166.066 67.4482 166.407 67.2229 166.785 67.0806C167.209 66.9262 167.657 66.8503 168.108 66.8566C168.494 66.8378 168.879 66.8961 169.242 67.028C169.605 67.16 169.937 67.3629 170.221 67.625Z" fill="#1A1818"/>
<path d="M173.169 65.5053C173.073 65.4158 172.997 65.3077 172.945 65.1876C172.893 65.0675 172.866 64.938 172.866 64.8071C172.866 64.6761 172.893 64.5466 172.945 64.4265C172.997 64.3064 173.073 64.1983 173.169 64.1088C173.37 63.9217 173.637 63.8212 173.911 63.829C174.184 63.8218 174.449 63.9167 174.656 64.0953C174.752 64.1788 174.828 64.2822 174.88 64.3985C174.931 64.5147 174.957 64.6408 174.955 64.768C174.958 64.9022 174.933 65.0357 174.883 65.1601C174.832 65.2845 174.756 65.3971 174.66 65.4909C174.562 65.5884 174.445 65.6647 174.316 65.7153C174.187 65.7659 174.049 65.7896 173.911 65.7851C173.637 65.7929 173.37 65.6924 173.169 65.5053ZM173.089 66.9329H174.719V73.8961H173.091L173.089 66.9329Z" fill="#1A1818"/>
<path d="M182.923 67.6239C183.205 67.9291 183.422 68.2891 183.559 68.6816C183.696 69.074 183.751 69.4905 183.72 69.9051V73.8953H182.089V70.1155C182.127 69.6188 181.973 69.1265 181.658 68.7406C181.499 68.58 181.307 68.4555 181.095 68.3755C180.884 68.2955 180.658 68.2618 180.432 68.2767C180.17 68.2632 179.909 68.3046 179.664 68.398C179.42 68.4915 179.197 68.6351 179.012 68.8195C178.639 69.2487 178.451 69.8082 178.49 70.3754V73.8961H176.861V66.9336H178.412V67.8327C178.685 67.5086 179.035 67.2577 179.429 67.1026C179.87 66.9318 180.339 66.8479 180.811 66.8555C181.197 66.8367 181.582 66.895 181.945 67.0269C182.308 67.1588 182.64 67.3618 182.923 67.6239Z" fill="#1A1818"/>
<path d="M193.576 73.5136C193.37 73.6778 193.133 73.798 192.878 73.8667C192.596 73.9462 192.304 73.9859 192.011 73.9847C191.364 74.0256 190.726 73.8094 190.238 73.3829C190.018 73.1507 189.849 72.8756 189.742 72.5749C189.634 72.2742 189.59 71.9544 189.612 71.6357V68.288H188.464V66.9848H189.612V65.3906H191.243V66.9848H193.106V68.2888H191.243V71.6007C191.223 71.8817 191.311 72.1598 191.49 72.3778C191.584 72.4706 191.696 72.5425 191.82 72.5887C191.943 72.6348 192.076 72.6542 192.207 72.6456C192.535 72.6569 192.857 72.5556 193.12 72.3587L193.576 73.5136Z" fill="#1A1818"/>
<path d="M200.982 67.625C201.265 67.9302 201.481 68.2902 201.618 68.6827C201.755 69.0752 201.81 69.4917 201.779 69.9063V73.8964H200.148V70.1159C200.187 69.6192 200.032 69.1268 199.717 68.7409C199.558 68.5804 199.366 68.4559 199.155 68.3758C198.943 68.2958 198.717 68.2621 198.491 68.277C198.23 68.2636 197.968 68.3049 197.724 68.3984C197.479 68.4919 197.257 68.6354 197.071 68.8198C196.698 69.249 196.511 69.8085 196.55 70.3757V73.8964H194.92V64.2207H196.55V67.7398C196.829 67.4482 197.17 67.2229 197.548 67.0806C197.971 66.9262 198.42 66.8503 198.871 66.8566C199.256 66.8378 199.642 66.8961 200.004 67.028C200.367 67.16 200.699 67.3629 200.982 67.625Z" fill="#1A1818"/>
<path d="M210.37 70.9358H204.908C204.989 71.4243 205.258 71.8616 205.657 72.1546C206.096 72.4652 206.625 72.6234 207.163 72.6049C207.513 72.6159 207.862 72.5543 208.188 72.4238C208.513 72.2933 208.808 72.0969 209.054 71.8469L209.931 72.8536C209.613 73.2303 209.205 73.5213 208.745 73.7001C208.229 73.8974 207.68 73.9948 207.128 73.987C206.426 74.0016 205.732 73.8445 205.106 73.5295C204.543 73.2443 204.075 72.8032 203.756 72.259C203.433 71.6981 203.268 71.0602 203.278 70.413C203.268 69.7716 203.428 69.1391 203.742 68.5797C204.042 68.044 204.486 67.6037 205.025 67.3091C205.592 66.9987 206.23 66.8411 206.877 66.8516C207.512 66.8407 208.14 66.9959 208.697 67.302C209.226 67.5961 209.66 68.0353 209.947 68.5677C210.256 69.1463 210.411 69.7946 210.397 70.4504C210.397 70.5636 210.389 70.7254 210.371 70.9334M205.553 68.6179C205.189 68.933 204.954 69.372 204.894 69.8502H208.846C208.793 69.3709 208.561 68.9294 208.195 68.6148C207.83 68.3001 207.359 68.1358 206.877 68.1548C206.394 68.1416 205.923 68.3069 205.553 68.6179Z" fill="#1A1818"/>
<path d="M221.624 67.6239C221.906 67.9291 222.123 68.2891 222.26 68.6816C222.397 69.074 222.452 69.4905 222.421 69.9051V73.8953H220.79V70.1155C220.828 69.618 220.672 69.1253 220.355 68.7398C220.196 68.5792 220.004 68.4547 219.793 68.3747C219.581 68.2947 219.355 68.261 219.129 68.2759C218.868 68.2624 218.606 68.3038 218.362 68.3972C218.117 68.4907 217.895 68.6343 217.709 68.8187C217.336 69.2479 217.149 69.8074 217.188 70.3746V73.8953H215.558V66.9336H217.11V67.8327C217.383 67.5086 217.732 67.2577 218.127 67.1026C218.567 66.9318 219.036 66.8479 219.509 66.8555C219.894 66.8367 220.28 66.895 220.642 67.0269C221.005 67.1588 221.338 67.3618 221.621 67.6239" fill="#1A1818"/>
<path d="M231.012 70.9358H225.55C225.631 71.4243 225.9 71.8616 226.299 72.1546C226.738 72.4652 227.267 72.6234 227.805 72.6049C228.155 72.6159 228.504 72.5543 228.83 72.4238C229.155 72.2933 229.45 72.0969 229.696 71.8469L230.569 72.8536C230.25 73.2303 229.843 73.5213 229.383 73.7001C228.867 73.8974 228.318 73.9948 227.766 73.987C227.064 74.0016 226.37 73.8445 225.743 73.5295C225.181 73.2443 224.713 72.8033 224.394 72.259C224.071 71.6981 223.906 71.0602 223.916 70.413C223.906 69.7716 224.066 69.1391 224.38 68.5797C224.68 68.044 225.124 67.6037 225.663 67.3091C226.23 66.9987 226.868 66.8411 227.515 66.8516C228.15 66.8407 228.778 66.9959 229.335 67.302C229.864 67.5961 230.298 68.0353 230.585 68.5677C230.894 69.1463 231.049 69.7946 231.035 70.4504C231.035 70.5636 231.027 70.7254 231.009 70.9334M226.191 68.6179C225.827 68.9329 225.592 69.372 225.532 69.8502H229.484C229.431 69.3708 229.199 68.9292 228.833 68.6145C228.468 68.2999 227.997 68.1356 227.515 68.1548C227.032 68.1416 226.561 68.3069 226.191 68.6179Z" fill="#1A1818"/>
<path d="M237.039 73.8953L235.253 71.4817L233.452 73.8953H231.651L234.361 70.3626L231.767 66.9352H233.58L235.288 69.218L236.999 66.9336H238.758L236.15 70.3363L238.876 73.8969L237.039 73.8953Z" fill="#1A1818"/>
<path d="M244.261 73.5136C244.055 73.6778 243.818 73.798 243.564 73.8667C243.282 73.9462 242.99 73.9859 242.697 73.9847C242.049 74.0256 241.412 73.8094 240.923 73.3829C240.704 73.1507 240.535 72.8756 240.427 72.5749C240.319 72.2742 240.275 71.9544 240.297 71.6357V68.288H239.15V66.9848H240.297V65.3906H241.928V66.9848H243.792V68.2888H241.928V71.6007C241.908 71.8817 241.997 72.1598 242.175 72.3778C242.269 72.4706 242.382 72.5425 242.505 72.5887C242.629 72.6348 242.761 72.6542 242.893 72.6456C243.221 72.6569 243.543 72.5556 243.805 72.3587L244.261 73.5136Z" fill="#1A1818"/>
<path d="M255.318 72.4616V73.8964H248.59V72.7629L252.215 69.3188C252.546 69.0266 252.826 68.6809 253.043 68.2961C253.181 68.0278 253.255 67.7308 253.258 67.4289C253.269 67.2436 253.236 67.0583 253.161 66.8884C253.086 66.7184 252.972 66.5687 252.828 66.4517C252.456 66.201 252.01 66.0817 251.562 66.1129C251.155 66.0899 250.749 66.1647 250.377 66.3311C250.005 66.4975 249.678 66.7507 249.424 67.0694L248.238 66.1552C248.612 65.6639 249.108 65.2792 249.677 65.0393C250.318 64.7662 251.009 64.6305 251.706 64.6407C252.554 64.5968 253.392 64.8452 254.079 65.3445C254.368 65.5714 254.598 65.8635 254.753 66.1969C254.907 66.5302 254.979 66.8953 254.965 67.2623C254.968 67.7455 254.861 68.223 254.652 68.6588C254.344 69.2205 253.939 69.7233 253.456 70.1437L251.017 72.4648L255.318 72.4616Z" fill="#1A1818"/>
<path d="M264.432 71.8188H262.816V73.8912H261.173V71.8188H256.165V70.6487L260.664 64.7671H262.476L258.237 70.3841H261.224V68.5508H262.818V70.3841H264.434L264.432 71.8188Z" fill="#1A1818"/>
<path d="M273.429 73.5136C273.224 73.6778 272.986 73.798 272.732 73.8667C272.45 73.9462 272.158 73.9859 271.865 73.9847C271.217 74.0256 270.58 73.8094 270.091 73.3829C269.872 73.1507 269.703 72.8756 269.595 72.5749C269.488 72.2742 269.443 71.9544 269.466 71.6357V68.288H268.318V66.9848H269.466V65.3906H271.096V66.9848H272.96V68.2888H271.096V71.6007C271.077 71.8817 271.165 72.1598 271.343 72.3778C271.437 72.4706 271.55 72.5425 271.673 72.5887C271.797 72.6348 271.929 72.6542 272.061 72.6456C272.389 72.6569 272.711 72.5556 272.973 72.3587L273.429 73.5136Z" fill="#1A1818"/>
<path d="M275.998 73.5303C275.445 73.2382 274.987 72.7962 274.674 72.255C274.362 71.6916 274.198 71.0579 274.198 70.4137C274.198 69.7695 274.362 69.1359 274.674 68.5725C274.988 68.0355 275.447 67.5974 275.998 67.3083C276.59 67.008 277.244 66.8516 277.908 66.8516C278.572 66.8516 279.227 67.008 279.819 67.3083C280.369 67.5984 280.827 68.0362 281.142 68.5725C281.454 69.1358 281.618 69.7695 281.618 70.4137C281.618 71.058 281.454 71.6916 281.142 72.255C280.829 72.7954 280.37 73.2372 279.819 73.5303C279.226 73.8297 278.572 73.9858 277.908 73.9858C277.244 73.9858 276.59 73.8297 275.998 73.5303ZM279.388 71.9919C279.766 71.5531 279.973 70.9932 279.973 70.4141C279.973 69.835 279.766 69.2751 279.388 68.8363C279.195 68.6388 278.963 68.4834 278.707 68.3801C278.451 68.2768 278.177 68.2278 277.901 68.2361C277.626 68.2272 277.353 68.2761 277.098 68.3794C276.843 68.4828 276.613 68.6385 276.422 68.8363C276.047 69.2766 275.841 69.8359 275.841 70.4141C275.841 70.9923 276.047 71.5516 276.422 71.9919C276.613 72.1895 276.843 72.3449 277.098 72.4482C277.353 72.5516 277.626 72.6006 277.901 72.5921C278.177 72.6001 278.451 72.5509 278.707 72.4476C278.963 72.3443 279.195 72.1892 279.388 71.9919Z" fill="#1A1818"/>
<path d="M38.0549 85.0434C38.501 85.5194 38.7403 86.1528 38.7204 86.8049C38.7256 87.3163 38.5851 87.8186 38.3155 88.2532C38.0198 88.7108 37.596 89.0712 37.0968 89.2894C36.4693 89.564 35.7887 89.6958 35.1041 89.6752C34.466 89.677 33.8313 89.5827 33.2214 89.3954C32.6637 89.232 32.1402 88.9692 31.6758 88.6198L32.406 87.3023C32.7632 87.5951 33.1719 87.8186 33.6111 87.9615C34.0837 88.1217 34.5796 88.2025 35.0786 88.2006C35.5776 88.228 36.0726 88.0984 36.4942 87.8299C36.6577 87.7182 36.7905 87.5671 36.8805 87.3907C36.9705 87.2142 37.0147 87.018 37.0091 86.82C37.0172 86.6259 36.9768 86.4329 36.8915 86.2583C36.8062 86.0838 36.6786 85.9333 36.5205 85.8205C36.0712 85.5506 35.5496 85.4256 35.0268 85.4626H34.1946V84.3013L36.267 81.8359H32.1222V80.4155H38.3394V81.549L36.1259 84.1849C36.8507 84.2336 37.5346 84.5381 38.0557 85.0442" fill="#1A1818"/>
<path d="M45.5913 84.2549C46.0517 84.4703 46.4408 84.813 46.7127 85.2425C46.9855 85.6844 47.1255 86.1954 47.1161 86.7147C47.1282 87.2659 46.975 87.8081 46.6761 88.2713C46.3785 88.72 45.9636 89.0784 45.4765 89.3075C44.9462 89.5558 44.3666 89.6806 43.7811 89.6726C43.2389 89.7036 42.6966 89.6146 42.1929 89.4117C41.6891 89.2089 41.2364 88.8974 40.867 88.4993C40.1184 87.5434 39.7494 86.3446 39.8308 85.1333C39.804 84.226 39.9954 83.3256 40.3887 82.5077C40.7343 81.8099 41.282 81.2324 41.9606 80.8506C42.6782 80.4614 43.4846 80.2655 44.3008 80.2822C44.7463 80.2804 45.1904 80.3312 45.6239 80.4337C46.004 80.5193 46.3675 80.6666 46.7 80.8697L46.0743 82.145C45.5519 81.8303 44.9484 81.6761 44.3391 81.7018C43.9579 81.6805 43.5767 81.7416 43.2214 81.8811C42.866 82.0206 42.545 82.2351 42.2802 82.5101C41.744 83.1649 41.4775 83.9995 41.5349 84.8439V84.8575C41.8141 84.5393 42.1676 84.2951 42.564 84.1465C43.0148 83.9812 43.4922 83.9002 43.9724 83.9073C44.5315 83.8982 45.0852 84.0171 45.5913 84.2549ZM44.9775 87.9214C45.1337 87.7772 45.2584 87.6021 45.3436 87.4073C45.4289 87.2125 45.4729 87.0022 45.4729 86.7896C45.4729 86.5769 45.4289 86.3666 45.3436 86.1718C45.2584 85.977 45.1337 85.802 44.9775 85.6577C44.5979 85.3648 44.126 85.2175 43.6472 85.2425C43.1624 85.2213 42.6867 85.379 42.3105 85.6856C42.1464 85.8211 42.0149 85.9917 41.9258 86.1849C41.8366 86.378 41.7921 86.5888 41.7956 86.8015C41.7911 87.0112 41.8339 87.2192 41.9208 87.41C42.0078 87.6009 42.1366 87.7697 42.2977 87.9039C42.6908 88.2152 43.185 88.3704 43.6854 88.3399C44.1532 88.3613 44.6127 88.2111 44.9775 87.9174" fill="#1A1818"/>
<path d="M58.1611 83.2715C58.4434 83.5767 58.6599 83.9367 58.797 84.3292C58.9342 84.7217 58.989 85.1382 58.9582 85.5527V89.5429H57.3266V85.7624C57.3649 85.2657 57.2105 84.7733 56.8954 84.3874C56.7362 84.2269 56.5443 84.1024 56.3328 84.0223C56.1213 83.9423 55.8951 83.9086 55.6695 83.9235C55.408 83.9101 55.1465 83.9514 54.9019 84.0449C54.6573 84.1383 54.435 84.2819 54.2491 84.4663C53.8762 84.8955 53.6887 85.455 53.7278 86.0222V89.5429H52.0986V79.8672H53.7278V83.3863C54.007 83.0947 54.348 82.8695 54.7257 82.7271C55.1495 82.5727 55.5979 82.4968 56.0489 82.5031C56.4344 82.4843 56.8197 82.5426 57.1824 82.6745C57.5451 82.8065 57.8778 83.0094 58.1611 83.2715Z" fill="#1A1818"/>
<path d="M62.2557 89.1777C61.7034 88.8857 61.2447 88.4436 60.9326 87.9024C60.6201 87.339 60.4562 86.7054 60.4562 86.0612C60.4562 85.4169 60.6201 84.7833 60.9326 84.2199C61.2465 83.6829 61.705 83.2449 62.2557 82.9558C62.8478 82.6555 63.5024 82.499 64.1663 82.499C64.8302 82.499 65.4848 82.6555 66.0769 82.9558C66.6269 83.2459 67.0852 83.6837 67.4 84.2199C67.7125 84.7833 67.8764 85.4169 67.8764 86.0612C67.8764 86.7054 67.7125 87.339 67.4 87.9024C67.0869 88.4429 66.6285 88.8847 66.0769 89.1777C65.4845 89.4772 64.8301 89.6332 64.1663 89.6332C63.5025 89.6332 62.8481 89.4772 62.2557 89.1777ZM65.6457 87.6394C66.0237 87.2006 66.2315 86.6407 66.2315 86.0616C66.2315 85.4824 66.0237 84.9225 65.6457 84.4838C65.453 84.2862 65.2213 84.1309 64.9654 84.0276C64.7095 83.9243 64.435 83.8752 64.1591 83.8836C63.8843 83.8747 63.6106 83.9235 63.3558 84.0269C63.101 84.1303 62.8707 84.2859 62.6797 84.4838C62.3048 84.924 62.0989 85.4833 62.0989 86.0616C62.0989 86.6398 62.3048 87.1992 62.6797 87.6394C62.871 87.8369 63.1013 87.9923 63.3561 88.0957C63.6108 88.199 63.8843 88.2481 64.1591 88.2396C64.4349 88.2476 64.7094 88.1984 64.9652 88.0951C65.2211 87.9918 65.4528 87.8366 65.6457 87.6394Z" fill="#1A1818"/>
<path d="M76.1815 82.5811V89.5443H74.6288V88.6556C74.3651 88.9708 74.0301 89.2186 73.6516 89.3785C73.2519 89.5507 72.8209 89.6378 72.3858 89.6344C71.9866 89.6562 71.587 89.5987 71.2101 89.4654C70.8332 89.332 70.4865 89.1253 70.1898 88.8572C69.9054 88.5491 69.6872 88.1857 69.549 87.7897C69.4108 87.3937 69.3555 86.9736 69.3864 86.5553V82.5811H71.0172V86.3361C70.9778 86.8396 71.1286 87.3395 71.4397 87.7373C71.5958 87.8966 71.7844 88.0203 71.9926 88.1001C72.2009 88.1799 72.4239 88.2138 72.6464 88.1997C72.903 88.2124 73.1594 88.1709 73.3988 88.0777C73.6382 87.9846 73.8552 87.842 74.0357 87.6592C74.405 87.2267 74.5904 86.6668 74.5522 86.0994V82.5811H76.1815Z" fill="#1A1818"/>
<path d="M82.3468 82.5014V84.0533C82.222 84.0276 82.0949 84.0142 81.9674 84.0134C81.6949 83.998 81.4221 84.0392 81.1663 84.1344C80.9104 84.2296 80.6771 84.3768 80.4809 84.5666C80.1 85.007 79.9081 85.5798 79.9468 86.1608V89.5388H78.32V82.5795H79.8711V83.5966C80.1519 83.2134 80.5284 82.9107 80.9628 82.7185C81.3972 82.5263 81.8744 82.4514 82.3468 82.5014Z" fill="#1A1818"/>
<path d="M84.2917 89.4123C83.8332 89.3011 83.3971 89.1124 83.0021 88.8543L83.6278 87.6149C83.9748 87.8398 84.3548 88.0092 84.754 88.117C85.176 88.2398 85.613 88.3031 86.0525 88.3051C87.026 88.3051 87.5127 88.049 87.5127 87.5368C87.5157 87.4228 87.4808 87.3112 87.4134 87.2193C87.346 87.1274 87.25 87.0604 87.1405 87.029C86.7517 86.8991 86.3513 86.8071 85.9449 86.754C85.4707 86.6882 85.0019 86.5883 84.542 86.4551C84.1828 86.3417 83.8592 86.1368 83.6031 85.8605C83.3221 85.5336 83.1792 85.1103 83.2045 84.68C83.1981 84.3676 83.2707 84.0586 83.4156 83.7817C83.5605 83.5048 83.7731 83.269 84.0335 83.0962C84.6983 82.6693 85.4803 82.4619 86.2693 82.5032C86.7521 82.5043 87.2333 82.5591 87.704 82.6666C88.1152 82.751 88.5109 82.8981 88.8773 83.1026L88.2516 84.3421C87.6471 83.9901 86.9584 83.8091 86.2589 83.8184C85.8831 83.7967 85.5079 83.8707 85.1685 84.0336C85.0601 84.0843 84.9679 84.1642 84.9021 84.2642C84.8364 84.3643 84.7998 84.4807 84.7963 84.6003C84.7932 84.724 84.8304 84.8453 84.9023 84.9459C84.9742 85.0466 85.0769 85.1211 85.1948 85.1583C85.5945 85.3008 86.0072 85.4033 86.4271 85.4644C86.8907 85.5296 87.3487 85.6295 87.7973 85.7633C88.1476 85.8724 88.4639 86.0701 88.7155 86.3372C88.9911 86.6523 89.1317 87.0631 89.1069 87.481C89.1117 87.7924 89.0362 88.0998 88.8876 88.3736C88.7391 88.6474 88.5225 88.8783 88.2588 89.044C87.5678 89.4706 86.7629 89.6756 85.9521 89.6315C85.3922 89.6321 84.8348 89.5573 84.2949 89.4091" fill="#1A1818"/>
<path d="M90.277 89.3276C90.1737 89.2271 90.0925 89.1063 90.0386 88.9728C89.9847 88.8393 89.9592 88.6959 89.9637 88.552C89.9598 88.4091 89.9846 88.2669 90.0366 88.1338C90.0885 88.0006 90.1667 87.8793 90.2664 87.7768C90.366 87.6744 90.4852 87.593 90.6169 87.5374C90.7486 87.4818 90.8901 87.4531 91.033 87.4531C91.1759 87.4531 91.3174 87.4818 91.4491 87.5374C91.5807 87.593 91.6999 87.6744 91.7996 87.7768C91.8993 87.8793 91.9774 88.0006 92.0294 88.1338C92.0814 88.2669 92.1062 88.4091 92.1023 88.552C92.104 88.7642 92.0429 88.9722 91.9265 89.1496C91.8102 89.3271 91.6438 89.4661 91.4485 89.5491C91.2532 89.6321 91.0377 89.6553 90.8292 89.6159C90.6206 89.5765 90.4285 89.4761 90.277 89.3276Z" fill="#1A1818"/>
<path d="M101.383 86.322V89.5399H99.6913V86.3515L96.1044 80.4197H97.9178L100.586 84.8618L103.286 80.4165H104.955L101.383 86.322Z" fill="#1A1818"/>
<path d="M107.136 89.1777C106.584 88.8857 106.125 88.4436 105.813 87.9024C105.5 87.339 105.336 86.7054 105.336 86.0612C105.336 85.4169 105.5 84.7833 105.813 84.2199C106.127 83.6829 106.585 83.2449 107.136 82.9558C107.728 82.6555 108.383 82.499 109.047 82.499C109.71 82.499 110.365 82.6555 110.957 82.9558C111.507 83.2459 111.965 83.6837 112.28 84.2199C112.593 84.7833 112.757 85.4169 112.757 86.0612C112.757 86.7054 112.593 87.339 112.28 87.9024C111.967 88.4429 111.509 88.8847 110.957 89.1777C110.365 89.4772 109.71 89.6332 109.047 89.6332C108.383 89.6332 107.728 89.4772 107.136 89.1777ZM110.528 87.6402C110.905 87.2014 111.113 86.6415 111.113 86.0624C111.113 85.4832 110.905 84.9233 110.528 84.4846C110.335 84.287 110.103 84.1317 109.847 84.0284C109.591 83.9251 109.317 83.876 109.041 83.8844C108.766 83.8755 108.492 83.9243 108.238 84.0277C107.983 84.1311 107.753 84.2867 107.562 84.4846C107.187 84.9248 106.981 85.4841 106.981 86.0624C106.981 86.6406 107.187 87.2 107.562 87.6402C107.753 87.8377 107.983 87.9931 108.238 88.0965C108.493 88.1998 108.766 88.2488 109.041 88.2404C109.317 88.2484 109.591 88.1993 109.847 88.096C110.103 87.9927 110.335 87.8375 110.528 87.6402Z" fill="#1A1818"/>
<path d="M121.062 82.5811V89.5443H119.51V88.6556C119.245 88.9704 118.91 89.2182 118.531 89.3785C118.132 89.5507 117.701 89.6378 117.267 89.6344C116.868 89.6566 116.468 89.5994 116.091 89.466C115.714 89.3326 115.367 89.1257 115.071 88.8572C114.786 88.5491 114.568 88.1857 114.43 87.7897C114.292 87.3937 114.236 86.9736 114.267 86.5553V82.5811H115.897V86.3361C115.857 86.8399 116.008 87.3402 116.321 87.7373C116.477 87.8968 116.665 88.0207 116.874 88.1005C117.082 88.1803 117.305 88.2141 117.527 88.1997C117.784 88.2126 118.04 88.1711 118.279 88.078C118.518 87.9848 118.735 87.8421 118.915 87.6592C119.285 87.2269 119.471 86.667 119.433 86.0994V82.5811H121.062Z" fill="#1A1818"/>
<path d="M127.295 89.4123C126.836 89.3011 126.4 89.1124 126.005 88.8543L126.631 87.6149C126.978 87.8398 127.358 88.0092 127.757 88.117C128.179 88.2398 128.616 88.3031 129.056 88.3051C130.029 88.3051 130.516 88.049 130.516 87.5368C130.519 87.4228 130.484 87.3112 130.417 87.2193C130.349 87.1274 130.253 87.0604 130.144 87.029C129.755 86.8991 129.354 86.8071 128.948 86.754C128.474 86.6882 128.005 86.5883 127.545 86.4551C127.186 86.3417 126.862 86.1368 126.606 85.8605C126.325 85.5336 126.182 85.1103 126.208 84.68C126.201 84.3676 126.274 84.0586 126.419 83.7817C126.564 83.5048 126.776 83.269 127.037 83.0962C127.701 82.6693 128.483 82.4619 129.272 82.5032C129.755 82.5043 130.236 82.5591 130.707 82.6666C131.118 82.751 131.514 82.8981 131.88 83.1026L131.255 84.3421C130.65 83.9901 129.961 83.8091 129.262 83.8184C128.886 83.7967 128.511 83.8707 128.172 84.0336C128.063 84.0843 127.971 84.1642 127.905 84.2642C127.84 84.3643 127.803 84.4807 127.799 84.6003C127.796 84.724 127.833 84.8453 127.905 84.9459C127.977 85.0466 128.08 85.1211 128.198 85.1583C128.598 85.3008 129.01 85.4033 129.43 85.4644C129.894 85.5296 130.352 85.6295 130.8 85.7633C131.151 85.8724 131.467 86.0701 131.719 86.3372C131.994 86.6545 132.132 87.0676 132.104 87.4865C132.109 87.798 132.034 88.1054 131.885 88.3792C131.737 88.653 131.52 88.8839 131.256 89.0496C130.565 89.4762 129.76 89.6812 128.95 89.6371C128.39 89.6377 127.832 89.5629 127.292 89.4147" fill="#1A1818"/>
<path d="M139.577 83.2715C139.859 83.5767 140.076 83.9367 140.213 84.3292C140.35 84.7217 140.405 85.1382 140.374 85.5527V89.5429H138.743V85.7624C138.782 85.2657 138.627 84.7733 138.312 84.3874C138.153 84.2269 137.961 84.1024 137.75 84.0223C137.538 83.9423 137.312 83.9086 137.086 83.9235C136.825 83.9101 136.563 83.9514 136.319 84.0449C136.074 84.1383 135.852 84.2819 135.666 84.4663C135.293 84.8955 135.105 85.455 135.144 86.0222V89.5429H133.515V79.8672H135.144V83.3863C135.424 83.0947 135.765 82.8695 136.142 82.7271C136.566 82.5727 137.015 82.4968 137.466 82.5031C137.851 82.4843 138.236 82.5426 138.599 82.6745C138.962 82.8065 139.294 83.0094 139.577 83.2715Z" fill="#1A1818"/>
<path d="M143.673 89.1777C143.121 88.8857 142.662 88.4436 142.35 87.9024C142.038 87.3391 141.874 86.7054 141.874 86.0612C141.874 85.4169 142.038 84.7833 142.35 84.2199C142.664 83.6829 143.122 83.2449 143.673 82.9558C144.265 82.6555 144.92 82.499 145.584 82.499C146.248 82.499 146.902 82.6555 147.494 82.9558C148.044 83.2459 148.503 83.6837 148.818 84.2199C149.13 84.7833 149.294 85.4169 149.294 86.0612C149.294 86.7054 149.13 87.339 148.818 87.9024C148.504 88.4429 148.046 88.8847 147.494 89.1777C146.902 89.4772 146.248 89.6332 145.584 89.6332C144.92 89.6332 144.266 89.4772 143.673 89.1777ZM147.063 87.6394C147.441 87.2006 147.649 86.6407 147.649 86.0616C147.649 85.4824 147.441 84.9225 147.063 84.4838C146.87 84.2862 146.639 84.1309 146.383 84.0276C146.127 83.9243 145.852 83.8752 145.577 83.8836C145.302 83.8747 145.028 83.9235 144.773 84.0269C144.519 84.1303 144.288 84.2859 144.097 84.4838C143.722 84.924 143.516 85.4833 143.516 86.0616C143.516 86.6398 143.722 87.1992 144.097 87.6394C144.288 87.8369 144.519 87.9923 144.774 88.0957C145.028 88.199 145.302 88.2481 145.577 88.2396C145.852 88.2476 146.127 88.1984 146.383 88.0951C146.639 87.9918 146.87 87.8366 147.063 87.6394Z" fill="#1A1818"/>
<path d="M157.599 82.5811V89.5443H156.046V88.6556C155.783 88.9708 155.448 89.2186 155.069 89.3785C154.669 89.5507 154.238 89.6378 153.803 89.6344C153.404 89.6562 153.004 89.5987 152.628 89.4654C152.251 89.332 151.904 89.1253 151.607 88.8572C151.323 88.5491 151.105 88.1857 150.966 87.7897C150.828 87.3937 150.773 86.9736 150.804 86.5553V82.5811H152.435V86.3361C152.395 86.8396 152.546 87.3395 152.857 87.7373C153.013 87.8966 153.202 88.0203 153.41 88.1001C153.618 88.1799 153.841 88.2138 154.064 88.1997C154.32 88.2124 154.577 88.1709 154.816 88.0777C155.056 87.9846 155.273 87.842 155.453 87.6592C155.822 87.2267 156.008 86.6668 155.97 86.0994V82.5811H157.599Z" fill="#1A1818"/>
<path d="M161.367 79.8662H159.737V89.5411H161.367V79.8662Z" fill="#1A1818"/>
<path d="M170.325 79.8672V89.5421H168.76V88.6438C168.495 88.9709 168.152 89.2261 167.762 89.3859C167.346 89.5553 166.901 89.6398 166.451 89.6346C165.822 89.6445 165.2 89.4918 164.647 89.1914C164.116 88.9005 163.68 88.4645 163.388 87.9344C163.076 87.3599 162.918 86.7142 162.931 86.0605C162.918 85.41 163.076 84.7676 163.388 84.1969C163.681 83.6696 164.118 83.2358 164.647 82.9455C165.2 82.6456 165.822 82.4935 166.451 82.5039C166.884 82.498 167.314 82.5771 167.717 82.7367C168.095 82.8898 168.43 83.1321 168.694 83.4429V79.8672H170.325ZM167.702 87.9727C168.017 87.7926 168.274 87.5281 168.446 87.2091C168.626 86.8532 168.719 86.4602 168.719 86.0617C168.719 85.6632 168.626 85.2702 168.446 84.9143C168.275 84.5949 168.017 84.3302 167.702 84.1507C167.378 83.975 167.015 83.8829 166.646 83.8829C166.277 83.8829 165.914 83.975 165.59 84.1507C165.275 84.3304 165.018 84.5951 164.848 84.9143C164.667 85.2698 164.573 85.6629 164.573 86.0617C164.573 86.4604 164.667 86.8535 164.848 87.2091C165.019 87.5279 165.276 87.7925 165.59 87.9727C165.914 88.1471 166.277 88.2384 166.646 88.2384C167.014 88.2384 167.377 88.1471 167.702 87.9727Z" fill="#1A1818"/>
<path d="M182.125 83.2715C182.407 83.5767 182.624 83.9367 182.761 84.3292C182.898 84.7217 182.953 85.1382 182.922 85.5527V89.5429H181.291V85.7624C181.33 85.2657 181.175 84.7733 180.86 84.3874C180.701 84.2269 180.509 84.1024 180.297 84.0223C180.086 83.9423 179.86 83.9086 179.634 83.9235C179.373 83.9101 179.111 83.9514 178.867 84.0449C178.622 84.1383 178.4 84.2819 178.214 84.4663C177.841 84.8955 177.653 85.455 177.692 86.0222V89.5429H176.063V79.8672H177.692V83.3863C177.972 83.0947 178.313 82.8695 178.69 82.7271C179.114 82.5727 179.563 82.4968 180.014 82.5031C180.399 82.4843 180.784 82.5426 181.147 82.6745C181.51 82.8065 181.842 83.0094 182.125 83.2715Z" fill="#1A1818"/>
<path d="M190.007 83.2387C190.295 83.5289 190.516 83.8776 190.657 84.261C190.798 84.6445 190.854 85.0537 190.823 85.4609V89.5428H189.284V88.6963C189.075 89.0078 188.778 89.2505 188.431 89.3937C188.006 89.5636 187.551 89.645 187.094 89.6328C186.624 89.6431 186.157 89.5512 185.725 89.3634C185.359 89.2068 185.045 88.9502 184.818 88.6229C184.605 88.3047 184.494 87.9295 184.499 87.5469C184.489 87.2586 184.547 86.972 184.668 86.7102C184.789 86.4484 184.97 86.2187 185.196 86.0396C185.844 85.6095 186.618 85.4099 187.394 85.4729H189.191V85.3685C189.205 85.161 189.173 84.9531 189.097 84.7593C189.022 84.5655 188.905 84.3907 188.754 84.247C188.385 83.9605 187.923 83.821 187.457 83.8556C187.066 83.8558 186.676 83.9174 186.303 84.0382C185.955 84.145 185.63 84.3179 185.347 84.5475L184.709 83.3598C185.104 83.0673 185.551 82.851 186.025 82.7222C186.555 82.5723 187.104 82.498 187.654 82.5014C188.504 82.4441 189.343 82.7071 190.007 83.2387ZM188.522 88.1678C188.834 87.9883 189.072 87.7034 189.193 87.3644V86.5561H187.512C186.573 86.5561 186.104 86.8651 186.104 87.4831C186.1 87.6205 186.13 87.7568 186.191 87.8797C186.253 88.0026 186.344 88.1082 186.457 88.1869C186.746 88.3767 187.089 88.4681 187.434 88.4476C187.816 88.4542 188.191 88.3575 188.522 88.1678Z" fill="#1A1818"/>
<path d="M199.429 82.5811L196.442 89.5443H194.761L191.77 82.5811H193.466L195.631 87.7445L197.863 82.5811H199.429Z" fill="#1A1818"/>
<path d="M206.964 86.5833H201.502C201.583 87.0717 201.852 87.5091 202.251 87.802C202.69 88.1127 203.219 88.2709 203.757 88.2524C204.107 88.2634 204.456 88.2017 204.782 88.0713C205.107 87.9408 205.402 87.7444 205.648 87.4944L206.518 88.5011C206.199 88.8778 205.792 89.1688 205.332 89.3476C204.816 89.5449 204.267 89.6423 203.715 89.6345C203.013 89.6491 202.319 89.492 201.692 89.177C201.13 88.8918 200.662 88.4507 200.343 87.9064C200.02 87.3455 199.855 86.7076 199.865 86.0604C199.855 85.4191 200.015 84.7866 200.329 84.2271C200.629 83.6915 201.073 83.2512 201.612 82.9566C202.179 82.6462 202.817 82.4885 203.464 82.4991C204.099 82.4881 204.727 82.6434 205.284 82.9494C205.813 83.2436 206.246 83.6827 206.534 84.2152C206.843 84.7938 206.998 85.4421 206.984 86.0979C206.984 86.2111 206.975 86.3729 206.958 86.5809M202.14 84.2654C201.776 84.5804 201.541 85.0195 201.481 85.4977H205.433C205.38 85.0183 205.148 84.5768 204.782 84.2622C204.417 83.9476 203.945 83.7833 203.464 83.8023C202.981 83.789 202.51 83.9543 202.14 84.2654Z" fill="#1A1818"/>
<path d="M212.649 89.4123C212.191 89.3011 211.754 89.1124 211.359 88.8543L211.985 87.6149C212.332 87.8398 212.712 88.0092 213.111 88.117C213.533 88.2398 213.97 88.3031 214.41 88.3051C215.383 88.3051 215.87 88.049 215.87 87.5368C215.873 87.4228 215.838 87.3112 215.771 87.2193C215.703 87.1274 215.607 87.0604 215.498 87.029C215.109 86.8991 214.709 86.8071 214.302 86.754C213.828 86.6882 213.359 86.5883 212.899 86.4551C212.54 86.3417 212.216 86.1368 211.96 85.8605C211.679 85.5336 211.536 85.1103 211.562 84.68C211.555 84.3676 211.628 84.0586 211.773 83.7817C211.918 83.5048 212.13 83.269 212.391 83.0962C213.056 82.6693 213.838 82.4619 214.627 82.5032C215.109 82.5043 215.591 82.5591 216.061 82.6666C216.472 82.751 216.868 82.8981 217.235 83.1026L216.609 84.3421C216.004 83.9901 215.316 83.8091 214.616 83.8184C214.24 83.7967 213.865 83.8707 213.526 84.0336C213.417 84.0843 213.325 84.1642 213.259 84.2642C213.194 84.3643 213.157 84.4807 213.154 84.6003C213.15 84.724 213.188 84.8453 213.26 84.9459C213.331 85.0466 213.434 85.1211 213.552 85.1583C213.952 85.3008 214.365 85.4033 214.784 85.4644C215.248 85.5296 215.706 85.6295 216.155 85.7633C216.505 85.8724 216.821 86.0701 217.073 86.3372C217.348 86.6545 217.486 87.0676 217.459 87.4865C217.463 87.798 217.388 88.1054 217.239 88.3792C217.091 88.653 216.874 88.8839 216.611 89.0496C215.919 89.4763 215.114 89.6813 214.303 89.6371C213.743 89.6377 213.186 89.5629 212.646 89.4147" fill="#1A1818"/>
<path d="M225.388 86.5833H219.922C220.004 87.0717 220.273 87.5091 220.672 87.802C221.111 88.1127 221.64 88.2709 222.177 88.2524C222.528 88.2634 222.877 88.2017 223.202 88.0713C223.528 87.9408 223.823 87.7444 224.069 87.4944L224.944 88.5011C224.626 88.8778 224.218 89.1688 223.758 89.3476C223.242 89.5449 222.693 89.6423 222.141 89.6345C221.439 89.6491 220.745 89.492 220.119 89.177C219.556 88.8918 219.088 88.4507 218.769 87.9064C218.446 87.3455 218.281 86.7076 218.291 86.0604C218.281 85.4191 218.441 84.7866 218.755 84.2271C219.055 83.6915 219.499 83.2512 220.038 82.9566C220.605 82.6462 221.243 82.4885 221.89 82.4991C222.525 82.4881 223.153 82.6434 223.71 82.9494C224.239 83.2436 224.673 83.6827 224.96 84.2152C225.269 84.7938 225.424 85.4421 225.41 86.0979C225.41 86.2111 225.402 86.3729 225.384 86.5809M220.566 84.2654C220.202 84.5804 219.967 85.0195 219.907 85.4977H223.859C223.807 85.0183 223.574 84.5767 223.208 84.262C222.843 83.9473 222.372 83.7831 221.89 83.8023C221.407 83.789 220.936 83.9543 220.566 84.2654Z" fill="#1A1818"/>
<path d="M231.414 89.5431L229.628 87.1295L227.827 89.5431H226.027L228.737 86.0104L226.144 82.583H227.957L229.664 84.8658L231.373 82.583H233.132L230.524 85.9857L233.25 89.5463L231.414 89.5431Z" fill="#1A1818"/>
<path d="M242.235 89.1611C242.029 89.3253 241.792 89.4454 241.538 89.5142C241.255 89.5937 240.964 89.6334 240.67 89.6322C240.023 89.6731 239.386 89.4568 238.897 89.0304C238.678 88.7982 238.509 88.5231 238.401 88.2223C238.293 87.9216 238.249 87.6018 238.271 87.2832V83.9355H237.123V82.6322H238.271V81.0381H239.902V82.6322H241.766V83.9363H239.902V87.2481C239.882 87.5292 239.97 87.8073 240.149 88.0253C240.243 88.1181 240.355 88.19 240.479 88.2361C240.603 88.2823 240.735 88.3017 240.866 88.2931C241.194 88.3043 241.517 88.2031 241.779 88.0061L242.235 89.1611Z" fill="#1A1818"/>
<path d="M244.806 89.1777C244.253 88.8857 243.795 88.4436 243.482 87.9024C243.17 87.339 243.006 86.7054 243.006 86.0612C243.006 85.4169 243.17 84.7833 243.482 84.2199C243.796 83.6829 244.255 83.2449 244.806 82.9558C245.398 82.6555 246.052 82.499 246.716 82.499C247.38 82.499 248.035 82.6555 248.627 82.9558C249.177 83.2459 249.635 83.6837 249.95 84.2199C250.262 84.7833 250.426 85.4169 250.426 86.0612C250.426 86.7054 250.262 87.339 249.95 87.9024C249.637 88.4429 249.178 88.8847 248.627 89.1777C248.034 89.4772 247.38 89.6332 246.716 89.6332C246.052 89.6332 245.398 89.4772 244.806 89.1777ZM248.196 87.6394C248.574 87.2006 248.781 86.6407 248.781 86.0616C248.781 85.4824 248.574 84.9225 248.196 84.4838C248.003 84.2862 247.771 84.1309 247.515 84.0276C247.259 83.9243 246.985 83.8752 246.709 83.8836C246.434 83.8747 246.161 83.9235 245.906 84.0269C245.651 84.1303 245.421 84.2859 245.23 84.4838C244.855 84.924 244.649 85.4833 244.649 86.0616C244.649 86.6398 244.855 87.1992 245.23 87.6394C245.421 87.8369 245.651 87.9923 245.906 88.0957C246.161 88.199 246.434 88.2481 246.709 88.2396C246.985 88.2476 247.259 88.1984 247.515 88.0951C247.771 87.9918 248.003 87.8366 248.196 87.6394Z" fill="#1A1818"/>
<path d="M258.809 79.8672V89.5421H257.245V88.6438C256.98 88.9709 256.636 89.2261 256.247 89.3859C255.831 89.5553 255.385 89.6398 254.936 89.6346C254.306 89.6445 253.684 89.4918 253.131 89.1914C252.601 88.9005 252.164 88.4645 251.872 87.9344C251.56 87.3599 251.403 86.7142 251.415 86.0605C251.402 85.41 251.56 84.7676 251.872 84.1969C252.166 83.6696 252.602 83.2358 253.131 82.9455C253.685 82.6456 254.306 82.4935 254.936 82.5039C255.369 82.498 255.799 82.5771 256.201 82.7367C256.579 82.8898 256.915 83.1321 257.179 83.4429V79.8672H258.809ZM256.191 87.9727C256.506 87.7926 256.763 87.5281 256.935 87.2091C257.115 86.8532 257.208 86.4602 257.208 86.0617C257.208 85.6632 257.115 85.2702 256.935 84.9143C256.764 84.5948 256.506 84.3302 256.191 84.1507C255.867 83.975 255.504 83.8829 255.135 83.8829C254.766 83.8829 254.403 83.975 254.079 84.1507C253.765 84.3304 253.507 84.595 253.337 84.9143C253.156 85.2698 253.062 85.6629 253.062 86.0617C253.062 86.4604 253.156 86.8535 253.337 87.2091C253.508 87.528 253.765 87.7925 254.079 87.9727C254.403 88.1471 254.766 88.2384 255.135 88.2384C255.503 88.2384 255.866 88.1471 256.191 87.9727Z" fill="#1A1818"/>
<path d="M265.96 83.2387C266.247 83.5289 266.469 83.8776 266.61 84.261C266.75 84.6445 266.807 85.0537 266.775 85.4609V89.5428H265.237V88.6963C265.027 89.0078 264.73 89.2505 264.383 89.3937C263.959 89.5636 263.504 89.645 263.047 89.6328C262.576 89.6431 262.109 89.5512 261.678 89.3634C261.312 89.2068 260.997 88.9502 260.77 88.6229C260.558 88.3047 260.447 87.9295 260.451 87.5469C260.442 87.2586 260.499 86.972 260.621 86.7102C260.742 86.4484 260.923 86.2187 261.149 86.0396C261.797 85.6095 262.571 85.4099 263.346 85.4729H265.144V85.3685C265.157 85.161 265.125 84.9532 265.05 84.7594C264.975 84.5657 264.858 84.3908 264.708 84.247C264.339 83.9606 263.877 83.8211 263.411 83.8556C263.019 83.8558 262.63 83.9174 262.257 84.0382C261.908 84.145 261.583 84.3179 261.3 84.5475L260.663 83.3598C261.058 83.0673 261.504 82.851 261.979 82.7222C262.509 82.5723 263.057 82.498 263.608 82.5014C264.457 82.4441 265.297 82.7071 265.962 83.2387M264.475 88.1678C264.787 87.9883 265.025 87.7034 265.146 87.3644V86.5561H263.465C262.526 86.5561 262.057 86.8651 262.057 87.4831C262.052 87.6205 262.083 87.7568 262.144 87.8797C262.206 88.0026 262.297 88.1082 262.41 88.1869C262.699 88.3767 263.042 88.4681 263.387 88.4476C263.768 88.4542 264.144 88.3575 264.475 88.1678Z" fill="#1A1818"/>
<path d="M275.381 82.5811L272.121 90.1039C271.909 90.7293 271.525 91.282 271.012 91.698C270.549 92.0161 269.997 92.1785 269.435 92.1619C269.085 92.1603 268.737 92.1027 268.405 91.9914C268.096 91.8958 267.812 91.7358 267.57 91.5219L268.222 90.3223C268.385 90.4731 268.574 90.5923 268.78 90.6738C268.984 90.7592 269.203 90.8036 269.425 90.8045C269.68 90.8145 269.932 90.7359 270.136 90.5821C270.363 90.3787 270.539 90.1252 270.651 89.8416L270.769 89.5666L267.729 82.5811H269.425L271.615 87.731L273.82 82.5811H275.381Z" fill="#1A1818"/>
<path d="M276.164 89.3276C276.061 89.2271 275.98 89.1063 275.926 88.9728C275.872 88.8393 275.846 88.6959 275.851 88.552C275.847 88.4091 275.872 88.2669 275.924 88.1338C275.976 88.0006 276.054 87.8793 276.154 87.7768C276.253 87.6744 276.373 87.593 276.504 87.5374C276.636 87.4818 276.777 87.4531 276.92 87.4531C277.063 87.4531 277.205 87.4818 277.336 87.5374C277.468 87.593 277.587 87.6744 277.687 87.7768C277.787 87.8793 277.865 88.0006 277.917 88.1338C277.969 88.2669 277.993 88.4091 277.99 88.552C277.991 88.7642 277.93 88.9722 277.814 89.1496C277.697 89.3271 277.531 89.4661 277.336 89.5491C277.14 89.6321 276.925 89.6553 276.716 89.6159C276.508 89.5765 276.316 89.4761 276.164 89.3276Z" fill="#1A1818"/>
<path d="M88.5537 32.8267C89.2159 33.1036 89.7802 33.5721 90.1742 34.1721C90.543 34.8024 90.7375 35.5195 90.7375 36.2497C90.7375 36.98 90.543 37.6971 90.1742 38.3273C89.7821 38.9312 89.2175 39.4033 88.5537 39.6823C87.7694 40.0105 86.9248 40.1699 86.0748 40.1502H83.6039V43.313H81.5681V32.358H86.0748C86.9249 32.3388 87.7695 32.4979 88.5537 32.8267ZM87.9957 37.8658C88.2275 37.6689 88.4104 37.4208 88.5299 37.1411C88.6494 36.8614 88.7023 36.5577 88.6844 36.2541C88.7023 35.9505 88.6494 35.6468 88.5299 35.3671C88.4104 35.0875 88.2275 34.8394 87.9957 34.6424C87.4079 34.2279 86.6951 34.0288 85.9775 34.0789H83.6023V38.4285H85.9807C86.6983 38.4786 87.4111 38.2795 87.9989 37.865" fill="#0F849C"/>
<path d="M100.578 39.7615H94.0217C94.1191 40.3478 94.4424 40.8726 94.9224 41.2233C95.4491 41.5962 96.0836 41.786 96.7285 41.7637C97.1491 41.7767 97.5679 41.7028 97.9586 41.5466C98.3494 41.3904 98.7037 41.1552 98.9994 40.8558L100.048 42.061C99.6646 42.5138 99.1744 42.8635 98.6216 43.0781C97.9164 43.3357 97.1669 43.45 96.417 43.4143C95.6671 43.3785 94.9319 43.1935 94.2544 42.8701C93.5798 42.5267 93.0179 41.9969 92.6355 41.3436C92.2484 40.6704 92.0507 39.905 92.0632 39.1286C92.0531 38.3598 92.2455 37.6018 92.6212 36.931C92.9824 36.2889 93.5161 35.7607 94.1619 35.4062C94.8435 35.0344 95.6096 34.8452 96.3858 34.857C97.1476 34.8445 97.8995 35.0308 98.5674 35.3975C99.2038 35.7511 99.7262 36.2789 100.073 36.9191C100.443 37.6145 100.629 38.3934 100.612 39.1812C100.612 39.3167 100.602 39.5096 100.581 39.7599M94.7996 36.9812C94.3628 37.3602 94.0813 37.8869 94.0089 38.4606H98.7499C98.6855 37.8927 98.4129 37.3687 97.9847 36.99C97.5333 36.6266 96.9716 36.4277 96.3921 36.4261C95.8126 36.4245 95.2498 36.6203 94.7964 36.9812" fill="#0F849C"/>
<path d="M108.565 35.7473C108.91 36.0956 109.176 36.5141 109.345 36.9743C109.514 37.4345 109.582 37.9256 109.544 38.4144V43.3116H107.698V42.2953C107.446 42.6695 107.089 42.9609 106.672 43.1331C106.163 43.3387 105.618 43.4374 105.069 43.4232C104.505 43.4353 103.945 43.3266 103.426 43.1044C102.987 42.9154 102.609 42.6055 102.338 42.2108C102.082 41.83 101.949 41.38 101.956 40.9212C101.944 40.5757 102.014 40.2324 102.159 39.9188C102.305 39.6051 102.521 39.3298 102.792 39.115C103.569 38.5971 104.498 38.3564 105.429 38.4319H107.588V38.3052C107.603 38.0562 107.565 37.8068 107.474 37.5745C107.383 37.3421 107.243 37.1323 107.063 36.9597C106.62 36.6162 106.066 36.4489 105.507 36.4902C105.036 36.4904 104.569 36.5644 104.121 36.7094C103.703 36.8377 103.313 37.0449 102.972 37.32L102.205 35.898C102.68 35.5455 103.216 35.2848 103.786 35.1296C104.422 34.9501 105.081 34.8604 105.742 34.8634C106.761 34.7942 107.768 35.1091 108.565 35.7473ZM106.784 41.6625C107.158 41.4469 107.444 41.1058 107.59 40.6996V39.7303H105.57C104.443 39.7303 103.88 40.1002 103.88 40.8399C103.875 41.0049 103.911 41.1685 103.985 41.3162C104.058 41.4639 104.168 41.5911 104.302 41.6864C104.65 41.9132 105.061 42.0222 105.476 41.9972C105.933 42.0059 106.385 41.8899 106.781 41.6617" fill="#0F849C"/>
<path d="M115.466 39.7295L114.011 41.1069V43.3124H112.056V31.7021H114.012V38.7101L118.064 34.9566H120.411L116.922 38.4638L120.74 43.3148H118.361L115.466 39.7295Z" fill="#0F849C"/>
<path d="M128.547 34.0637V37.3963H133.836V39.1172H128.547V43.3106H126.513V32.3604H134.51V34.0637H128.547Z" fill="#0F849C"/>
<path d="M144.084 39.7612H137.53C137.627 40.3474 137.95 40.8722 138.429 41.223C138.956 41.5959 139.59 41.7858 140.235 41.7634C140.656 41.7764 141.075 41.7025 141.466 41.5463C141.856 41.3901 142.211 41.155 142.506 40.8556L143.554 42.0608C143.171 42.5136 142.68 42.8628 142.127 43.0762C141.423 43.3344 140.674 43.4493 139.924 43.4144C139.175 43.3795 138.44 43.1955 137.763 42.873C137.09 42.5293 136.529 41.9995 136.149 41.3466C135.762 40.6734 135.564 39.908 135.576 39.1315C135.566 38.3627 135.759 37.6048 136.134 36.934C136.494 36.292 137.026 35.7638 137.671 35.4091C138.353 35.0373 139.119 34.8481 139.895 34.86C140.656 34.8475 141.408 35.0338 142.075 35.4004C142.71 35.7519 143.231 36.2773 143.578 36.9148C143.948 37.6101 144.135 38.3891 144.118 39.1769C144.118 39.3124 144.106 39.5053 144.085 39.7556M138.301 36.981C137.864 37.3599 137.583 37.8867 137.51 38.4604H142.253C142.188 37.8927 141.915 37.369 141.488 36.9897C141.036 36.6263 140.475 36.4274 139.895 36.4258C139.315 36.4242 138.753 36.62 138.299 36.981" fill="#0F849C"/>
<path d="M150.923 34.8625V36.7245C150.773 36.6958 150.621 36.68 150.469 36.6774C150.142 36.6585 149.814 36.708 149.507 36.8226C149.2 36.9371 148.92 37.1144 148.685 37.343C148.229 37.8719 148 38.5592 148.048 39.256V43.3083H146.088V34.9581H147.949V36.1761C148.286 35.7154 148.738 35.3514 149.26 35.1204C149.782 34.8895 150.355 34.7997 150.923 34.8601" fill="#0F849C"/>
<path d="M158.146 42.8586C157.898 43.054 157.614 43.1977 157.31 43.2811C156.971 43.3764 156.62 43.4239 156.268 43.4221C155.492 43.4731 154.727 43.2152 154.14 42.7048C153.876 42.4261 153.674 42.0959 153.544 41.7349C153.415 41.374 153.362 40.9901 153.389 40.6077V36.5824H152.012V35.0194H153.39V33.1104H155.346V35.0194H157.583V36.5824H155.345V40.5566C155.321 40.8933 155.428 41.2262 155.642 41.4868C155.755 41.598 155.89 41.6839 156.038 41.7389C156.187 41.7938 156.345 41.8166 156.503 41.8057C156.897 41.8203 157.283 41.6993 157.598 41.4629L158.146 42.8586Z" fill="#0F849C"/>
<path d="M159.852 33.2435C159.739 33.1355 159.649 33.0057 159.587 32.8618C159.525 32.718 159.494 32.5631 159.494 32.4065C159.494 32.25 159.525 32.0951 159.587 31.9513C159.649 31.8074 159.739 31.6776 159.852 31.5696C160.094 31.3449 160.414 31.2243 160.744 31.234C161.071 31.2237 161.389 31.3377 161.635 31.5529C161.751 31.6522 161.843 31.7761 161.906 31.9156C161.968 32.0551 161.998 32.2068 161.995 32.3595C161.999 32.5205 161.97 32.6805 161.909 32.8297C161.849 32.9789 161.758 33.1141 161.643 33.2267C161.526 33.3441 161.385 33.4361 161.23 33.4968C161.076 33.5576 160.91 33.5858 160.744 33.5798C160.414 33.5896 160.094 33.4682 159.852 33.2435ZM159.757 34.9564H161.713V43.3114H159.757V34.9564Z" fill="#0F849C"/>
<path d="M166.234 31.7012H164.278V43.3114H166.234V31.7012Z" fill="#0F849C"/>
<path d="M168.913 33.2435C168.799 33.1356 168.709 33.0057 168.647 32.8618C168.586 32.718 168.554 32.5631 168.554 32.4066C168.554 32.25 168.586 32.0952 168.647 31.9513C168.709 31.8074 168.799 31.6776 168.913 31.5696C169.154 31.3449 169.475 31.2243 169.805 31.2341C170.132 31.2235 170.45 31.3375 170.697 31.5529C170.812 31.6525 170.905 31.7765 170.967 31.9159C171.029 32.0554 171.06 32.2068 171.057 32.3595C171.061 32.5206 171.032 32.6809 170.971 32.8301C170.91 32.9794 170.819 33.1144 170.704 33.2268C170.586 33.3442 170.446 33.4362 170.291 33.4969C170.136 33.5577 169.971 33.5859 169.805 33.5799C169.475 33.5896 169.154 33.4682 168.913 33.2435ZM168.819 34.9564H170.775V43.3114H168.818L168.819 34.9564Z" fill="#0F849C"/>
<path d="M178.435 42.8586C178.188 43.054 177.903 43.1977 177.599 43.2811C177.26 43.3764 176.91 43.4239 176.557 43.4221C175.781 43.4731 175.016 43.2152 174.429 42.7048C174.166 42.4261 173.963 42.0959 173.834 41.7349C173.705 41.374 173.652 40.9901 173.678 40.6077V36.5824H172.298V35.0194H173.675V33.1104H175.631V35.0194H177.869V36.5824H175.631V40.5566C175.608 40.8933 175.714 41.2262 175.929 41.4868C176.041 41.598 176.176 41.6839 176.325 41.7389C176.473 41.7938 176.631 41.8166 176.789 41.8057C177.183 41.8203 177.57 41.6993 177.885 41.4629L178.435 42.8586Z" fill="#0F849C"/>
<path d="M188.235 34.9565L184.323 43.9834C184.069 44.7356 183.608 45.4006 182.992 45.9012C182.436 46.2827 181.773 46.4781 181.099 46.4592C180.679 46.4584 180.262 46.3903 179.863 46.2575C179.493 46.1428 179.152 45.9507 178.862 45.694L179.644 44.2544C179.839 44.4346 180.064 44.5778 180.31 44.6769C180.555 44.7794 180.818 44.8335 181.084 44.8363C181.391 44.8486 181.693 44.7539 181.938 44.5685C182.21 44.3243 182.422 44.0193 182.555 43.6782L182.696 43.3482L179.05 34.9629H181.084L183.714 41.1435L186.359 34.9629L188.235 34.9565Z" fill="#0F849C"/>
<path d="M43.5539 46.365C43.6753 46.491 43.8209 46.5911 43.9819 46.6595C44.1429 46.7279 44.316 46.7632 44.4909 46.7632C44.6658 46.7632 44.8389 46.7279 44.9999 46.6595C45.1609 46.5911 45.3064 46.491 45.4279 46.365L55.7054 35.7057C56.2231 35.1689 56.63 34.5353 56.9028 33.8411C57.1757 33.147 57.3092 32.4059 57.2956 31.6602C57.2821 30.9145 57.1218 30.1788 56.8239 29.495C56.526 28.8113 56.0964 28.1929 55.5595 27.6752C55.0226 27.1575 54.389 26.7506 53.6949 26.4777C53.0008 26.2048 52.2597 26.0714 51.514 26.0849C50.7683 26.0985 50.0326 26.2588 49.3488 26.5566C48.6651 26.8545 48.0467 27.2842 47.5289 27.821L45.7068 29.7181L47.3687 31.4374C47.5249 31.5993 47.6135 31.8146 47.6165 32.0395C47.6196 32.2644 47.5368 32.482 47.3852 32.6481C47.2335 32.8142 47.0242 32.9163 46.8 32.9336C46.5757 32.951 46.3533 32.8822 46.1779 32.7414L46.0982 32.6665L44.1669 30.6674C44.1293 30.6295 44.0954 30.5881 44.0656 30.5439L41.4353 27.821C40.3893 26.7385 38.9563 26.1154 37.4512 26.0887C35.9461 26.0621 34.4919 26.634 33.4082 27.6788C32.3245 28.7236 31.6999 30.1559 31.6716 31.661C31.6433 33.1661 32.2136 34.6209 33.2573 35.7057L43.5539 46.365Z" fill="#0F849C"/>
<g opacity="0.4">
<mask id="mask0_1281_2295" style="mask-type:luminance" maskUnits="userSpaceOnUse" x="33" y="17" width="5" height="6">
<path d="M37.799 17.9844H33.5203V22.4265H37.799V17.9844Z" fill="white"/>
</mask>
<g mask="url(#mask0_1281_2295)">
<path d="M36.2709 22.1484C36.3491 22.2379 36.4445 22.3107 36.5515 22.3625C36.6584 22.4143 36.7747 22.444 36.8934 22.4499C37.012 22.4558 37.1307 22.4377 37.2422 22.3967C37.3537 22.3557 37.4559 22.2927 37.5425 22.2114C37.6292 22.1301 37.6986 22.0322 37.7466 21.9235C37.7945 21.8148 37.8201 21.6976 37.8218 21.5788C37.8235 21.46 37.8013 21.342 37.7564 21.232C37.7115 21.122 37.6449 21.0221 37.5606 20.9384L35.0514 18.2682C34.8888 18.1067 34.6698 18.0146 34.4405 18.0113C34.2113 18.0081 33.9898 18.0939 33.8226 18.2507C33.6554 18.4076 33.5557 18.6232 33.5443 18.8522C33.5329 19.0811 33.6109 19.3056 33.7617 19.4782L36.2709 22.1484Z" fill="#0F849C"/>
</g>
</g>
<g opacity="0.4">
<mask id="mask1_1281_2295" style="mask-type:luminance" maskUnits="userSpaceOnUse" x="51" y="17" width="5" height="6">
<path d="M55.4495 17.9858H51.17V22.4264H55.4495V17.9858Z" fill="white"/>
</mask>
<g mask="url(#mask1_1281_2295)">
<path d="M52.0555 22.4264C52.1763 22.4264 52.2957 22.4017 52.4066 22.3538C52.5175 22.306 52.6175 22.236 52.7003 22.1482L55.2111 19.474C55.2912 19.3894 55.3538 19.2899 55.3953 19.1811C55.4368 19.0722 55.4565 18.9563 55.4531 18.8398C55.4496 18.7234 55.4233 18.6088 55.3755 18.5026C55.3277 18.3964 55.2594 18.3006 55.1745 18.2209C55.0896 18.1411 54.9898 18.0789 54.8808 18.0378C54.7718 17.9967 54.6557 17.9776 54.5393 17.9814C54.4229 17.9853 54.3084 18.0121 54.2024 18.0603C54.0963 18.1086 54.0009 18.1773 53.9215 18.2625L51.4107 20.9367C51.2927 21.0625 51.2142 21.2201 51.1846 21.39C51.155 21.56 51.1758 21.7348 51.2443 21.8931C51.3128 22.0514 51.4261 22.1862 51.5702 22.2809C51.7144 22.3757 51.883 22.4263 52.0555 22.4264Z" fill="#0F849C"/>
</g>
</g>
<g opacity="0.4">
<mask id="mask2_1281_2295" style="mask-type:luminance" maskUnits="userSpaceOnUse" x="43" y="14" width="3" height="7">
<path d="M45.3689 14.3203H43.6002V20.7806H45.3689V14.3203Z" fill="white"/>
</mask>
<g mask="url(#mask2_1281_2295)">
<path d="M44.4849 20.7808C44.7195 20.7806 44.9444 20.6873 45.1103 20.5215C45.2762 20.3556 45.3695 20.1307 45.3697 19.8961V15.2053C45.3697 14.9703 45.2763 14.745 45.1102 14.5788C44.944 14.4127 44.7187 14.3193 44.4837 14.3193C44.2488 14.3193 44.0234 14.4127 43.8573 14.5788C43.6911 14.745 43.5978 14.9703 43.5978 15.2053V19.8961C43.5982 20.1309 43.6918 20.3559 43.8579 20.5218C44.0241 20.6877 44.2501 20.7808 44.4849 20.7808Z" fill="#0F849C"/>
</g>
</g>
<g opacity="0.4">
<mask id="mask3_1281_2295" style="mask-type:luminance" maskUnits="userSpaceOnUse" x="51" y="49" width="5" height="5">
<path d="M55.4495 49.3311H51.17V53.7732H55.4495V49.3311Z" fill="white"/>
</mask>
<g mask="url(#mask3_1281_2295)">
<path d="M52.6988 49.6115C52.5361 49.4499 52.3171 49.3578 52.0879 49.3546C51.8587 49.3513 51.6371 49.4372 51.4699 49.594C51.3028 49.7509 51.203 49.9665 51.1916 50.1954C51.1803 50.4244 51.2582 50.6488 51.4091 50.8214L53.9207 53.4972C54.0813 53.668 54.3033 53.768 54.5377 53.7752C54.772 53.7824 54.9997 53.6961 55.1705 53.5355C55.3413 53.3748 55.4413 53.1529 55.4485 52.9185C55.4556 52.6841 55.3694 52.4565 55.2088 52.2857L52.6988 49.6115Z" fill="#0F849C"/>
</g>
</g>
<g opacity="0.4">
<mask id="mask4_1281_2295" style="mask-type:luminance" maskUnits="userSpaceOnUse" x="33" y="49" width="5" height="5">
<path d="M37.799 49.3311H33.5195V53.7732H37.799V49.3311Z" fill="white"/>
</mask>
<g mask="url(#mask4_1281_2295)">
<path d="M36.2702 49.6118L33.7594 52.2844C33.5991 52.4555 33.5132 52.6832 33.5207 52.9176C33.5282 53.1519 33.6284 53.3737 33.7993 53.5342C33.8838 53.6141 33.9833 53.6764 34.0919 53.7178C34.2006 53.7592 34.3163 53.7787 34.4326 53.7753C34.5488 53.7719 34.6632 53.7456 34.7693 53.698C34.8753 53.6503 34.9709 53.5822 35.0507 53.4976L37.5615 50.8234C37.7123 50.6508 37.7903 50.4263 37.7789 50.1974C37.7676 49.9684 37.6678 49.7528 37.5006 49.596C37.3334 49.4391 37.1119 49.3533 36.8827 49.3565C36.6535 49.3598 36.4344 49.4519 36.2718 49.6134" fill="#0F849C"/>
</g>
</g>
<g opacity="0.4">
<mask id="mask5_1281_2295" style="mask-type:luminance" maskUnits="userSpaceOnUse" x="43" y="50" width="3" height="8">
<path d="M45.3689 50.9761H43.6002V57.4364H45.3689V50.9761Z" fill="white"/>
</mask>
<g mask="url(#mask5_1281_2295)">
<path d="M44.4849 50.9761C44.2501 50.9761 44.0249 51.0692 43.8587 51.2351C43.6926 51.401 43.599 51.626 43.5986 51.8608V56.5516C43.5986 56.7866 43.6919 57.0119 43.8581 57.1781C44.0242 57.3442 44.2496 57.4376 44.4845 57.4376C44.7195 57.4376 44.9448 57.3442 45.111 57.1781C45.2771 57.0119 45.3705 56.7866 45.3705 56.5516V51.8608C45.3703 51.6262 45.277 51.4013 45.1111 51.2354C44.9452 51.0696 44.7203 50.9763 44.4857 50.9761" fill="#0F849C"/>
</g>
</g>
</g>
<defs>
<clipPath id="clip0_1281_2295">
<rect width="331.676" height="120" fill="white"/>
</clipPath>
</defs>
</svg>
